%TF.GenerationSoftware,KiCad,Pcbnew,(5.1.10-1-10_14)*%
%TF.CreationDate,2021-10-01T16:43:39+02:00*%
%TF.ProjectId,Guitarpedal,47756974-6172-4706-9564-616c2e6b6963,rev?*%
%TF.SameCoordinates,Original*%
%TF.FileFunction,Legend,Top*%
%TF.FilePolarity,Positive*%
%FSLAX46Y46*%
G04 Gerber Fmt 4.6, Leading zero omitted, Abs format (unit mm)*
G04 Created by KiCad (PCBNEW (5.1.10-1-10_14)) date 2021-10-01 16:43:39*
%MOMM*%
%LPD*%
G01*
G04 APERTURE LIST*
%ADD10C,0.250000*%
%ADD11C,0.100000*%
%ADD12C,0.200000*%
%ADD13C,0.150000*%
%ADD14C,0.120000*%
%ADD15C,0.010000*%
G04 APERTURE END LIST*
D10*
X6750000Y13500000D02*
X500000Y13500000D01*
X6750000Y12000000D02*
X6750000Y13500000D01*
X59500000Y87250000D02*
X59500000Y77500000D01*
X57250000Y89500000D02*
X59500000Y87250000D01*
X2750000Y89500000D02*
X57250000Y89500000D01*
X500000Y87250000D02*
X2750000Y89500000D01*
X500000Y77500000D02*
X500000Y87250000D01*
X57250000Y500000D02*
X59500000Y2750000D01*
X500000Y2750000D02*
X2750000Y500000D01*
D11*
X45621428Y3978571D02*
X45621428Y4578571D01*
X45764285Y4578571D01*
X45850000Y4550000D01*
X45907142Y4492857D01*
X45935714Y4435714D01*
X45964285Y4321428D01*
X45964285Y4235714D01*
X45935714Y4121428D01*
X45907142Y4064285D01*
X45850000Y4007142D01*
X45764285Y3978571D01*
X45621428Y3978571D01*
X46221428Y3978571D02*
X46221428Y4578571D01*
X46478571Y4007142D02*
X46564285Y3978571D01*
X46707142Y3978571D01*
X46764285Y4007142D01*
X46792857Y4035714D01*
X46821428Y4092857D01*
X46821428Y4150000D01*
X46792857Y4207142D01*
X46764285Y4235714D01*
X46707142Y4264285D01*
X46592857Y4292857D01*
X46535714Y4321428D01*
X46507142Y4350000D01*
X46478571Y4407142D01*
X46478571Y4464285D01*
X46507142Y4521428D01*
X46535714Y4550000D01*
X46592857Y4578571D01*
X46735714Y4578571D01*
X46821428Y4550000D01*
X46992857Y4578571D02*
X47335714Y4578571D01*
X47164285Y3978571D02*
X47164285Y4578571D01*
X47650000Y4578571D02*
X47764285Y4578571D01*
X47821428Y4550000D01*
X47878571Y4492857D01*
X47907142Y4378571D01*
X47907142Y4178571D01*
X47878571Y4064285D01*
X47821428Y4007142D01*
X47764285Y3978571D01*
X47650000Y3978571D01*
X47592857Y4007142D01*
X47535714Y4064285D01*
X47507142Y4178571D01*
X47507142Y4378571D01*
X47535714Y4492857D01*
X47592857Y4550000D01*
X47650000Y4578571D01*
X48507142Y3978571D02*
X48307142Y4264285D01*
X48164285Y3978571D02*
X48164285Y4578571D01*
X48392857Y4578571D01*
X48450000Y4550000D01*
X48478571Y4521428D01*
X48507142Y4464285D01*
X48507142Y4378571D01*
X48478571Y4321428D01*
X48450000Y4292857D01*
X48392857Y4264285D01*
X48164285Y4264285D01*
X48678571Y4578571D02*
X49021428Y4578571D01*
X48850000Y3978571D02*
X48850000Y4578571D01*
X49221428Y3978571D02*
X49221428Y4578571D01*
X49621428Y4578571D02*
X49735714Y4578571D01*
X49792857Y4550000D01*
X49850000Y4492857D01*
X49878571Y4378571D01*
X49878571Y4178571D01*
X49850000Y4064285D01*
X49792857Y4007142D01*
X49735714Y3978571D01*
X49621428Y3978571D01*
X49564285Y4007142D01*
X49507142Y4064285D01*
X49478571Y4178571D01*
X49478571Y4378571D01*
X49507142Y4492857D01*
X49564285Y4550000D01*
X49621428Y4578571D01*
X50135714Y3978571D02*
X50135714Y4578571D01*
X50478571Y3978571D01*
X50478571Y4578571D01*
X51221428Y4292857D02*
X51421428Y4292857D01*
X51507142Y3978571D02*
X51221428Y3978571D01*
X51221428Y4578571D01*
X51507142Y4578571D01*
X51964285Y4292857D02*
X51764285Y4292857D01*
X51764285Y3978571D02*
X51764285Y4578571D01*
X52049999Y4578571D01*
X52478571Y4292857D02*
X52278571Y4292857D01*
X52278571Y3978571D02*
X52278571Y4578571D01*
X52564285Y4578571D01*
X52792857Y4292857D02*
X52992857Y4292857D01*
X53078571Y3978571D02*
X52792857Y3978571D01*
X52792857Y4578571D01*
X53078571Y4578571D01*
X53678571Y4035714D02*
X53650000Y4007142D01*
X53564285Y3978571D01*
X53507142Y3978571D01*
X53421428Y4007142D01*
X53364285Y4064285D01*
X53335714Y4121428D01*
X53307142Y4235714D01*
X53307142Y4321428D01*
X53335714Y4435714D01*
X53364285Y4492857D01*
X53421428Y4550000D01*
X53507142Y4578571D01*
X53564285Y4578571D01*
X53650000Y4550000D01*
X53678571Y4521428D01*
X53850000Y4578571D02*
X54192857Y4578571D01*
X54021428Y3978571D02*
X54021428Y4578571D01*
X54364285Y4007142D02*
X54450000Y3978571D01*
X54592857Y3978571D01*
X54650000Y4007142D01*
X54678571Y4035714D01*
X54707142Y4092857D01*
X54707142Y4150000D01*
X54678571Y4207142D01*
X54650000Y4235714D01*
X54592857Y4264285D01*
X54478571Y4292857D01*
X54421428Y4321428D01*
X54392857Y4350000D01*
X54364285Y4407142D01*
X54364285Y4464285D01*
X54392857Y4521428D01*
X54421428Y4550000D01*
X54478571Y4578571D01*
X54621428Y4578571D01*
X54707142Y4550000D01*
X55421428Y3978571D02*
X55421428Y4578571D01*
X55649999Y4578571D01*
X55707142Y4550000D01*
X55735714Y4521428D01*
X55764285Y4464285D01*
X55764285Y4378571D01*
X55735714Y4321428D01*
X55707142Y4292857D01*
X55649999Y4264285D01*
X55421428Y4264285D01*
X56021428Y4292857D02*
X56221428Y4292857D01*
X56307142Y3978571D02*
X56021428Y3978571D01*
X56021428Y4578571D01*
X56307142Y4578571D01*
X56564285Y3978571D02*
X56564285Y4578571D01*
X56707142Y4578571D01*
X56792857Y4550000D01*
X56850000Y4492857D01*
X56878571Y4435714D01*
X56907142Y4321428D01*
X56907142Y4235714D01*
X56878571Y4121428D01*
X56850000Y4064285D01*
X56792857Y4007142D01*
X56707142Y3978571D01*
X56564285Y3978571D01*
X57135714Y4150000D02*
X57421428Y4150000D01*
X57078571Y3978571D02*
X57278571Y4578571D01*
X57478571Y3978571D01*
X57964285Y3978571D02*
X57678571Y3978571D01*
X57678571Y4578571D01*
X44835714Y2978571D02*
X44835714Y3578571D01*
X44978571Y3578571D01*
X45064285Y3550000D01*
X45121428Y3492857D01*
X45150000Y3435714D01*
X45178571Y3321428D01*
X45178571Y3235714D01*
X45150000Y3121428D01*
X45121428Y3064285D01*
X45064285Y3007142D01*
X44978571Y2978571D01*
X44835714Y2978571D01*
X45435714Y3292857D02*
X45635714Y3292857D01*
X45721428Y2978571D02*
X45435714Y2978571D01*
X45435714Y3578571D01*
X45721428Y3578571D01*
X45950000Y3007142D02*
X46035714Y2978571D01*
X46178571Y2978571D01*
X46235714Y3007142D01*
X46264285Y3035714D01*
X46292857Y3092857D01*
X46292857Y3150000D01*
X46264285Y3207142D01*
X46235714Y3235714D01*
X46178571Y3264285D01*
X46064285Y3292857D01*
X46007142Y3321428D01*
X45978571Y3350000D01*
X45950000Y3407142D01*
X45950000Y3464285D01*
X45978571Y3521428D01*
X46007142Y3550000D01*
X46064285Y3578571D01*
X46207142Y3578571D01*
X46292857Y3550000D01*
X46550000Y2978571D02*
X46550000Y3578571D01*
X47150000Y3550000D02*
X47092857Y3578571D01*
X47007142Y3578571D01*
X46921428Y3550000D01*
X46864285Y3492857D01*
X46835714Y3435714D01*
X46807142Y3321428D01*
X46807142Y3235714D01*
X46835714Y3121428D01*
X46864285Y3064285D01*
X46921428Y3007142D01*
X47007142Y2978571D01*
X47064285Y2978571D01*
X47150000Y3007142D01*
X47178571Y3035714D01*
X47178571Y3235714D01*
X47064285Y3235714D01*
X47435714Y2978571D02*
X47435714Y3578571D01*
X47778571Y2978571D01*
X47778571Y3578571D01*
X48064285Y3292857D02*
X48264285Y3292857D01*
X48350000Y2978571D02*
X48064285Y2978571D01*
X48064285Y3578571D01*
X48350000Y3578571D01*
X48607142Y2978571D02*
X48607142Y3578571D01*
X48750000Y3578571D01*
X48835714Y3550000D01*
X48892857Y3492857D01*
X48921428Y3435714D01*
X48950000Y3321428D01*
X48950000Y3235714D01*
X48921428Y3121428D01*
X48892857Y3064285D01*
X48835714Y3007142D01*
X48750000Y2978571D01*
X48607142Y2978571D01*
X49635714Y3150000D02*
X49921428Y3150000D01*
X49578571Y2978571D02*
X49778571Y3578571D01*
X49978571Y2978571D01*
X50178571Y2978571D02*
X50178571Y3578571D01*
X50521428Y2978571D01*
X50521428Y3578571D01*
X50807142Y2978571D02*
X50807142Y3578571D01*
X50950000Y3578571D01*
X51035714Y3550000D01*
X51092857Y3492857D01*
X51121428Y3435714D01*
X51150000Y3321428D01*
X51150000Y3235714D01*
X51121428Y3121428D01*
X51092857Y3064285D01*
X51035714Y3007142D01*
X50950000Y2978571D01*
X50807142Y2978571D01*
X51864285Y3292857D02*
X52064285Y3292857D01*
X52150000Y2978571D02*
X51864285Y2978571D01*
X51864285Y3578571D01*
X52150000Y3578571D01*
X52407142Y2978571D02*
X52407142Y3578571D01*
X52750000Y2978571D01*
X52750000Y3578571D01*
X53350000Y3550000D02*
X53292857Y3578571D01*
X53207142Y3578571D01*
X53121428Y3550000D01*
X53064285Y3492857D01*
X53035714Y3435714D01*
X53007142Y3321428D01*
X53007142Y3235714D01*
X53035714Y3121428D01*
X53064285Y3064285D01*
X53121428Y3007142D01*
X53207142Y2978571D01*
X53264285Y2978571D01*
X53350000Y3007142D01*
X53378571Y3035714D01*
X53378571Y3235714D01*
X53264285Y3235714D01*
X53635714Y2978571D02*
X53635714Y3578571D01*
X53921428Y2978571D02*
X53921428Y3578571D01*
X54264285Y2978571D01*
X54264285Y3578571D01*
X54550000Y3292857D02*
X54750000Y3292857D01*
X54835714Y2978571D02*
X54550000Y2978571D01*
X54550000Y3578571D01*
X54835714Y3578571D01*
X55092857Y3292857D02*
X55292857Y3292857D01*
X55378571Y2978571D02*
X55092857Y2978571D01*
X55092857Y3578571D01*
X55378571Y3578571D01*
X55978571Y2978571D02*
X55778571Y3264285D01*
X55635714Y2978571D02*
X55635714Y3578571D01*
X55864285Y3578571D01*
X55921428Y3550000D01*
X55950000Y3521428D01*
X55978571Y3464285D01*
X55978571Y3378571D01*
X55950000Y3321428D01*
X55921428Y3292857D01*
X55864285Y3264285D01*
X55635714Y3264285D01*
X56235714Y3292857D02*
X56435714Y3292857D01*
X56521428Y2978571D02*
X56235714Y2978571D01*
X56235714Y3578571D01*
X56521428Y3578571D01*
X56778571Y2978571D02*
X56778571Y3578571D01*
X56921428Y3578571D01*
X57007142Y3550000D01*
X57064285Y3492857D01*
X57092857Y3435714D01*
X57121428Y3321428D01*
X57121428Y3235714D01*
X57092857Y3121428D01*
X57064285Y3064285D01*
X57007142Y3007142D01*
X56921428Y2978571D01*
X56778571Y2978571D01*
X58035714Y3292857D02*
X58121428Y3264285D01*
X58150000Y3235714D01*
X58178571Y3178571D01*
X58178571Y3092857D01*
X58150000Y3035714D01*
X58121428Y3007142D01*
X58064285Y2978571D01*
X57835714Y2978571D01*
X57835714Y3578571D01*
X58035714Y3578571D01*
X58092857Y3550000D01*
X58121428Y3521428D01*
X58150000Y3464285D01*
X58150000Y3407142D01*
X58121428Y3350000D01*
X58092857Y3321428D01*
X58035714Y3292857D01*
X57835714Y3292857D01*
X58550000Y3264285D02*
X58550000Y2978571D01*
X58350000Y3578571D02*
X58550000Y3264285D01*
X58750000Y3578571D01*
X46078571Y1978571D02*
X46078571Y2578571D01*
X46278571Y2150000D01*
X46478571Y2578571D01*
X46478571Y1978571D01*
X46735714Y2150000D02*
X47021428Y2150000D01*
X46678571Y1978571D02*
X46878571Y2578571D01*
X47078571Y1978571D01*
X47278571Y1978571D02*
X47278571Y2578571D01*
X47421428Y2578571D01*
X47507142Y2550000D01*
X47564285Y2492857D01*
X47592857Y2435714D01*
X47621428Y2321428D01*
X47621428Y2235714D01*
X47592857Y2121428D01*
X47564285Y2064285D01*
X47507142Y2007142D01*
X47421428Y1978571D01*
X47278571Y1978571D01*
X47850000Y2007142D02*
X47935714Y1978571D01*
X48078571Y1978571D01*
X48135714Y2007142D01*
X48164285Y2035714D01*
X48192857Y2092857D01*
X48192857Y2150000D01*
X48164285Y2207142D01*
X48135714Y2235714D01*
X48078571Y2264285D01*
X47964285Y2292857D01*
X47907142Y2321428D01*
X47878571Y2350000D01*
X47850000Y2407142D01*
X47850000Y2464285D01*
X47878571Y2521428D01*
X47907142Y2550000D01*
X47964285Y2578571D01*
X48107142Y2578571D01*
X48192857Y2550000D01*
X49250000Y1978571D02*
X49050000Y2264285D01*
X48907142Y1978571D02*
X48907142Y2578571D01*
X49135714Y2578571D01*
X49192857Y2550000D01*
X49221428Y2521428D01*
X49250000Y2464285D01*
X49250000Y2378571D01*
X49221428Y2321428D01*
X49192857Y2292857D01*
X49135714Y2264285D01*
X48907142Y2264285D01*
X49507142Y2578571D02*
X49507142Y2092857D01*
X49535714Y2035714D01*
X49564285Y2007142D01*
X49621428Y1978571D01*
X49735714Y1978571D01*
X49792857Y2007142D01*
X49821428Y2035714D01*
X49850000Y2092857D01*
X49850000Y2578571D01*
X50135714Y1978571D02*
X50135714Y2578571D01*
X50335714Y2150000D01*
X50535714Y2578571D01*
X50535714Y1978571D01*
X51107142Y1978571D02*
X50821428Y1978571D01*
X50821428Y2578571D01*
X51307142Y2292857D02*
X51507142Y2292857D01*
X51592857Y1978571D02*
X51307142Y1978571D01*
X51307142Y2578571D01*
X51592857Y2578571D01*
X52307142Y1978571D02*
X52307142Y2578571D01*
X52650000Y1978571D01*
X52650000Y2578571D01*
X53050000Y2578571D02*
X53164285Y2578571D01*
X53221428Y2550000D01*
X53278571Y2492857D01*
X53307142Y2378571D01*
X53307142Y2178571D01*
X53278571Y2064285D01*
X53221428Y2007142D01*
X53164285Y1978571D01*
X53050000Y1978571D01*
X52992857Y2007142D01*
X52935714Y2064285D01*
X52907142Y2178571D01*
X52907142Y2378571D01*
X52935714Y2492857D01*
X52992857Y2550000D01*
X53050000Y2578571D01*
X53907142Y1978571D02*
X53707142Y2264285D01*
X53564285Y1978571D02*
X53564285Y2578571D01*
X53792857Y2578571D01*
X53850000Y2550000D01*
X53878571Y2521428D01*
X53907142Y2464285D01*
X53907142Y2378571D01*
X53878571Y2321428D01*
X53850000Y2292857D01*
X53792857Y2264285D01*
X53564285Y2264285D01*
X54164285Y1978571D02*
X54164285Y2578571D01*
X54307142Y2578571D01*
X54392857Y2550000D01*
X54450000Y2492857D01*
X54478571Y2435714D01*
X54507142Y2321428D01*
X54507142Y2235714D01*
X54478571Y2121428D01*
X54450000Y2064285D01*
X54392857Y2007142D01*
X54307142Y1978571D01*
X54164285Y1978571D01*
X54735714Y2007142D02*
X54821428Y1978571D01*
X54964285Y1978571D01*
X55021428Y2007142D01*
X55050000Y2035714D01*
X55078571Y2092857D01*
X55078571Y2150000D01*
X55050000Y2207142D01*
X55021428Y2235714D01*
X54964285Y2264285D01*
X54850000Y2292857D01*
X54792857Y2321428D01*
X54764285Y2350000D01*
X54735714Y2407142D01*
X54735714Y2464285D01*
X54764285Y2521428D01*
X54792857Y2550000D01*
X54850000Y2578571D01*
X54992857Y2578571D01*
X55078571Y2550000D01*
X55249999Y2578571D02*
X55592857Y2578571D01*
X55421428Y1978571D02*
X55421428Y2578571D01*
X56135714Y1978571D02*
X55935714Y2264285D01*
X55792857Y1978571D02*
X55792857Y2578571D01*
X56021428Y2578571D01*
X56078571Y2550000D01*
X56107142Y2521428D01*
X56135714Y2464285D01*
X56135714Y2378571D01*
X56107142Y2321428D01*
X56078571Y2292857D01*
X56021428Y2264285D01*
X55792857Y2264285D01*
X56792857Y2578571D02*
X56335714Y1978571D01*
X56507142Y1978571D02*
X56449999Y2007142D01*
X56392857Y2064285D01*
X56364285Y2178571D01*
X56364285Y2378571D01*
X56392857Y2492857D01*
X56449999Y2550000D01*
X56507142Y2578571D01*
X56621428Y2578571D01*
X56678571Y2550000D01*
X56735714Y2492857D01*
X56764285Y2378571D01*
X56764285Y2178571D01*
X56735714Y2064285D01*
X56678571Y2007142D01*
X56621428Y1978571D01*
X56507142Y1978571D01*
X57021428Y1978571D02*
X57021428Y2578571D01*
X57221428Y2150000D01*
X57421428Y2578571D01*
X57421428Y1978571D01*
D10*
X37750000Y89500000D02*
X37750000Y77500000D01*
X22250000Y77500000D02*
X22250000Y89500000D01*
X22250000Y76500000D02*
X500000Y76500000D01*
D11*
X26304761Y76188095D02*
X26304761Y75616666D01*
X26266666Y75502380D01*
X26190476Y75426190D01*
X26076190Y75388095D01*
X26000000Y75388095D01*
X27066666Y75388095D02*
X26685714Y75388095D01*
X26685714Y76188095D01*
X27790476Y75464285D02*
X27752380Y75426190D01*
X27638095Y75388095D01*
X27561904Y75388095D01*
X27447619Y75426190D01*
X27371428Y75502380D01*
X27333333Y75578571D01*
X27295238Y75730952D01*
X27295238Y75845238D01*
X27333333Y75997619D01*
X27371428Y76073809D01*
X27447619Y76150000D01*
X27561904Y76188095D01*
X27638095Y76188095D01*
X27752380Y76150000D01*
X27790476Y76111904D01*
X28361904Y76188095D02*
X28361904Y75616666D01*
X28323809Y75502380D01*
X28247619Y75426190D01*
X28133333Y75388095D01*
X28057142Y75388095D01*
X29123809Y75388095D02*
X28742857Y75388095D01*
X28742857Y76188095D01*
X29847619Y75464285D02*
X29809523Y75426190D01*
X29695238Y75388095D01*
X29619047Y75388095D01*
X29504761Y75426190D01*
X29428571Y75502380D01*
X29390476Y75578571D01*
X29352380Y75730952D01*
X29352380Y75845238D01*
X29390476Y75997619D01*
X29428571Y76073809D01*
X29504761Y76150000D01*
X29619047Y76188095D01*
X29695238Y76188095D01*
X29809523Y76150000D01*
X29847619Y76111904D01*
X30419047Y76188095D02*
X30419047Y75616666D01*
X30380952Y75502380D01*
X30304761Y75426190D01*
X30190476Y75388095D01*
X30114285Y75388095D01*
X31180952Y75388095D02*
X30800000Y75388095D01*
X30800000Y76188095D01*
X31904761Y75464285D02*
X31866666Y75426190D01*
X31752380Y75388095D01*
X31676190Y75388095D01*
X31561904Y75426190D01*
X31485714Y75502380D01*
X31447619Y75578571D01*
X31409523Y75730952D01*
X31409523Y75845238D01*
X31447619Y75997619D01*
X31485714Y76073809D01*
X31561904Y76150000D01*
X31676190Y76188095D01*
X31752380Y76188095D01*
X31866666Y76150000D01*
X31904761Y76111904D01*
X32476190Y76188095D02*
X32476190Y75616666D01*
X32438095Y75502380D01*
X32361904Y75426190D01*
X32247619Y75388095D01*
X32171428Y75388095D01*
X33238095Y75388095D02*
X32857142Y75388095D01*
X32857142Y76188095D01*
X33961904Y75464285D02*
X33923809Y75426190D01*
X33809523Y75388095D01*
X33733333Y75388095D01*
X33619047Y75426190D01*
X33542857Y75502380D01*
X33504761Y75578571D01*
X33466666Y75730952D01*
X33466666Y75845238D01*
X33504761Y75997619D01*
X33542857Y76073809D01*
X33619047Y76150000D01*
X33733333Y76188095D01*
X33809523Y76188095D01*
X33923809Y76150000D01*
X33961904Y76111904D01*
D10*
X11500000Y84750000D02*
X11500000Y79500000D01*
X11500000Y79500000D02*
X10500000Y80500000D01*
X11500000Y79500000D02*
X12500000Y80500000D01*
X48750000Y84750000D02*
X49750000Y83750000D01*
X48750000Y84750000D02*
X47750000Y83750000D01*
X48750000Y79500000D02*
X48750000Y84750000D01*
D12*
X43000000Y87250000D02*
X43714285Y87250000D01*
X42857142Y86821428D02*
X43357142Y88321428D01*
X43857142Y86821428D01*
X44357142Y88321428D02*
X44357142Y87107142D01*
X44428571Y86964285D01*
X44500000Y86892857D01*
X44642857Y86821428D01*
X44928571Y86821428D01*
X45071428Y86892857D01*
X45142857Y86964285D01*
X45214285Y87107142D01*
X45214285Y88321428D01*
X45928571Y86821428D02*
X45928571Y88321428D01*
X46285714Y88321428D01*
X46500000Y88250000D01*
X46642857Y88107142D01*
X46714285Y87964285D01*
X46785714Y87678571D01*
X46785714Y87464285D01*
X46714285Y87178571D01*
X46642857Y87035714D01*
X46500000Y86892857D01*
X46285714Y86821428D01*
X45928571Y86821428D01*
X47428571Y86821428D02*
X47428571Y88321428D01*
X48428571Y88321428D02*
X48714285Y88321428D01*
X48857142Y88250000D01*
X49000000Y88107142D01*
X49071428Y87821428D01*
X49071428Y87321428D01*
X49000000Y87035714D01*
X48857142Y86892857D01*
X48714285Y86821428D01*
X48428571Y86821428D01*
X48285714Y86892857D01*
X48142857Y87035714D01*
X48071428Y87321428D01*
X48071428Y87821428D01*
X48142857Y88107142D01*
X48285714Y88250000D01*
X48428571Y88321428D01*
X51142857Y88321428D02*
X51428571Y88321428D01*
X51571428Y88250000D01*
X51714285Y88107142D01*
X51785714Y87821428D01*
X51785714Y87321428D01*
X51714285Y87035714D01*
X51571428Y86892857D01*
X51428571Y86821428D01*
X51142857Y86821428D01*
X51000000Y86892857D01*
X50857142Y87035714D01*
X50785714Y87321428D01*
X50785714Y87821428D01*
X50857142Y88107142D01*
X51000000Y88250000D01*
X51142857Y88321428D01*
X52428571Y88321428D02*
X52428571Y87107142D01*
X52500000Y86964285D01*
X52571428Y86892857D01*
X52714285Y86821428D01*
X53000000Y86821428D01*
X53142857Y86892857D01*
X53214285Y86964285D01*
X53285714Y87107142D01*
X53285714Y88321428D01*
X53785714Y88321428D02*
X54642857Y88321428D01*
X54214285Y86821428D02*
X54214285Y88321428D01*
X6750000Y87250000D02*
X7464285Y87250000D01*
X6607142Y86821428D02*
X7107142Y88321428D01*
X7607142Y86821428D01*
X8107142Y88321428D02*
X8107142Y87107142D01*
X8178571Y86964285D01*
X8250000Y86892857D01*
X8392857Y86821428D01*
X8678571Y86821428D01*
X8821428Y86892857D01*
X8892857Y86964285D01*
X8964285Y87107142D01*
X8964285Y88321428D01*
X9678571Y86821428D02*
X9678571Y88321428D01*
X10035714Y88321428D01*
X10250000Y88250000D01*
X10392857Y88107142D01*
X10464285Y87964285D01*
X10535714Y87678571D01*
X10535714Y87464285D01*
X10464285Y87178571D01*
X10392857Y87035714D01*
X10250000Y86892857D01*
X10035714Y86821428D01*
X9678571Y86821428D01*
X11178571Y86821428D02*
X11178571Y88321428D01*
X12178571Y88321428D02*
X12464285Y88321428D01*
X12607142Y88250000D01*
X12750000Y88107142D01*
X12821428Y87821428D01*
X12821428Y87321428D01*
X12750000Y87035714D01*
X12607142Y86892857D01*
X12464285Y86821428D01*
X12178571Y86821428D01*
X12035714Y86892857D01*
X11892857Y87035714D01*
X11821428Y87321428D01*
X11821428Y87821428D01*
X11892857Y88107142D01*
X12035714Y88250000D01*
X12178571Y88321428D01*
X14607142Y86821428D02*
X14607142Y88321428D01*
X15321428Y86821428D02*
X15321428Y88321428D01*
X16178571Y86821428D01*
X16178571Y88321428D01*
D10*
X16000000Y8250000D02*
X16000000Y500000D01*
X19250000Y8250000D02*
X16000000Y8250000D01*
X19250000Y12000000D02*
X19250000Y8250000D01*
X19250000Y25750000D02*
X19250000Y12000000D01*
X16000000Y25750000D02*
X19250000Y25750000D01*
X16000000Y32250000D02*
X16000000Y25750000D01*
X22250000Y77500000D02*
X22250000Y61250000D01*
X15500000Y52000000D02*
X15500000Y61250000D01*
D13*
X23940476Y28297619D02*
X23940476Y29297619D01*
X24321428Y29297619D01*
X24416666Y29250000D01*
X24464285Y29202380D01*
X24511904Y29107142D01*
X24511904Y28964285D01*
X24464285Y28869047D01*
X24416666Y28821428D01*
X24321428Y28773809D01*
X23940476Y28773809D01*
X25130952Y29297619D02*
X25321428Y29297619D01*
X25416666Y29250000D01*
X25511904Y29154761D01*
X25559523Y28964285D01*
X25559523Y28630952D01*
X25511904Y28440476D01*
X25416666Y28345238D01*
X25321428Y28297619D01*
X25130952Y28297619D01*
X25035714Y28345238D01*
X24940476Y28440476D01*
X24892857Y28630952D01*
X24892857Y28964285D01*
X24940476Y29154761D01*
X25035714Y29250000D01*
X25130952Y29297619D01*
X25892857Y29297619D02*
X26130952Y28297619D01*
X26321428Y29011904D01*
X26511904Y28297619D01*
X26750000Y29297619D01*
X27130952Y28821428D02*
X27464285Y28821428D01*
X27607142Y28297619D02*
X27130952Y28297619D01*
X27130952Y29297619D01*
X27607142Y29297619D01*
X28607142Y28297619D02*
X28273809Y28773809D01*
X28035714Y28297619D02*
X28035714Y29297619D01*
X28416666Y29297619D01*
X28511904Y29250000D01*
X28559523Y29202380D01*
X28607142Y29107142D01*
X28607142Y28964285D01*
X28559523Y28869047D01*
X28511904Y28821428D01*
X28416666Y28773809D01*
X28035714Y28773809D01*
X29750000Y28583333D02*
X30226190Y28583333D01*
X29654761Y28297619D02*
X29988095Y29297619D01*
X30321428Y28297619D01*
X30654761Y28297619D02*
X30654761Y29297619D01*
X31226190Y28297619D01*
X31226190Y29297619D01*
X31702380Y28297619D02*
X31702380Y29297619D01*
X31940476Y29297619D01*
X32083333Y29250000D01*
X32178571Y29154761D01*
X32226190Y29059523D01*
X32273809Y28869047D01*
X32273809Y28726190D01*
X32226190Y28535714D01*
X32178571Y28440476D01*
X32083333Y28345238D01*
X31940476Y28297619D01*
X31702380Y28297619D01*
X33464285Y28297619D02*
X33464285Y29297619D01*
X33797619Y28583333D01*
X34130952Y29297619D01*
X34130952Y28297619D01*
X34607142Y28297619D02*
X34607142Y29297619D01*
X35035714Y28345238D02*
X35178571Y28297619D01*
X35416666Y28297619D01*
X35511904Y28345238D01*
X35559523Y28392857D01*
X35607142Y28488095D01*
X35607142Y28583333D01*
X35559523Y28678571D01*
X35511904Y28726190D01*
X35416666Y28773809D01*
X35226190Y28821428D01*
X35130952Y28869047D01*
X35083333Y28916666D01*
X35035714Y29011904D01*
X35035714Y29107142D01*
X35083333Y29202380D01*
X35130952Y29250000D01*
X35226190Y29297619D01*
X35464285Y29297619D01*
X35607142Y29250000D01*
X36607142Y28392857D02*
X36559523Y28345238D01*
X36416666Y28297619D01*
X36321428Y28297619D01*
X36178571Y28345238D01*
X36083333Y28440476D01*
X36035714Y28535714D01*
X35988095Y28726190D01*
X35988095Y28869047D01*
X36035714Y29059523D01*
X36083333Y29154761D01*
X36178571Y29250000D01*
X36321428Y29297619D01*
X36416666Y29297619D01*
X36559523Y29250000D01*
X36607142Y29202380D01*
D10*
X19250000Y500000D02*
X57250000Y500000D01*
X59500000Y2750000D02*
X59500000Y31000000D01*
D13*
X21880952Y44547619D02*
X21880952Y45547619D01*
X21880952Y45071428D02*
X22452380Y45071428D01*
X22452380Y44547619D02*
X22452380Y45547619D01*
X22880952Y44833333D02*
X23357142Y44833333D01*
X22785714Y44547619D02*
X23119047Y45547619D01*
X23452380Y44547619D01*
X24357142Y44547619D02*
X24023809Y45023809D01*
X23785714Y44547619D02*
X23785714Y45547619D01*
X24166666Y45547619D01*
X24261904Y45500000D01*
X24309523Y45452380D01*
X24357142Y45357142D01*
X24357142Y45214285D01*
X24309523Y45119047D01*
X24261904Y45071428D01*
X24166666Y45023809D01*
X23785714Y45023809D01*
X24785714Y44547619D02*
X24785714Y45547619D01*
X25023809Y45547619D01*
X25166666Y45500000D01*
X25261904Y45404761D01*
X25309523Y45309523D01*
X25357142Y45119047D01*
X25357142Y44976190D01*
X25309523Y44785714D01*
X25261904Y44690476D01*
X25166666Y44595238D01*
X25023809Y44547619D01*
X24785714Y44547619D01*
X27119047Y44642857D02*
X27071428Y44595238D01*
X26928571Y44547619D01*
X26833333Y44547619D01*
X26690476Y44595238D01*
X26595238Y44690476D01*
X26547619Y44785714D01*
X26500000Y44976190D01*
X26500000Y45119047D01*
X26547619Y45309523D01*
X26595238Y45404761D01*
X26690476Y45500000D01*
X26833333Y45547619D01*
X26928571Y45547619D01*
X27071428Y45500000D01*
X27119047Y45452380D01*
X28023809Y44547619D02*
X27547619Y44547619D01*
X27547619Y45547619D01*
X28357142Y44547619D02*
X28357142Y45547619D01*
X28833333Y44547619D02*
X28833333Y45547619D01*
X29214285Y45547619D01*
X29309523Y45500000D01*
X29357142Y45452380D01*
X29404761Y45357142D01*
X29404761Y45214285D01*
X29357142Y45119047D01*
X29309523Y45071428D01*
X29214285Y45023809D01*
X28833333Y45023809D01*
X29833333Y44547619D02*
X29833333Y45547619D01*
X30214285Y45547619D01*
X30309523Y45500000D01*
X30357142Y45452380D01*
X30404761Y45357142D01*
X30404761Y45214285D01*
X30357142Y45119047D01*
X30309523Y45071428D01*
X30214285Y45023809D01*
X29833333Y45023809D01*
X30833333Y44547619D02*
X30833333Y45547619D01*
X31309523Y44547619D02*
X31309523Y45547619D01*
X31880952Y44547619D01*
X31880952Y45547619D01*
X32880952Y45500000D02*
X32785714Y45547619D01*
X32642857Y45547619D01*
X32499999Y45500000D01*
X32404761Y45404761D01*
X32357142Y45309523D01*
X32309523Y45119047D01*
X32309523Y44976190D01*
X32357142Y44785714D01*
X32404761Y44690476D01*
X32499999Y44595238D01*
X32642857Y44547619D01*
X32738095Y44547619D01*
X32880952Y44595238D01*
X32928571Y44642857D01*
X32928571Y44976190D01*
X32738095Y44976190D01*
X34071428Y44595238D02*
X34214285Y44547619D01*
X34452380Y44547619D01*
X34547619Y44595238D01*
X34595238Y44642857D01*
X34642857Y44738095D01*
X34642857Y44833333D01*
X34595238Y44928571D01*
X34547619Y44976190D01*
X34452380Y45023809D01*
X34261904Y45071428D01*
X34166666Y45119047D01*
X34119047Y45166666D01*
X34071428Y45261904D01*
X34071428Y45357142D01*
X34119047Y45452380D01*
X34166666Y45500000D01*
X34261904Y45547619D01*
X34500000Y45547619D01*
X34642857Y45500000D01*
X34928571Y45547619D02*
X35499999Y45547619D01*
X35214285Y44547619D02*
X35214285Y45547619D01*
X35785714Y44833333D02*
X36261904Y44833333D01*
X35690476Y44547619D02*
X36023809Y45547619D01*
X36357142Y44547619D01*
X37214285Y45500000D02*
X37119047Y45547619D01*
X36976190Y45547619D01*
X36833333Y45500000D01*
X36738095Y45404761D01*
X36690476Y45309523D01*
X36642857Y45119047D01*
X36642857Y44976190D01*
X36690476Y44785714D01*
X36738095Y44690476D01*
X36833333Y44595238D01*
X36976190Y44547619D01*
X37071428Y44547619D01*
X37214285Y44595238D01*
X37261904Y44642857D01*
X37261904Y44976190D01*
X37071428Y44976190D01*
X37690476Y45071428D02*
X38023809Y45071428D01*
X38166666Y44547619D02*
X37690476Y44547619D01*
X37690476Y45547619D01*
X38166666Y45547619D01*
D10*
X59500000Y31000000D02*
X59500000Y45000000D01*
X16000000Y32250000D02*
X59500000Y32250000D01*
D13*
X42976190Y75797619D02*
X43547619Y75797619D01*
X43261904Y74797619D02*
X43261904Y75797619D01*
X44071428Y75797619D02*
X44261904Y75797619D01*
X44357142Y75750000D01*
X44452380Y75654761D01*
X44500000Y75464285D01*
X44500000Y75130952D01*
X44452380Y74940476D01*
X44357142Y74845238D01*
X44261904Y74797619D01*
X44071428Y74797619D01*
X43976190Y74845238D01*
X43880952Y74940476D01*
X43833333Y75130952D01*
X43833333Y75464285D01*
X43880952Y75654761D01*
X43976190Y75750000D01*
X44071428Y75797619D01*
X44928571Y74797619D02*
X44928571Y75797619D01*
X45500000Y74797619D01*
X45500000Y75797619D01*
X45976190Y75321428D02*
X46309523Y75321428D01*
X46452380Y74797619D02*
X45976190Y74797619D01*
X45976190Y75797619D01*
X46452380Y75797619D01*
X48214285Y74892857D02*
X48166666Y74845238D01*
X48023809Y74797619D01*
X47928571Y74797619D01*
X47785714Y74845238D01*
X47690476Y74940476D01*
X47642857Y75035714D01*
X47595238Y75226190D01*
X47595238Y75369047D01*
X47642857Y75559523D01*
X47690476Y75654761D01*
X47785714Y75750000D01*
X47928571Y75797619D01*
X48023809Y75797619D01*
X48166666Y75750000D01*
X48214285Y75702380D01*
X48833333Y75797619D02*
X49023809Y75797619D01*
X49119047Y75750000D01*
X49214285Y75654761D01*
X49261904Y75464285D01*
X49261904Y75130952D01*
X49214285Y74940476D01*
X49119047Y74845238D01*
X49023809Y74797619D01*
X48833333Y74797619D01*
X48738095Y74845238D01*
X48642857Y74940476D01*
X48595238Y75130952D01*
X48595238Y75464285D01*
X48642857Y75654761D01*
X48738095Y75750000D01*
X48833333Y75797619D01*
X49690476Y74797619D02*
X49690476Y75797619D01*
X50261904Y74797619D01*
X50261904Y75797619D01*
X50595238Y75797619D02*
X51166666Y75797619D01*
X50880952Y74797619D02*
X50880952Y75797619D01*
X52071428Y74797619D02*
X51738095Y75273809D01*
X51500000Y74797619D02*
X51500000Y75797619D01*
X51880952Y75797619D01*
X51976190Y75750000D01*
X52023809Y75702380D01*
X52071428Y75607142D01*
X52071428Y75464285D01*
X52023809Y75369047D01*
X51976190Y75321428D01*
X51880952Y75273809D01*
X51500000Y75273809D01*
X52690476Y75797619D02*
X52880952Y75797619D01*
X52976190Y75750000D01*
X53071428Y75654761D01*
X53119047Y75464285D01*
X53119047Y75130952D01*
X53071428Y74940476D01*
X52976190Y74845238D01*
X52880952Y74797619D01*
X52690476Y74797619D01*
X52595238Y74845238D01*
X52500000Y74940476D01*
X52452380Y75130952D01*
X52452380Y75464285D01*
X52500000Y75654761D01*
X52595238Y75750000D01*
X52690476Y75797619D01*
X54023809Y74797619D02*
X53547619Y74797619D01*
X53547619Y75797619D01*
D10*
X44500000Y61250000D02*
X37750000Y61250000D01*
X44500000Y45000000D02*
X44500000Y61250000D01*
X59500000Y45000000D02*
X44500000Y45000000D01*
X59500000Y77500000D02*
X59500000Y45000000D01*
X37750000Y76500000D02*
X59500000Y76500000D01*
D13*
X23452380Y87547619D02*
X23785714Y86547619D01*
X24119047Y87547619D01*
X24642857Y87547619D02*
X24833333Y87547619D01*
X24928571Y87500000D01*
X25023809Y87404761D01*
X25071428Y87214285D01*
X25071428Y86880952D01*
X25023809Y86690476D01*
X24928571Y86595238D01*
X24833333Y86547619D01*
X24642857Y86547619D01*
X24547619Y86595238D01*
X24452380Y86690476D01*
X24404761Y86880952D01*
X24404761Y87214285D01*
X24452380Y87404761D01*
X24547619Y87500000D01*
X24642857Y87547619D01*
X25976190Y86547619D02*
X25499999Y86547619D01*
X25499999Y87547619D01*
X26309523Y87547619D02*
X26309523Y86738095D01*
X26357142Y86642857D01*
X26404761Y86595238D01*
X26499999Y86547619D01*
X26690476Y86547619D01*
X26785714Y86595238D01*
X26833333Y86642857D01*
X26880952Y86738095D01*
X26880952Y87547619D01*
X27357142Y86547619D02*
X27357142Y87547619D01*
X27690476Y86833333D01*
X28023809Y87547619D01*
X28023809Y86547619D01*
X28499999Y87071428D02*
X28833333Y87071428D01*
X28976190Y86547619D02*
X28499999Y86547619D01*
X28499999Y87547619D01*
X28976190Y87547619D01*
X30738095Y86642857D02*
X30690476Y86595238D01*
X30547619Y86547619D01*
X30452380Y86547619D01*
X30309523Y86595238D01*
X30214285Y86690476D01*
X30166666Y86785714D01*
X30119047Y86976190D01*
X30119047Y87119047D01*
X30166666Y87309523D01*
X30214285Y87404761D01*
X30309523Y87500000D01*
X30452380Y87547619D01*
X30547619Y87547619D01*
X30690476Y87500000D01*
X30738095Y87452380D01*
X31357142Y87547619D02*
X31547619Y87547619D01*
X31642857Y87500000D01*
X31738095Y87404761D01*
X31785714Y87214285D01*
X31785714Y86880952D01*
X31738095Y86690476D01*
X31642857Y86595238D01*
X31547619Y86547619D01*
X31357142Y86547619D01*
X31261904Y86595238D01*
X31166666Y86690476D01*
X31119047Y86880952D01*
X31119047Y87214285D01*
X31166666Y87404761D01*
X31261904Y87500000D01*
X31357142Y87547619D01*
X32214285Y86547619D02*
X32214285Y87547619D01*
X32785714Y86547619D01*
X32785714Y87547619D01*
X33119047Y87547619D02*
X33690476Y87547619D01*
X33404761Y86547619D02*
X33404761Y87547619D01*
X34595238Y86547619D02*
X34261904Y87023809D01*
X34023809Y86547619D02*
X34023809Y87547619D01*
X34404761Y87547619D01*
X34500000Y87500000D01*
X34547619Y87452380D01*
X34595238Y87357142D01*
X34595238Y87214285D01*
X34547619Y87119047D01*
X34500000Y87071428D01*
X34404761Y87023809D01*
X34023809Y87023809D01*
X35214285Y87547619D02*
X35404761Y87547619D01*
X35500000Y87500000D01*
X35595238Y87404761D01*
X35642857Y87214285D01*
X35642857Y86880952D01*
X35595238Y86690476D01*
X35500000Y86595238D01*
X35404761Y86547619D01*
X35214285Y86547619D01*
X35119047Y86595238D01*
X35023809Y86690476D01*
X34976190Y86880952D01*
X34976190Y87214285D01*
X35023809Y87404761D01*
X35119047Y87500000D01*
X35214285Y87547619D01*
X36547619Y86547619D02*
X36071428Y86547619D01*
X36071428Y87547619D01*
D10*
X37750000Y61250000D02*
X15500000Y61250000D01*
X37750000Y77500000D02*
X37750000Y61250000D01*
D13*
X3107142Y28797619D02*
X3107142Y29797619D01*
X3583333Y28797619D02*
X3583333Y29797619D01*
X4154761Y28797619D01*
X4154761Y29797619D01*
X4630952Y28797619D02*
X4630952Y29797619D01*
X5011904Y29797619D01*
X5107142Y29750000D01*
X5154761Y29702380D01*
X5202380Y29607142D01*
X5202380Y29464285D01*
X5154761Y29369047D01*
X5107142Y29321428D01*
X5011904Y29273809D01*
X4630952Y29273809D01*
X5630952Y29797619D02*
X5630952Y28988095D01*
X5678571Y28892857D01*
X5726190Y28845238D01*
X5821428Y28797619D01*
X6011904Y28797619D01*
X6107142Y28845238D01*
X6154761Y28892857D01*
X6202380Y28988095D01*
X6202380Y29797619D01*
X6535714Y29797619D02*
X7107142Y29797619D01*
X6821428Y28797619D02*
X6821428Y29797619D01*
X8535714Y29321428D02*
X8678571Y29273809D01*
X8726190Y29226190D01*
X8773809Y29130952D01*
X8773809Y28988095D01*
X8726190Y28892857D01*
X8678571Y28845238D01*
X8583333Y28797619D01*
X8202380Y28797619D01*
X8202380Y29797619D01*
X8535714Y29797619D01*
X8630952Y29750000D01*
X8678571Y29702380D01*
X8726190Y29607142D01*
X8726190Y29511904D01*
X8678571Y29416666D01*
X8630952Y29369047D01*
X8535714Y29321428D01*
X8202380Y29321428D01*
X9202380Y29797619D02*
X9202380Y28988095D01*
X9250000Y28892857D01*
X9297619Y28845238D01*
X9392857Y28797619D01*
X9583333Y28797619D01*
X9678571Y28845238D01*
X9726190Y28892857D01*
X9773809Y28988095D01*
X9773809Y29797619D01*
X10583333Y29321428D02*
X10250000Y29321428D01*
X10250000Y28797619D02*
X10250000Y29797619D01*
X10726190Y29797619D01*
X11440476Y29321428D02*
X11107142Y29321428D01*
X11107142Y28797619D02*
X11107142Y29797619D01*
X11583333Y29797619D01*
X11964285Y29321428D02*
X12297619Y29321428D01*
X12440476Y28797619D02*
X11964285Y28797619D01*
X11964285Y29797619D01*
X12440476Y29797619D01*
X13440476Y28797619D02*
X13107142Y29273809D01*
X12869047Y28797619D02*
X12869047Y29797619D01*
X13250000Y29797619D01*
X13345238Y29750000D01*
X13392857Y29702380D01*
X13440476Y29607142D01*
X13440476Y29464285D01*
X13392857Y29369047D01*
X13345238Y29321428D01*
X13250000Y29273809D01*
X12869047Y29273809D01*
D10*
X500000Y12000000D02*
X500000Y31000000D01*
D13*
X3928571Y1821428D02*
X4071428Y1773809D01*
X4119047Y1726190D01*
X4166666Y1630952D01*
X4166666Y1488095D01*
X4119047Y1392857D01*
X4071428Y1345238D01*
X3976190Y1297619D01*
X3595238Y1297619D01*
X3595238Y2297619D01*
X3928571Y2297619D01*
X4023809Y2250000D01*
X4071428Y2202380D01*
X4119047Y2107142D01*
X4119047Y2011904D01*
X4071428Y1916666D01*
X4023809Y1869047D01*
X3928571Y1821428D01*
X3595238Y1821428D01*
X4595238Y1297619D02*
X4595238Y2297619D01*
X5023809Y1583333D02*
X5500000Y1583333D01*
X4928571Y1297619D02*
X5261904Y2297619D01*
X5595238Y1297619D01*
X5880952Y1345238D02*
X6023809Y1297619D01*
X6261904Y1297619D01*
X6357142Y1345238D01*
X6404761Y1392857D01*
X6452380Y1488095D01*
X6452380Y1583333D01*
X6404761Y1678571D01*
X6357142Y1726190D01*
X6261904Y1773809D01*
X6071428Y1821428D01*
X5976190Y1869047D01*
X5928571Y1916666D01*
X5880952Y2011904D01*
X5880952Y2107142D01*
X5928571Y2202380D01*
X5976190Y2250000D01*
X6071428Y2297619D01*
X6309523Y2297619D01*
X6452380Y2250000D01*
X7500000Y2297619D02*
X7833333Y1297619D01*
X8166666Y2297619D01*
X8690476Y2297619D02*
X8880952Y2297619D01*
X8976190Y2250000D01*
X9071428Y2154761D01*
X9119047Y1964285D01*
X9119047Y1630952D01*
X9071428Y1440476D01*
X8976190Y1345238D01*
X8880952Y1297619D01*
X8690476Y1297619D01*
X8595238Y1345238D01*
X8500000Y1440476D01*
X8452380Y1630952D01*
X8452380Y1964285D01*
X8500000Y2154761D01*
X8595238Y2250000D01*
X8690476Y2297619D01*
X10023809Y1297619D02*
X9547619Y1297619D01*
X9547619Y2297619D01*
X10214285Y2297619D02*
X10785714Y2297619D01*
X10500000Y1297619D02*
X10500000Y2297619D01*
X11071428Y1583333D02*
X11547619Y1583333D01*
X10976190Y1297619D02*
X11309523Y2297619D01*
X11642857Y1297619D01*
X12500000Y2250000D02*
X12404761Y2297619D01*
X12261904Y2297619D01*
X12119047Y2250000D01*
X12023809Y2154761D01*
X11976190Y2059523D01*
X11928571Y1869047D01*
X11928571Y1726190D01*
X11976190Y1535714D01*
X12023809Y1440476D01*
X12119047Y1345238D01*
X12261904Y1297619D01*
X12357142Y1297619D01*
X12500000Y1345238D01*
X12547619Y1392857D01*
X12547619Y1726190D01*
X12357142Y1726190D01*
X12976190Y1821428D02*
X13309523Y1821428D01*
X13452380Y1297619D02*
X12976190Y1297619D01*
X12976190Y2297619D01*
X13452380Y2297619D01*
D10*
X19250000Y500000D02*
X2750000Y500000D01*
X6750000Y12000000D02*
X19250000Y12000000D01*
X500000Y2750000D02*
X500000Y12000000D01*
D13*
X7702380Y75750000D02*
X7607142Y75797619D01*
X7464285Y75797619D01*
X7321428Y75750000D01*
X7226190Y75654761D01*
X7178571Y75559523D01*
X7130952Y75369047D01*
X7130952Y75226190D01*
X7178571Y75035714D01*
X7226190Y74940476D01*
X7321428Y74845238D01*
X7464285Y74797619D01*
X7559523Y74797619D01*
X7702380Y74845238D01*
X7750000Y74892857D01*
X7750000Y75226190D01*
X7559523Y75226190D01*
X8130952Y75083333D02*
X8607142Y75083333D01*
X8035714Y74797619D02*
X8369047Y75797619D01*
X8702380Y74797619D01*
X9035714Y74797619D02*
X9035714Y75797619D01*
X9511904Y74797619D02*
X9511904Y75797619D01*
X10083333Y74797619D01*
X10083333Y75797619D01*
X11273809Y74845238D02*
X11416666Y74797619D01*
X11654761Y74797619D01*
X11750000Y74845238D01*
X11797619Y74892857D01*
X11845238Y74988095D01*
X11845238Y75083333D01*
X11797619Y75178571D01*
X11750000Y75226190D01*
X11654761Y75273809D01*
X11464285Y75321428D01*
X11369047Y75369047D01*
X11321428Y75416666D01*
X11273809Y75511904D01*
X11273809Y75607142D01*
X11321428Y75702380D01*
X11369047Y75750000D01*
X11464285Y75797619D01*
X11702380Y75797619D01*
X11845238Y75750000D01*
X12130952Y75797619D02*
X12702380Y75797619D01*
X12416666Y74797619D02*
X12416666Y75797619D01*
X12988095Y75083333D02*
X13464285Y75083333D01*
X12892857Y74797619D02*
X13226190Y75797619D01*
X13559523Y74797619D01*
X14416666Y75750000D02*
X14321428Y75797619D01*
X14178571Y75797619D01*
X14035714Y75750000D01*
X13940476Y75654761D01*
X13892857Y75559523D01*
X13845238Y75369047D01*
X13845238Y75226190D01*
X13892857Y75035714D01*
X13940476Y74940476D01*
X14035714Y74845238D01*
X14178571Y74797619D01*
X14273809Y74797619D01*
X14416666Y74845238D01*
X14464285Y74892857D01*
X14464285Y75226190D01*
X14273809Y75226190D01*
X14892857Y75321428D02*
X15226190Y75321428D01*
X15369047Y74797619D02*
X14892857Y74797619D01*
X14892857Y75797619D01*
X15369047Y75797619D01*
X976190Y43095238D02*
X1119047Y43047619D01*
X1357142Y43047619D01*
X1452380Y43095238D01*
X1499999Y43142857D01*
X1547619Y43238095D01*
X1547619Y43333333D01*
X1499999Y43428571D01*
X1452380Y43476190D01*
X1357142Y43523809D01*
X1166666Y43571428D01*
X1071428Y43619047D01*
X1023809Y43666666D01*
X976190Y43761904D01*
X976190Y43857142D01*
X1023809Y43952380D01*
X1071428Y44000000D01*
X1166666Y44047619D01*
X1404761Y44047619D01*
X1547619Y44000000D01*
X2166666Y44047619D02*
X2357142Y44047619D01*
X2452380Y44000000D01*
X2547619Y43904761D01*
X2595238Y43714285D01*
X2595238Y43380952D01*
X2547619Y43190476D01*
X2452380Y43095238D01*
X2357142Y43047619D01*
X2166666Y43047619D01*
X2071428Y43095238D01*
X1976190Y43190476D01*
X1928571Y43380952D01*
X1928571Y43714285D01*
X1976190Y43904761D01*
X2071428Y44000000D01*
X2166666Y44047619D01*
X3357142Y43571428D02*
X3023809Y43571428D01*
X3023809Y43047619D02*
X3023809Y44047619D01*
X3499999Y44047619D01*
X3738095Y44047619D02*
X4309523Y44047619D01*
X4023809Y43047619D02*
X4023809Y44047619D01*
X5976190Y43142857D02*
X5928571Y43095238D01*
X5785714Y43047619D01*
X5690476Y43047619D01*
X5547619Y43095238D01*
X5452380Y43190476D01*
X5404761Y43285714D01*
X5357142Y43476190D01*
X5357142Y43619047D01*
X5404761Y43809523D01*
X5452380Y43904761D01*
X5547619Y44000000D01*
X5690476Y44047619D01*
X5785714Y44047619D01*
X5928571Y44000000D01*
X5976190Y43952380D01*
X6880952Y43047619D02*
X6404761Y43047619D01*
X6404761Y44047619D01*
X7214285Y43047619D02*
X7214285Y44047619D01*
X7690476Y43047619D02*
X7690476Y44047619D01*
X8071428Y44047619D01*
X8166666Y44000000D01*
X8214285Y43952380D01*
X8261904Y43857142D01*
X8261904Y43714285D01*
X8214285Y43619047D01*
X8166666Y43571428D01*
X8071428Y43523809D01*
X7690476Y43523809D01*
X8690476Y43047619D02*
X8690476Y44047619D01*
X9071428Y44047619D01*
X9166666Y44000000D01*
X9214285Y43952380D01*
X9261904Y43857142D01*
X9261904Y43714285D01*
X9214285Y43619047D01*
X9166666Y43571428D01*
X9071428Y43523809D01*
X8690476Y43523809D01*
X9690476Y43047619D02*
X9690476Y44047619D01*
X10166666Y43047619D02*
X10166666Y44047619D01*
X10738095Y43047619D01*
X10738095Y44047619D01*
X11738095Y44000000D02*
X11642857Y44047619D01*
X11499999Y44047619D01*
X11357142Y44000000D01*
X11261904Y43904761D01*
X11214285Y43809523D01*
X11166666Y43619047D01*
X11166666Y43476190D01*
X11214285Y43285714D01*
X11261904Y43190476D01*
X11357142Y43095238D01*
X11499999Y43047619D01*
X11595238Y43047619D01*
X11738095Y43095238D01*
X11785714Y43142857D01*
X11785714Y43476190D01*
X11595238Y43476190D01*
X12928571Y43095238D02*
X13071428Y43047619D01*
X13309523Y43047619D01*
X13404761Y43095238D01*
X13452380Y43142857D01*
X13499999Y43238095D01*
X13499999Y43333333D01*
X13452380Y43428571D01*
X13404761Y43476190D01*
X13309523Y43523809D01*
X13119047Y43571428D01*
X13023809Y43619047D01*
X12976190Y43666666D01*
X12928571Y43761904D01*
X12928571Y43857142D01*
X12976190Y43952380D01*
X13023809Y44000000D01*
X13119047Y44047619D01*
X13357142Y44047619D01*
X13499999Y44000000D01*
X13785714Y44047619D02*
X14357142Y44047619D01*
X14071428Y43047619D02*
X14071428Y44047619D01*
X14642857Y43333333D02*
X15119047Y43333333D01*
X14547619Y43047619D02*
X14880952Y44047619D01*
X15214285Y43047619D01*
X16071428Y44000000D02*
X15976190Y44047619D01*
X15833333Y44047619D01*
X15690476Y44000000D01*
X15595238Y43904761D01*
X15547619Y43809523D01*
X15499999Y43619047D01*
X15499999Y43476190D01*
X15547619Y43285714D01*
X15595238Y43190476D01*
X15690476Y43095238D01*
X15833333Y43047619D01*
X15928571Y43047619D01*
X16071428Y43095238D01*
X16119047Y43142857D01*
X16119047Y43476190D01*
X15928571Y43476190D01*
X16547619Y43571428D02*
X16880952Y43571428D01*
X17023809Y43047619D02*
X16547619Y43047619D01*
X16547619Y44047619D01*
X17023809Y44047619D01*
D10*
X17500000Y45500000D02*
X15500000Y45500000D01*
X500000Y31000000D02*
X500000Y52000000D01*
X16000000Y31000000D02*
X500000Y31000000D01*
X17500000Y45500000D02*
X17500000Y32250000D01*
X15500000Y52000000D02*
X15500000Y45500000D01*
X500000Y77500000D02*
X500000Y52000000D01*
X500000Y52000000D02*
X15500000Y52000000D01*
D14*
%TO.C,R25*%
X34265000Y65772936D02*
X34265000Y66227064D01*
X35735000Y65772936D02*
X35735000Y66227064D01*
%TO.C,SW2*%
X16570000Y53000000D02*
X16570000Y46396000D01*
X16570000Y53000000D02*
X16570000Y59604000D01*
X16570000Y59604000D02*
X23430000Y59604000D01*
X23430000Y59604000D02*
X23430000Y53000000D01*
X23430000Y53000000D02*
X23430000Y46396000D01*
X23430000Y46396000D02*
X16570000Y46396000D01*
%TO.C,SW1*%
X36570000Y53000000D02*
X36570000Y46396000D01*
X36570000Y53000000D02*
X36570000Y59604000D01*
X36570000Y59604000D02*
X43430000Y59604000D01*
X43430000Y59604000D02*
X43430000Y53000000D01*
X43430000Y53000000D02*
X43430000Y46396000D01*
X43430000Y46396000D02*
X36570000Y46396000D01*
D15*
%TO.C,G\u002A\u002A\u002A*%
G36*
X53867810Y7708689D02*
G01*
X53881292Y7694652D01*
X53905355Y7669534D01*
X53939078Y7634298D01*
X53981539Y7589909D01*
X54031817Y7537331D01*
X54088990Y7477527D01*
X54152137Y7411462D01*
X54220336Y7340099D01*
X54292665Y7264403D01*
X54368203Y7185337D01*
X54440203Y7109964D01*
X54960393Y6565370D01*
X54964677Y7659178D01*
X55201901Y7654558D01*
X55204023Y6823853D01*
X55204258Y6707776D01*
X55204363Y6596518D01*
X55204344Y6491195D01*
X55204206Y6392923D01*
X55203955Y6302819D01*
X55203597Y6221998D01*
X55203136Y6151576D01*
X55202579Y6092671D01*
X55201932Y6046398D01*
X55201199Y6013874D01*
X55200387Y5996213D01*
X55199859Y5993216D01*
X55193337Y5999112D01*
X55176097Y6016237D01*
X55148927Y6043778D01*
X55112615Y6080922D01*
X55067948Y6126853D01*
X55015715Y6180759D01*
X54956703Y6241827D01*
X54891701Y6309242D01*
X54821495Y6382191D01*
X54746873Y6459860D01*
X54668625Y6541435D01*
X54627278Y6584590D01*
X54060983Y7175895D01*
X54058841Y6630325D01*
X54056700Y6084754D01*
X53815311Y6084754D01*
X53815607Y7762820D01*
X53867810Y7708689D01*
G37*
X53867810Y7708689D02*
X53881292Y7694652D01*
X53905355Y7669534D01*
X53939078Y7634298D01*
X53981539Y7589909D01*
X54031817Y7537331D01*
X54088990Y7477527D01*
X54152137Y7411462D01*
X54220336Y7340099D01*
X54292665Y7264403D01*
X54368203Y7185337D01*
X54440203Y7109964D01*
X54960393Y6565370D01*
X54964677Y7659178D01*
X55201901Y7654558D01*
X55204023Y6823853D01*
X55204258Y6707776D01*
X55204363Y6596518D01*
X55204344Y6491195D01*
X55204206Y6392923D01*
X55203955Y6302819D01*
X55203597Y6221998D01*
X55203136Y6151576D01*
X55202579Y6092671D01*
X55201932Y6046398D01*
X55201199Y6013874D01*
X55200387Y5996213D01*
X55199859Y5993216D01*
X55193337Y5999112D01*
X55176097Y6016237D01*
X55148927Y6043778D01*
X55112615Y6080922D01*
X55067948Y6126853D01*
X55015715Y6180759D01*
X54956703Y6241827D01*
X54891701Y6309242D01*
X54821495Y6382191D01*
X54746873Y6459860D01*
X54668625Y6541435D01*
X54627278Y6584590D01*
X54060983Y7175895D01*
X54058841Y6630325D01*
X54056700Y6084754D01*
X53815311Y6084754D01*
X53815607Y7762820D01*
X53867810Y7708689D01*
G36*
X49039118Y7677578D02*
G01*
X49097778Y7673496D01*
X49149062Y7665686D01*
X49197558Y7653194D01*
X49247855Y7635066D01*
X49304545Y7610346D01*
X49309760Y7607932D01*
X49384885Y7573027D01*
X49384885Y7292853D01*
X49331940Y7329864D01*
X49276680Y7364694D01*
X49215914Y7396602D01*
X49154944Y7423133D01*
X49099069Y7441830D01*
X49080918Y7446234D01*
X49003178Y7456731D01*
X48921917Y7457080D01*
X48841878Y7447771D01*
X48767806Y7429293D01*
X48716816Y7408629D01*
X48635350Y7359689D01*
X48562480Y7298801D01*
X48500135Y7228156D01*
X48450243Y7149951D01*
X48414730Y7066377D01*
X48413946Y7063932D01*
X48390653Y6966453D01*
X48382368Y6870423D01*
X48388247Y6777151D01*
X48407452Y6687945D01*
X48439141Y6604115D01*
X48482473Y6526968D01*
X48536607Y6457814D01*
X48600703Y6397962D01*
X48673920Y6348721D01*
X48755416Y6311399D01*
X48844352Y6287305D01*
X48918509Y6278528D01*
X48996501Y6277625D01*
X49064458Y6284730D01*
X49127423Y6300778D01*
X49190442Y6326701D01*
X49197508Y6330153D01*
X49237843Y6351737D01*
X49279975Y6376877D01*
X49316635Y6401164D01*
X49326590Y6408465D01*
X49380721Y6449650D01*
X49383009Y6312025D01*
X49383429Y6250064D01*
X49382353Y6204608D01*
X49379776Y6175573D01*
X49376029Y6163233D01*
X49363298Y6154558D01*
X49338165Y6142335D01*
X49304147Y6127905D01*
X49264765Y6112611D01*
X49223537Y6097793D01*
X49183983Y6084794D01*
X49149621Y6074954D01*
X49136088Y6071765D01*
X49095025Y6065192D01*
X49043848Y6060139D01*
X48987631Y6056799D01*
X48931446Y6055368D01*
X48880367Y6056040D01*
X48839468Y6059010D01*
X48831787Y6060077D01*
X48718866Y6085982D01*
X48612489Y6126488D01*
X48513833Y6180547D01*
X48424072Y6247114D01*
X48344382Y6325141D01*
X48275940Y6413581D01*
X48219921Y6511387D01*
X48177501Y6617514D01*
X48167387Y6651606D01*
X48160039Y6680568D01*
X48154840Y6707538D01*
X48151455Y6736348D01*
X48149546Y6770830D01*
X48148777Y6814817D01*
X48148770Y6863410D01*
X48149342Y6920106D01*
X48150763Y6963947D01*
X48153377Y6998729D01*
X48157525Y7028244D01*
X48163549Y7056287D01*
X48167553Y7071607D01*
X48204095Y7175472D01*
X48254918Y7274720D01*
X48318315Y7367318D01*
X48392579Y7451230D01*
X48476002Y7524422D01*
X48566878Y7584859D01*
X48621870Y7613056D01*
X48682778Y7638465D01*
X48741304Y7656914D01*
X48801841Y7669237D01*
X48868781Y7676268D01*
X48946516Y7678841D01*
X48968491Y7678885D01*
X49039118Y7677578D01*
G37*
X49039118Y7677578D02*
X49097778Y7673496D01*
X49149062Y7665686D01*
X49197558Y7653194D01*
X49247855Y7635066D01*
X49304545Y7610346D01*
X49309760Y7607932D01*
X49384885Y7573027D01*
X49384885Y7292853D01*
X49331940Y7329864D01*
X49276680Y7364694D01*
X49215914Y7396602D01*
X49154944Y7423133D01*
X49099069Y7441830D01*
X49080918Y7446234D01*
X49003178Y7456731D01*
X48921917Y7457080D01*
X48841878Y7447771D01*
X48767806Y7429293D01*
X48716816Y7408629D01*
X48635350Y7359689D01*
X48562480Y7298801D01*
X48500135Y7228156D01*
X48450243Y7149951D01*
X48414730Y7066377D01*
X48413946Y7063932D01*
X48390653Y6966453D01*
X48382368Y6870423D01*
X48388247Y6777151D01*
X48407452Y6687945D01*
X48439141Y6604115D01*
X48482473Y6526968D01*
X48536607Y6457814D01*
X48600703Y6397962D01*
X48673920Y6348721D01*
X48755416Y6311399D01*
X48844352Y6287305D01*
X48918509Y6278528D01*
X48996501Y6277625D01*
X49064458Y6284730D01*
X49127423Y6300778D01*
X49190442Y6326701D01*
X49197508Y6330153D01*
X49237843Y6351737D01*
X49279975Y6376877D01*
X49316635Y6401164D01*
X49326590Y6408465D01*
X49380721Y6449650D01*
X49383009Y6312025D01*
X49383429Y6250064D01*
X49382353Y6204608D01*
X49379776Y6175573D01*
X49376029Y6163233D01*
X49363298Y6154558D01*
X49338165Y6142335D01*
X49304147Y6127905D01*
X49264765Y6112611D01*
X49223537Y6097793D01*
X49183983Y6084794D01*
X49149621Y6074954D01*
X49136088Y6071765D01*
X49095025Y6065192D01*
X49043848Y6060139D01*
X48987631Y6056799D01*
X48931446Y6055368D01*
X48880367Y6056040D01*
X48839468Y6059010D01*
X48831787Y6060077D01*
X48718866Y6085982D01*
X48612489Y6126488D01*
X48513833Y6180547D01*
X48424072Y6247114D01*
X48344382Y6325141D01*
X48275940Y6413581D01*
X48219921Y6511387D01*
X48177501Y6617514D01*
X48167387Y6651606D01*
X48160039Y6680568D01*
X48154840Y6707538D01*
X48151455Y6736348D01*
X48149546Y6770830D01*
X48148777Y6814817D01*
X48148770Y6863410D01*
X48149342Y6920106D01*
X48150763Y6963947D01*
X48153377Y6998729D01*
X48157525Y7028244D01*
X48163549Y7056287D01*
X48167553Y7071607D01*
X48204095Y7175472D01*
X48254918Y7274720D01*
X48318315Y7367318D01*
X48392579Y7451230D01*
X48476002Y7524422D01*
X48566878Y7584859D01*
X48621870Y7613056D01*
X48682778Y7638465D01*
X48741304Y7656914D01*
X48801841Y7669237D01*
X48868781Y7676268D01*
X48946516Y7678841D01*
X48968491Y7678885D01*
X49039118Y7677578D01*
G36*
X52740324Y7681249D02*
G01*
X52855070Y7668631D01*
X52961187Y7642214D01*
X53060019Y7601400D01*
X53152907Y7545588D01*
X53241193Y7474178D01*
X53274067Y7442575D01*
X53340432Y7370155D01*
X53393534Y7298374D01*
X53435995Y7222868D01*
X53470438Y7139270D01*
X53486913Y7088262D01*
X53502892Y7017080D01*
X53512347Y6936329D01*
X53515068Y6851856D01*
X53510849Y6769503D01*
X53500720Y6700933D01*
X53470002Y6592499D01*
X53424649Y6490487D01*
X53365851Y6396133D01*
X53294799Y6310670D01*
X53212685Y6235333D01*
X53120699Y6171355D01*
X53020034Y6119970D01*
X52911879Y6082413D01*
X52900959Y6079532D01*
X52837287Y6066697D01*
X52766203Y6058184D01*
X52693221Y6054254D01*
X52623859Y6055169D01*
X52563631Y6061192D01*
X52553219Y6063023D01*
X52435718Y6093352D01*
X52326848Y6137776D01*
X52225821Y6196655D01*
X52170557Y6237530D01*
X52084642Y6315512D01*
X52013860Y6399854D01*
X51957933Y6491152D01*
X51916579Y6590004D01*
X51889519Y6697004D01*
X51876471Y6812749D01*
X51875098Y6865843D01*
X51875185Y6867574D01*
X52113359Y6867574D01*
X52119269Y6770451D01*
X52137545Y6683197D01*
X52169085Y6603599D01*
X52214793Y6529444D01*
X52275568Y6458520D01*
X52282849Y6451180D01*
X52350734Y6389860D01*
X52417513Y6343388D01*
X52486350Y6310516D01*
X52560411Y6289995D01*
X52642859Y6280574D01*
X52716032Y6280160D01*
X52769888Y6283012D01*
X52813544Y6288326D01*
X52853390Y6297059D01*
X52879079Y6304644D01*
X52961407Y6339302D01*
X53038447Y6388102D01*
X53107960Y6448815D01*
X53167706Y6519210D01*
X53215448Y6597055D01*
X53245795Y6670083D01*
X53261003Y6732088D01*
X53270471Y6803672D01*
X53273911Y6878676D01*
X53271033Y6950941D01*
X53261838Y7013032D01*
X53234455Y7099444D01*
X53192866Y7180662D01*
X53138907Y7254849D01*
X53074417Y7320169D01*
X53001236Y7374782D01*
X52921199Y7416852D01*
X52836147Y7444542D01*
X52828459Y7446234D01*
X52729107Y7459301D01*
X52631627Y7456661D01*
X52537580Y7438855D01*
X52448523Y7406425D01*
X52366017Y7359912D01*
X52291620Y7299858D01*
X52237980Y7241165D01*
X52188061Y7169851D01*
X52151779Y7097060D01*
X52128038Y7019509D01*
X52115742Y6933914D01*
X52113359Y6867574D01*
X51875185Y6867574D01*
X51880890Y6979858D01*
X51899183Y7084039D01*
X51930766Y7180397D01*
X51976429Y7270940D01*
X52036962Y7357680D01*
X52093984Y7422914D01*
X52182154Y7504756D01*
X52276497Y7571130D01*
X52377040Y7622046D01*
X52483812Y7657514D01*
X52596839Y7677547D01*
X52716149Y7682156D01*
X52740324Y7681249D01*
G37*
X52740324Y7681249D02*
X52855070Y7668631D01*
X52961187Y7642214D01*
X53060019Y7601400D01*
X53152907Y7545588D01*
X53241193Y7474178D01*
X53274067Y7442575D01*
X53340432Y7370155D01*
X53393534Y7298374D01*
X53435995Y7222868D01*
X53470438Y7139270D01*
X53486913Y7088262D01*
X53502892Y7017080D01*
X53512347Y6936329D01*
X53515068Y6851856D01*
X53510849Y6769503D01*
X53500720Y6700933D01*
X53470002Y6592499D01*
X53424649Y6490487D01*
X53365851Y6396133D01*
X53294799Y6310670D01*
X53212685Y6235333D01*
X53120699Y6171355D01*
X53020034Y6119970D01*
X52911879Y6082413D01*
X52900959Y6079532D01*
X52837287Y6066697D01*
X52766203Y6058184D01*
X52693221Y6054254D01*
X52623859Y6055169D01*
X52563631Y6061192D01*
X52553219Y6063023D01*
X52435718Y6093352D01*
X52326848Y6137776D01*
X52225821Y6196655D01*
X52170557Y6237530D01*
X52084642Y6315512D01*
X52013860Y6399854D01*
X51957933Y6491152D01*
X51916579Y6590004D01*
X51889519Y6697004D01*
X51876471Y6812749D01*
X51875098Y6865843D01*
X51875185Y6867574D01*
X52113359Y6867574D01*
X52119269Y6770451D01*
X52137545Y6683197D01*
X52169085Y6603599D01*
X52214793Y6529444D01*
X52275568Y6458520D01*
X52282849Y6451180D01*
X52350734Y6389860D01*
X52417513Y6343388D01*
X52486350Y6310516D01*
X52560411Y6289995D01*
X52642859Y6280574D01*
X52716032Y6280160D01*
X52769888Y6283012D01*
X52813544Y6288326D01*
X52853390Y6297059D01*
X52879079Y6304644D01*
X52961407Y6339302D01*
X53038447Y6388102D01*
X53107960Y6448815D01*
X53167706Y6519210D01*
X53215448Y6597055D01*
X53245795Y6670083D01*
X53261003Y6732088D01*
X53270471Y6803672D01*
X53273911Y6878676D01*
X53271033Y6950941D01*
X53261838Y7013032D01*
X53234455Y7099444D01*
X53192866Y7180662D01*
X53138907Y7254849D01*
X53074417Y7320169D01*
X53001236Y7374782D01*
X52921199Y7416852D01*
X52836147Y7444542D01*
X52828459Y7446234D01*
X52729107Y7459301D01*
X52631627Y7456661D01*
X52537580Y7438855D01*
X52448523Y7406425D01*
X52366017Y7359912D01*
X52291620Y7299858D01*
X52237980Y7241165D01*
X52188061Y7169851D01*
X52151779Y7097060D01*
X52128038Y7019509D01*
X52115742Y6933914D01*
X52113359Y6867574D01*
X51875185Y6867574D01*
X51880890Y6979858D01*
X51899183Y7084039D01*
X51930766Y7180397D01*
X51976429Y7270940D01*
X52036962Y7357680D01*
X52093984Y7422914D01*
X52182154Y7504756D01*
X52276497Y7571130D01*
X52377040Y7622046D01*
X52483812Y7657514D01*
X52596839Y7677547D01*
X52716149Y7682156D01*
X52740324Y7681249D01*
G36*
X57003779Y7682055D02*
G01*
X57068005Y7675806D01*
X57069012Y7675645D01*
X57123971Y7663880D01*
X57186107Y7645949D01*
X57248273Y7624187D01*
X57303325Y7600931D01*
X57315098Y7595178D01*
X57354655Y7575162D01*
X57354655Y7292405D01*
X57316791Y7321308D01*
X57230111Y7378767D01*
X57141246Y7420121D01*
X57048788Y7445902D01*
X56959082Y7456334D01*
X56858715Y7453756D01*
X56766130Y7436481D01*
X56680998Y7404364D01*
X56602993Y7357258D01*
X56531789Y7295016D01*
X56487826Y7244900D01*
X56436749Y7171933D01*
X56399437Y7097568D01*
X56374488Y7018051D01*
X56360504Y6929624D01*
X56357970Y6896381D01*
X56359682Y6794573D01*
X56376937Y6698660D01*
X56409619Y6608934D01*
X56457610Y6525687D01*
X56520795Y6449212D01*
X56546935Y6423675D01*
X56615356Y6368296D01*
X56686621Y6327236D01*
X56763675Y6299293D01*
X56849460Y6283264D01*
X56900786Y6279122D01*
X56989437Y6279791D01*
X57069944Y6291793D01*
X57145765Y6316232D01*
X57220354Y6354209D01*
X57294278Y6404631D01*
X57354655Y6450354D01*
X57354655Y6162171D01*
X57298442Y6136635D01*
X57218286Y6105174D01*
X57132487Y6080287D01*
X57045075Y6062660D01*
X56960079Y6052976D01*
X56881530Y6051920D01*
X56830000Y6057084D01*
X56732863Y6076317D01*
X56648046Y6101066D01*
X56571727Y6132733D01*
X56500089Y6172716D01*
X56481463Y6184845D01*
X56389435Y6255982D01*
X56309600Y6337265D01*
X56242595Y6427321D01*
X56189063Y6524777D01*
X56149643Y6628259D01*
X56124974Y6736395D01*
X56115698Y6847812D01*
X56121831Y6956291D01*
X56144010Y7069709D01*
X56180759Y7177425D01*
X56230999Y7278169D01*
X56293651Y7370671D01*
X56367635Y7453660D01*
X56451873Y7525867D01*
X56545286Y7586020D01*
X56646794Y7632851D01*
X56715780Y7655319D01*
X56780082Y7669052D01*
X56853636Y7678323D01*
X56930262Y7682776D01*
X57003779Y7682055D01*
G37*
X57003779Y7682055D02*
X57068005Y7675806D01*
X57069012Y7675645D01*
X57123971Y7663880D01*
X57186107Y7645949D01*
X57248273Y7624187D01*
X57303325Y7600931D01*
X57315098Y7595178D01*
X57354655Y7575162D01*
X57354655Y7292405D01*
X57316791Y7321308D01*
X57230111Y7378767D01*
X57141246Y7420121D01*
X57048788Y7445902D01*
X56959082Y7456334D01*
X56858715Y7453756D01*
X56766130Y7436481D01*
X56680998Y7404364D01*
X56602993Y7357258D01*
X56531789Y7295016D01*
X56487826Y7244900D01*
X56436749Y7171933D01*
X56399437Y7097568D01*
X56374488Y7018051D01*
X56360504Y6929624D01*
X56357970Y6896381D01*
X56359682Y6794573D01*
X56376937Y6698660D01*
X56409619Y6608934D01*
X56457610Y6525687D01*
X56520795Y6449212D01*
X56546935Y6423675D01*
X56615356Y6368296D01*
X56686621Y6327236D01*
X56763675Y6299293D01*
X56849460Y6283264D01*
X56900786Y6279122D01*
X56989437Y6279791D01*
X57069944Y6291793D01*
X57145765Y6316232D01*
X57220354Y6354209D01*
X57294278Y6404631D01*
X57354655Y6450354D01*
X57354655Y6162171D01*
X57298442Y6136635D01*
X57218286Y6105174D01*
X57132487Y6080287D01*
X57045075Y6062660D01*
X56960079Y6052976D01*
X56881530Y6051920D01*
X56830000Y6057084D01*
X56732863Y6076317D01*
X56648046Y6101066D01*
X56571727Y6132733D01*
X56500089Y6172716D01*
X56481463Y6184845D01*
X56389435Y6255982D01*
X56309600Y6337265D01*
X56242595Y6427321D01*
X56189063Y6524777D01*
X56149643Y6628259D01*
X56124974Y6736395D01*
X56115698Y6847812D01*
X56121831Y6956291D01*
X56144010Y7069709D01*
X56180759Y7177425D01*
X56230999Y7278169D01*
X56293651Y7370671D01*
X56367635Y7453660D01*
X56451873Y7525867D01*
X56545286Y7586020D01*
X56646794Y7632851D01*
X56715780Y7655319D01*
X56780082Y7669052D01*
X56853636Y7678323D01*
X56930262Y7682776D01*
X57003779Y7682055D01*
G36*
X58208363Y7677041D02*
G01*
X58287527Y7656708D01*
X58359312Y7622194D01*
X58424181Y7573839D01*
X58447835Y7550982D01*
X58473570Y7523299D01*
X58498777Y7493972D01*
X58520850Y7466184D01*
X58537179Y7443120D01*
X58545156Y7427963D01*
X58545541Y7425713D01*
X58538925Y7420007D01*
X58521231Y7407792D01*
X58495688Y7391085D01*
X58465527Y7371904D01*
X58433975Y7352265D01*
X58404264Y7334188D01*
X58379622Y7319688D01*
X58363280Y7310783D01*
X58358617Y7308951D01*
X58353051Y7315224D01*
X58341650Y7331145D01*
X58334698Y7341462D01*
X58294492Y7392445D01*
X58250508Y7428016D01*
X58200401Y7449356D01*
X58141824Y7457648D01*
X58105218Y7457079D01*
X58041366Y7447074D01*
X57987494Y7425922D01*
X57944768Y7394643D01*
X57914353Y7354260D01*
X57897416Y7305793D01*
X57894193Y7272124D01*
X57897504Y7233326D01*
X57909099Y7199014D01*
X57930352Y7167918D01*
X57962638Y7138771D01*
X58007334Y7110301D01*
X58065813Y7081241D01*
X58130687Y7053803D01*
X58225773Y7013696D01*
X58305921Y6975138D01*
X58372658Y6937149D01*
X58427508Y6898749D01*
X58471998Y6858960D01*
X58507652Y6816800D01*
X58514181Y6807522D01*
X58545646Y6754354D01*
X58566979Y6700258D01*
X58579783Y6640074D01*
X58585216Y6579138D01*
X58583884Y6488173D01*
X58570090Y6406995D01*
X58543072Y6333541D01*
X58502070Y6265745D01*
X58446325Y6201544D01*
X58446041Y6201262D01*
X58380782Y6144454D01*
X58314105Y6102973D01*
X58243845Y6075506D01*
X58233803Y6072758D01*
X58187811Y6063929D01*
X58132440Y6058000D01*
X58074776Y6055380D01*
X58021909Y6056477D01*
X57995838Y6059033D01*
X57911531Y6078802D01*
X57833255Y6112863D01*
X57762990Y6159855D01*
X57702716Y6218418D01*
X57654412Y6287190D01*
X57648715Y6297561D01*
X57636537Y6323758D01*
X57622756Y6358477D01*
X57608811Y6397403D01*
X57596144Y6436220D01*
X57586194Y6470612D01*
X57580401Y6496264D01*
X57579508Y6504968D01*
X57587477Y6511232D01*
X57610353Y6519573D01*
X57646584Y6529499D01*
X57683694Y6538151D01*
X57724520Y6547172D01*
X57760443Y6555202D01*
X57787781Y6561409D01*
X57802852Y6564966D01*
X57803468Y6565124D01*
X57812116Y6565202D01*
X57818336Y6557905D01*
X57823660Y6540070D01*
X57828931Y6512498D01*
X57843452Y6450721D01*
X57864147Y6401276D01*
X57892866Y6360413D01*
X57914702Y6338466D01*
X57964488Y6304367D01*
X58021136Y6283427D01*
X58081432Y6275547D01*
X58142159Y6280626D01*
X58200101Y6298564D01*
X58252042Y6329261D01*
X58275089Y6349698D01*
X58304751Y6383821D01*
X58324657Y6417968D01*
X58336755Y6457063D01*
X58342992Y6506029D01*
X58344041Y6524019D01*
X58345366Y6561898D01*
X58344532Y6588610D01*
X58340697Y6609591D01*
X58333025Y6630277D01*
X58325000Y6647329D01*
X58291067Y6697872D01*
X58260044Y6727072D01*
X58239283Y6742947D01*
X58219048Y6756859D01*
X58196730Y6770151D01*
X58169719Y6784166D01*
X58135410Y6800249D01*
X58091192Y6819743D01*
X58034457Y6843992D01*
X58026742Y6847261D01*
X57951669Y6880630D01*
X57890146Y6911754D01*
X57839521Y6942253D01*
X57797142Y6973743D01*
X57760357Y7007843D01*
X57755927Y7012469D01*
X57707470Y7075094D01*
X57673685Y7143677D01*
X57654678Y7216149D01*
X57650554Y7290437D01*
X57661419Y7364472D01*
X57687379Y7436184D01*
X57728539Y7503501D01*
X57730743Y7506384D01*
X57787796Y7566957D01*
X57855676Y7615651D01*
X57932874Y7651781D01*
X58017883Y7674660D01*
X58109193Y7683601D01*
X58120402Y7683705D01*
X58208363Y7677041D01*
G37*
X58208363Y7677041D02*
X58287527Y7656708D01*
X58359312Y7622194D01*
X58424181Y7573839D01*
X58447835Y7550982D01*
X58473570Y7523299D01*
X58498777Y7493972D01*
X58520850Y7466184D01*
X58537179Y7443120D01*
X58545156Y7427963D01*
X58545541Y7425713D01*
X58538925Y7420007D01*
X58521231Y7407792D01*
X58495688Y7391085D01*
X58465527Y7371904D01*
X58433975Y7352265D01*
X58404264Y7334188D01*
X58379622Y7319688D01*
X58363280Y7310783D01*
X58358617Y7308951D01*
X58353051Y7315224D01*
X58341650Y7331145D01*
X58334698Y7341462D01*
X58294492Y7392445D01*
X58250508Y7428016D01*
X58200401Y7449356D01*
X58141824Y7457648D01*
X58105218Y7457079D01*
X58041366Y7447074D01*
X57987494Y7425922D01*
X57944768Y7394643D01*
X57914353Y7354260D01*
X57897416Y7305793D01*
X57894193Y7272124D01*
X57897504Y7233326D01*
X57909099Y7199014D01*
X57930352Y7167918D01*
X57962638Y7138771D01*
X58007334Y7110301D01*
X58065813Y7081241D01*
X58130687Y7053803D01*
X58225773Y7013696D01*
X58305921Y6975138D01*
X58372658Y6937149D01*
X58427508Y6898749D01*
X58471998Y6858960D01*
X58507652Y6816800D01*
X58514181Y6807522D01*
X58545646Y6754354D01*
X58566979Y6700258D01*
X58579783Y6640074D01*
X58585216Y6579138D01*
X58583884Y6488173D01*
X58570090Y6406995D01*
X58543072Y6333541D01*
X58502070Y6265745D01*
X58446325Y6201544D01*
X58446041Y6201262D01*
X58380782Y6144454D01*
X58314105Y6102973D01*
X58243845Y6075506D01*
X58233803Y6072758D01*
X58187811Y6063929D01*
X58132440Y6058000D01*
X58074776Y6055380D01*
X58021909Y6056477D01*
X57995838Y6059033D01*
X57911531Y6078802D01*
X57833255Y6112863D01*
X57762990Y6159855D01*
X57702716Y6218418D01*
X57654412Y6287190D01*
X57648715Y6297561D01*
X57636537Y6323758D01*
X57622756Y6358477D01*
X57608811Y6397403D01*
X57596144Y6436220D01*
X57586194Y6470612D01*
X57580401Y6496264D01*
X57579508Y6504968D01*
X57587477Y6511232D01*
X57610353Y6519573D01*
X57646584Y6529499D01*
X57683694Y6538151D01*
X57724520Y6547172D01*
X57760443Y6555202D01*
X57787781Y6561409D01*
X57802852Y6564966D01*
X57803468Y6565124D01*
X57812116Y6565202D01*
X57818336Y6557905D01*
X57823660Y6540070D01*
X57828931Y6512498D01*
X57843452Y6450721D01*
X57864147Y6401276D01*
X57892866Y6360413D01*
X57914702Y6338466D01*
X57964488Y6304367D01*
X58021136Y6283427D01*
X58081432Y6275547D01*
X58142159Y6280626D01*
X58200101Y6298564D01*
X58252042Y6329261D01*
X58275089Y6349698D01*
X58304751Y6383821D01*
X58324657Y6417968D01*
X58336755Y6457063D01*
X58342992Y6506029D01*
X58344041Y6524019D01*
X58345366Y6561898D01*
X58344532Y6588610D01*
X58340697Y6609591D01*
X58333025Y6630277D01*
X58325000Y6647329D01*
X58291067Y6697872D01*
X58260044Y6727072D01*
X58239283Y6742947D01*
X58219048Y6756859D01*
X58196730Y6770151D01*
X58169719Y6784166D01*
X58135410Y6800249D01*
X58091192Y6819743D01*
X58034457Y6843992D01*
X58026742Y6847261D01*
X57951669Y6880630D01*
X57890146Y6911754D01*
X57839521Y6942253D01*
X57797142Y6973743D01*
X57760357Y7007843D01*
X57755927Y7012469D01*
X57707470Y7075094D01*
X57673685Y7143677D01*
X57654678Y7216149D01*
X57650554Y7290437D01*
X57661419Y7364472D01*
X57687379Y7436184D01*
X57728539Y7503501D01*
X57730743Y7506384D01*
X57787796Y7566957D01*
X57855676Y7615651D01*
X57932874Y7651781D01*
X58017883Y7674660D01*
X58109193Y7683601D01*
X58120402Y7683705D01*
X58208363Y7677041D01*
G36*
X45802061Y7544213D02*
G01*
X45804385Y7433869D01*
X45170983Y7433869D01*
X45170983Y7050787D01*
X45787246Y7050787D01*
X45787246Y6834262D01*
X45170983Y6834262D01*
X45170983Y6301279D01*
X45803901Y6301279D01*
X45803901Y6084754D01*
X44929390Y6084754D01*
X44931515Y6869656D01*
X44933639Y7654558D01*
X45799737Y7654558D01*
X45802061Y7544213D01*
G37*
X45802061Y7544213D02*
X45804385Y7433869D01*
X45170983Y7433869D01*
X45170983Y7050787D01*
X45787246Y7050787D01*
X45787246Y6834262D01*
X45170983Y6834262D01*
X45170983Y6301279D01*
X45803901Y6301279D01*
X45803901Y6084754D01*
X44929390Y6084754D01*
X44931515Y6869656D01*
X44933639Y7654558D01*
X45799737Y7654558D01*
X45802061Y7544213D01*
G36*
X46351508Y6977918D02*
G01*
X46353639Y6301279D01*
X46811573Y6301279D01*
X46811573Y6084754D01*
X46111947Y6084754D01*
X46114072Y6869656D01*
X46116196Y7654558D01*
X46349377Y7654558D01*
X46351508Y6977918D01*
G37*
X46351508Y6977918D02*
X46353639Y6301279D01*
X46811573Y6301279D01*
X46811573Y6084754D01*
X46111947Y6084754D01*
X46114072Y6869656D01*
X46116196Y7654558D01*
X46349377Y7654558D01*
X46351508Y6977918D01*
G36*
X47475721Y7656714D02*
G01*
X47906688Y7654558D01*
X47909012Y7544213D01*
X47911335Y7433869D01*
X47277934Y7433869D01*
X47277934Y7050787D01*
X47885868Y7050787D01*
X47885868Y6834262D01*
X47277934Y6834262D01*
X47277934Y6301279D01*
X47910852Y6301279D01*
X47910852Y6084754D01*
X47044754Y6084754D01*
X47044754Y7658871D01*
X47475721Y7656714D01*
G37*
X47475721Y7656714D02*
X47906688Y7654558D01*
X47909012Y7544213D01*
X47911335Y7433869D01*
X47277934Y7433869D01*
X47277934Y7050787D01*
X47885868Y7050787D01*
X47885868Y6834262D01*
X47277934Y6834262D01*
X47277934Y6301279D01*
X47910852Y6301279D01*
X47910852Y6084754D01*
X47044754Y6084754D01*
X47044754Y7658871D01*
X47475721Y7656714D01*
G36*
X50475836Y7433869D02*
G01*
X50117737Y7433869D01*
X50117737Y6084754D01*
X49876229Y6084754D01*
X49876229Y7433869D01*
X49518131Y7433869D01*
X49518131Y7658721D01*
X50475836Y7658721D01*
X50475836Y7433869D01*
G37*
X50475836Y7433869D02*
X50117737Y7433869D01*
X50117737Y6084754D01*
X49876229Y6084754D01*
X49876229Y7433869D01*
X49518131Y7433869D01*
X49518131Y7658721D01*
X50475836Y7658721D01*
X50475836Y7433869D01*
G36*
X50819360Y7658648D02*
G01*
X50935506Y7657131D01*
X51036757Y7652476D01*
X51124643Y7644316D01*
X51200694Y7632282D01*
X51266438Y7616006D01*
X51323406Y7595120D01*
X51373127Y7569254D01*
X51417129Y7538042D01*
X51451859Y7506345D01*
X51501125Y7445148D01*
X51537455Y7376139D01*
X51561001Y7301613D01*
X51571917Y7223869D01*
X51570357Y7145205D01*
X51556473Y7067917D01*
X51530420Y6994304D01*
X51492351Y6926664D01*
X51442420Y6867293D01*
X51407147Y6836837D01*
X51372639Y6811592D01*
X51344340Y6794083D01*
X51316003Y6780990D01*
X51281383Y6768991D01*
X51276946Y6767602D01*
X51252921Y6758830D01*
X51237233Y6750589D01*
X51233615Y6746182D01*
X51238538Y6738075D01*
X51252308Y6717881D01*
X51273953Y6686967D01*
X51302500Y6646699D01*
X51336976Y6598444D01*
X51376410Y6543568D01*
X51419829Y6483439D01*
X51460997Y6426664D01*
X51507508Y6362641D01*
X51551270Y6302401D01*
X51591256Y6247356D01*
X51626441Y6198918D01*
X51655798Y6158500D01*
X51678301Y6127514D01*
X51692925Y6107372D01*
X51698423Y6099795D01*
X51701533Y6094385D01*
X51700447Y6090454D01*
X51693054Y6087768D01*
X51677247Y6086091D01*
X51650917Y6085187D01*
X51611955Y6084820D01*
X51563843Y6084754D01*
X51418382Y6084754D01*
X51194863Y6405372D01*
X51142499Y6480381D01*
X51098709Y6542808D01*
X51062621Y6593790D01*
X51033362Y6634462D01*
X51010058Y6665961D01*
X50991836Y6689421D01*
X50977824Y6705979D01*
X50967149Y6716771D01*
X50958937Y6722932D01*
X50952316Y6725598D01*
X50948442Y6725995D01*
X50925541Y6726000D01*
X50925541Y6084754D01*
X50692360Y6084754D01*
X50692360Y6934197D01*
X50925293Y6934197D01*
X51006613Y6934320D01*
X51049377Y6935735D01*
X51092935Y6939401D01*
X51129906Y6944629D01*
X51140245Y6946776D01*
X51206968Y6968735D01*
X51259954Y6999986D01*
X51299392Y7040684D01*
X51325473Y7090985D01*
X51328972Y7101770D01*
X51341557Y7167547D01*
X51339695Y7229398D01*
X51323773Y7285488D01*
X51294175Y7333983D01*
X51276241Y7353079D01*
X51238549Y7382244D01*
X51195015Y7403546D01*
X51142936Y7417788D01*
X51079610Y7425776D01*
X51024407Y7428126D01*
X50929705Y7429705D01*
X50925293Y6934197D01*
X50692360Y6934197D01*
X50692360Y7658721D01*
X50819360Y7658648D01*
G37*
X50819360Y7658648D02*
X50935506Y7657131D01*
X51036757Y7652476D01*
X51124643Y7644316D01*
X51200694Y7632282D01*
X51266438Y7616006D01*
X51323406Y7595120D01*
X51373127Y7569254D01*
X51417129Y7538042D01*
X51451859Y7506345D01*
X51501125Y7445148D01*
X51537455Y7376139D01*
X51561001Y7301613D01*
X51571917Y7223869D01*
X51570357Y7145205D01*
X51556473Y7067917D01*
X51530420Y6994304D01*
X51492351Y6926664D01*
X51442420Y6867293D01*
X51407147Y6836837D01*
X51372639Y6811592D01*
X51344340Y6794083D01*
X51316003Y6780990D01*
X51281383Y6768991D01*
X51276946Y6767602D01*
X51252921Y6758830D01*
X51237233Y6750589D01*
X51233615Y6746182D01*
X51238538Y6738075D01*
X51252308Y6717881D01*
X51273953Y6686967D01*
X51302500Y6646699D01*
X51336976Y6598444D01*
X51376410Y6543568D01*
X51419829Y6483439D01*
X51460997Y6426664D01*
X51507508Y6362641D01*
X51551270Y6302401D01*
X51591256Y6247356D01*
X51626441Y6198918D01*
X51655798Y6158500D01*
X51678301Y6127514D01*
X51692925Y6107372D01*
X51698423Y6099795D01*
X51701533Y6094385D01*
X51700447Y6090454D01*
X51693054Y6087768D01*
X51677247Y6086091D01*
X51650917Y6085187D01*
X51611955Y6084820D01*
X51563843Y6084754D01*
X51418382Y6084754D01*
X51194863Y6405372D01*
X51142499Y6480381D01*
X51098709Y6542808D01*
X51062621Y6593790D01*
X51033362Y6634462D01*
X51010058Y6665961D01*
X50991836Y6689421D01*
X50977824Y6705979D01*
X50967149Y6716771D01*
X50958937Y6722932D01*
X50952316Y6725598D01*
X50948442Y6725995D01*
X50925541Y6726000D01*
X50925541Y6084754D01*
X50692360Y6084754D01*
X50692360Y6934197D01*
X50925293Y6934197D01*
X51006613Y6934320D01*
X51049377Y6935735D01*
X51092935Y6939401D01*
X51129906Y6944629D01*
X51140245Y6946776D01*
X51206968Y6968735D01*
X51259954Y6999986D01*
X51299392Y7040684D01*
X51325473Y7090985D01*
X51328972Y7101770D01*
X51341557Y7167547D01*
X51339695Y7229398D01*
X51323773Y7285488D01*
X51294175Y7333983D01*
X51276241Y7353079D01*
X51238549Y7382244D01*
X51195015Y7403546D01*
X51142936Y7417788D01*
X51079610Y7425776D01*
X51024407Y7428126D01*
X50929705Y7429705D01*
X50925293Y6934197D01*
X50692360Y6934197D01*
X50692360Y7658721D01*
X50819360Y7658648D01*
G36*
X55814000Y6084754D02*
G01*
X55580819Y6084754D01*
X55580819Y7658721D01*
X55814000Y7658721D01*
X55814000Y6084754D01*
G37*
X55814000Y6084754D02*
X55580819Y6084754D01*
X55580819Y7658721D01*
X55814000Y7658721D01*
X55814000Y6084754D01*
G36*
X45053152Y10502529D02*
G01*
X45062246Y10493012D01*
X45082008Y10472330D01*
X45111598Y10441358D01*
X45150179Y10400975D01*
X45196912Y10352058D01*
X45250959Y10295484D01*
X45311483Y10232130D01*
X45377644Y10162873D01*
X45448605Y10088592D01*
X45523528Y10010163D01*
X45601574Y9928464D01*
X45621529Y9907575D01*
X46166164Y9337445D01*
X46170327Y9878428D01*
X46174491Y10419410D01*
X46293164Y10421721D01*
X46411836Y10424031D01*
X46411836Y9591016D01*
X46411807Y9474772D01*
X46411725Y9363345D01*
X46411592Y9257849D01*
X46411413Y9159398D01*
X46411192Y9069108D01*
X46410932Y8988092D01*
X46410637Y8917467D01*
X46410311Y8858347D01*
X46409959Y8811846D01*
X46409583Y8779080D01*
X46409189Y8761163D01*
X46408936Y8758000D01*
X46402894Y8763882D01*
X46386118Y8780988D01*
X46359387Y8808507D01*
X46323482Y8845630D01*
X46279183Y8891545D01*
X46227270Y8945443D01*
X46168523Y9006513D01*
X46103723Y9073945D01*
X46033649Y9146928D01*
X45959082Y9224652D01*
X45880803Y9306308D01*
X45836395Y9352656D01*
X45266754Y9947313D01*
X45264612Y9398460D01*
X45262471Y8849607D01*
X45029409Y8849607D01*
X45029409Y10527352D01*
X45053152Y10502529D01*
G37*
X45053152Y10502529D02*
X45062246Y10493012D01*
X45082008Y10472330D01*
X45111598Y10441358D01*
X45150179Y10400975D01*
X45196912Y10352058D01*
X45250959Y10295484D01*
X45311483Y10232130D01*
X45377644Y10162873D01*
X45448605Y10088592D01*
X45523528Y10010163D01*
X45601574Y9928464D01*
X45621529Y9907575D01*
X46166164Y9337445D01*
X46170327Y9878428D01*
X46174491Y10419410D01*
X46293164Y10421721D01*
X46411836Y10424031D01*
X46411836Y9591016D01*
X46411807Y9474772D01*
X46411725Y9363345D01*
X46411592Y9257849D01*
X46411413Y9159398D01*
X46411192Y9069108D01*
X46410932Y8988092D01*
X46410637Y8917467D01*
X46410311Y8858347D01*
X46409959Y8811846D01*
X46409583Y8779080D01*
X46409189Y8761163D01*
X46408936Y8758000D01*
X46402894Y8763882D01*
X46386118Y8780988D01*
X46359387Y8808507D01*
X46323482Y8845630D01*
X46279183Y8891545D01*
X46227270Y8945443D01*
X46168523Y9006513D01*
X46103723Y9073945D01*
X46033649Y9146928D01*
X45959082Y9224652D01*
X45880803Y9306308D01*
X45836395Y9352656D01*
X45266754Y9947313D01*
X45264612Y9398460D01*
X45262471Y8849607D01*
X45029409Y8849607D01*
X45029409Y10527352D01*
X45053152Y10502529D01*
G36*
X57060163Y10517078D02*
G01*
X57070574Y10494592D01*
X57086634Y10459237D01*
X57107811Y10412202D01*
X57133576Y10354673D01*
X57163397Y10287839D01*
X57196743Y10212888D01*
X57233085Y10131008D01*
X57271890Y10043385D01*
X57312628Y9951209D01*
X57317294Y9940639D01*
X57358384Y9847601D01*
X57397707Y9758661D01*
X57434718Y9675045D01*
X57468871Y9597980D01*
X57499622Y9528692D01*
X57526427Y9468407D01*
X57548740Y9418353D01*
X57566016Y9379755D01*
X57577711Y9353841D01*
X57583279Y9341836D01*
X57583453Y9341495D01*
X57589032Y9332186D01*
X57594119Y9330280D01*
X57600626Y9337802D01*
X57610468Y9356777D01*
X57622713Y9383052D01*
X57630915Y9400913D01*
X57645412Y9432537D01*
X57665568Y9476538D01*
X57690752Y9531533D01*
X57720328Y9596137D01*
X57753663Y9668965D01*
X57790124Y9748635D01*
X57829077Y9833761D01*
X57869888Y9922958D01*
X57900291Y9989415D01*
X57949110Y10095980D01*
X57991527Y10188212D01*
X58027961Y10266973D01*
X58058831Y10333125D01*
X58084558Y10387531D01*
X58105559Y10431052D01*
X58122255Y10464550D01*
X58135065Y10488888D01*
X58144407Y10504927D01*
X58150701Y10513530D01*
X58154367Y10515558D01*
X58155451Y10514071D01*
X58157755Y10503152D01*
X58162659Y10477249D01*
X58169924Y10437717D01*
X58179312Y10385915D01*
X58190583Y10323199D01*
X58203500Y10250926D01*
X58217825Y10170455D01*
X58233318Y10083141D01*
X58249741Y9990342D01*
X58266857Y9893416D01*
X58284425Y9793719D01*
X58302209Y9692608D01*
X58319969Y9591441D01*
X58337467Y9491575D01*
X58354465Y9394367D01*
X58370724Y9301174D01*
X58386006Y9213353D01*
X58400072Y9132262D01*
X58412683Y9059258D01*
X58423603Y8995697D01*
X58432591Y8942937D01*
X58439409Y8902336D01*
X58443820Y8875250D01*
X58445584Y8863036D01*
X58445606Y8862623D01*
X58443601Y8857479D01*
X58435985Y8853871D01*
X58420361Y8851540D01*
X58394329Y8850229D01*
X58355492Y8849679D01*
X58324852Y8849607D01*
X58282167Y8850012D01*
X58246119Y8851127D01*
X58219633Y8852801D01*
X58205634Y8854882D01*
X58204181Y8855853D01*
X58202923Y8866660D01*
X58199267Y8891987D01*
X58193509Y8929999D01*
X58185945Y8978863D01*
X58176869Y9036747D01*
X58166578Y9101816D01*
X58155367Y9172238D01*
X58143531Y9246179D01*
X58131367Y9321807D01*
X58119168Y9397288D01*
X58107232Y9470788D01*
X58095852Y9540476D01*
X58085326Y9604517D01*
X58075948Y9661078D01*
X58068014Y9708326D01*
X58061819Y9744428D01*
X58057659Y9767551D01*
X58055904Y9775738D01*
X58051725Y9772582D01*
X58041887Y9756193D01*
X58026261Y9726306D01*
X58004721Y9682654D01*
X57977139Y9624972D01*
X57943387Y9552996D01*
X57903339Y9466458D01*
X57856866Y9365094D01*
X57821035Y9286475D01*
X57781920Y9200612D01*
X57744790Y9119373D01*
X57710221Y9044004D01*
X57678791Y8975752D01*
X57651078Y8915861D01*
X57627658Y8865578D01*
X57609109Y8826149D01*
X57596008Y8798819D01*
X57588932Y8784835D01*
X57587855Y8783226D01*
X57583868Y8790684D01*
X57573750Y8812130D01*
X57558069Y8846304D01*
X57537391Y8891945D01*
X57512283Y8947790D01*
X57483310Y9012578D01*
X57451039Y9085049D01*
X57416037Y9163941D01*
X57378869Y9247992D01*
X57363168Y9283580D01*
X57325253Y9369460D01*
X57289263Y9450764D01*
X57255765Y9526221D01*
X57225327Y9594563D01*
X57198520Y9654520D01*
X57175909Y9704820D01*
X57158065Y9744195D01*
X57145554Y9771375D01*
X57138946Y9785090D01*
X57138080Y9786523D01*
X57135827Y9779093D01*
X57130973Y9756700D01*
X57123791Y9720785D01*
X57114551Y9672792D01*
X57103526Y9614163D01*
X57090987Y9546341D01*
X57077207Y9470769D01*
X57062457Y9388888D01*
X57050452Y9321564D01*
X56967409Y8853771D01*
X56843613Y8851461D01*
X56719817Y8849150D01*
X56724282Y8868116D01*
X56726474Y8878795D01*
X56731636Y8904696D01*
X56739546Y8944694D01*
X56749983Y8997666D01*
X56762728Y9062486D01*
X56777560Y9138029D01*
X56794257Y9223170D01*
X56812598Y9316785D01*
X56832364Y9417749D01*
X56853333Y9524937D01*
X56875285Y9637224D01*
X56889383Y9709377D01*
X56911779Y9823667D01*
X56933363Y9933126D01*
X56953914Y10036674D01*
X56973213Y10133229D01*
X56991038Y10221711D01*
X57007169Y10301040D01*
X57021386Y10370134D01*
X57033467Y10427914D01*
X57043193Y10473298D01*
X57050343Y10505206D01*
X57054696Y10522557D01*
X57055932Y10525508D01*
X57060163Y10517078D01*
G37*
X57060163Y10517078D02*
X57070574Y10494592D01*
X57086634Y10459237D01*
X57107811Y10412202D01*
X57133576Y10354673D01*
X57163397Y10287839D01*
X57196743Y10212888D01*
X57233085Y10131008D01*
X57271890Y10043385D01*
X57312628Y9951209D01*
X57317294Y9940639D01*
X57358384Y9847601D01*
X57397707Y9758661D01*
X57434718Y9675045D01*
X57468871Y9597980D01*
X57499622Y9528692D01*
X57526427Y9468407D01*
X57548740Y9418353D01*
X57566016Y9379755D01*
X57577711Y9353841D01*
X57583279Y9341836D01*
X57583453Y9341495D01*
X57589032Y9332186D01*
X57594119Y9330280D01*
X57600626Y9337802D01*
X57610468Y9356777D01*
X57622713Y9383052D01*
X57630915Y9400913D01*
X57645412Y9432537D01*
X57665568Y9476538D01*
X57690752Y9531533D01*
X57720328Y9596137D01*
X57753663Y9668965D01*
X57790124Y9748635D01*
X57829077Y9833761D01*
X57869888Y9922958D01*
X57900291Y9989415D01*
X57949110Y10095980D01*
X57991527Y10188212D01*
X58027961Y10266973D01*
X58058831Y10333125D01*
X58084558Y10387531D01*
X58105559Y10431052D01*
X58122255Y10464550D01*
X58135065Y10488888D01*
X58144407Y10504927D01*
X58150701Y10513530D01*
X58154367Y10515558D01*
X58155451Y10514071D01*
X58157755Y10503152D01*
X58162659Y10477249D01*
X58169924Y10437717D01*
X58179312Y10385915D01*
X58190583Y10323199D01*
X58203500Y10250926D01*
X58217825Y10170455D01*
X58233318Y10083141D01*
X58249741Y9990342D01*
X58266857Y9893416D01*
X58284425Y9793719D01*
X58302209Y9692608D01*
X58319969Y9591441D01*
X58337467Y9491575D01*
X58354465Y9394367D01*
X58370724Y9301174D01*
X58386006Y9213353D01*
X58400072Y9132262D01*
X58412683Y9059258D01*
X58423603Y8995697D01*
X58432591Y8942937D01*
X58439409Y8902336D01*
X58443820Y8875250D01*
X58445584Y8863036D01*
X58445606Y8862623D01*
X58443601Y8857479D01*
X58435985Y8853871D01*
X58420361Y8851540D01*
X58394329Y8850229D01*
X58355492Y8849679D01*
X58324852Y8849607D01*
X58282167Y8850012D01*
X58246119Y8851127D01*
X58219633Y8852801D01*
X58205634Y8854882D01*
X58204181Y8855853D01*
X58202923Y8866660D01*
X58199267Y8891987D01*
X58193509Y8929999D01*
X58185945Y8978863D01*
X58176869Y9036747D01*
X58166578Y9101816D01*
X58155367Y9172238D01*
X58143531Y9246179D01*
X58131367Y9321807D01*
X58119168Y9397288D01*
X58107232Y9470788D01*
X58095852Y9540476D01*
X58085326Y9604517D01*
X58075948Y9661078D01*
X58068014Y9708326D01*
X58061819Y9744428D01*
X58057659Y9767551D01*
X58055904Y9775738D01*
X58051725Y9772582D01*
X58041887Y9756193D01*
X58026261Y9726306D01*
X58004721Y9682654D01*
X57977139Y9624972D01*
X57943387Y9552996D01*
X57903339Y9466458D01*
X57856866Y9365094D01*
X57821035Y9286475D01*
X57781920Y9200612D01*
X57744790Y9119373D01*
X57710221Y9044004D01*
X57678791Y8975752D01*
X57651078Y8915861D01*
X57627658Y8865578D01*
X57609109Y8826149D01*
X57596008Y8798819D01*
X57588932Y8784835D01*
X57587855Y8783226D01*
X57583868Y8790684D01*
X57573750Y8812130D01*
X57558069Y8846304D01*
X57537391Y8891945D01*
X57512283Y8947790D01*
X57483310Y9012578D01*
X57451039Y9085049D01*
X57416037Y9163941D01*
X57378869Y9247992D01*
X57363168Y9283580D01*
X57325253Y9369460D01*
X57289263Y9450764D01*
X57255765Y9526221D01*
X57225327Y9594563D01*
X57198520Y9654520D01*
X57175909Y9704820D01*
X57158065Y9744195D01*
X57145554Y9771375D01*
X57138946Y9785090D01*
X57138080Y9786523D01*
X57135827Y9779093D01*
X57130973Y9756700D01*
X57123791Y9720785D01*
X57114551Y9672792D01*
X57103526Y9614163D01*
X57090987Y9546341D01*
X57077207Y9470769D01*
X57062457Y9388888D01*
X57050452Y9321564D01*
X56967409Y8853771D01*
X56843613Y8851461D01*
X56719817Y8849150D01*
X56724282Y8868116D01*
X56726474Y8878795D01*
X56731636Y8904696D01*
X56739546Y8944694D01*
X56749983Y8997666D01*
X56762728Y9062486D01*
X56777560Y9138029D01*
X56794257Y9223170D01*
X56812598Y9316785D01*
X56832364Y9417749D01*
X56853333Y9524937D01*
X56875285Y9637224D01*
X56889383Y9709377D01*
X56911779Y9823667D01*
X56933363Y9933126D01*
X56953914Y10036674D01*
X56973213Y10133229D01*
X56991038Y10221711D01*
X57007169Y10301040D01*
X57021386Y10370134D01*
X57033467Y10427914D01*
X57043193Y10473298D01*
X57050343Y10505206D01*
X57054696Y10522557D01*
X57055932Y10525508D01*
X57060163Y10517078D01*
G36*
X47631963Y10443441D02*
G01*
X47697701Y10435941D01*
X47751874Y10424829D01*
X47809741Y10405417D01*
X47873047Y10378332D01*
X47935599Y10346599D01*
X47991204Y10313240D01*
X48015505Y10296114D01*
X48081655Y10240106D01*
X48144799Y10175380D01*
X48201920Y10105646D01*
X48250004Y10034615D01*
X48286037Y9965998D01*
X48288681Y9959842D01*
X48309891Y9906727D01*
X48325510Y9859870D01*
X48336337Y9814875D01*
X48343168Y9767343D01*
X48346802Y9712879D01*
X48348036Y9647084D01*
X48348065Y9632426D01*
X48347807Y9576605D01*
X48346814Y9533801D01*
X48344759Y9500380D01*
X48341315Y9472708D01*
X48336155Y9447152D01*
X48328952Y9420077D01*
X48328949Y9420066D01*
X48290309Y9314743D01*
X48237356Y9215753D01*
X48171584Y9124601D01*
X48094486Y9042791D01*
X48007558Y8971828D01*
X47912292Y8913215D01*
X47810182Y8868457D01*
X47767496Y8854694D01*
X47665893Y8832375D01*
X47558945Y8821820D01*
X47453704Y8823672D01*
X47440043Y8824904D01*
X47359644Y8836624D01*
X47285680Y8856060D01*
X47210483Y8885357D01*
X47189470Y8895002D01*
X47114528Y8933606D01*
X47050040Y8974767D01*
X46989897Y9022796D01*
X46936189Y9073687D01*
X46861912Y9159304D01*
X46802755Y9251526D01*
X46758607Y9350652D01*
X46729355Y9456983D01*
X46714888Y9570818D01*
X46714047Y9662375D01*
X46954024Y9662375D01*
X46955558Y9608483D01*
X46962917Y9522435D01*
X46977976Y9448256D01*
X47002298Y9382330D01*
X47037448Y9321042D01*
X47084990Y9260777D01*
X47123524Y9220197D01*
X47189940Y9159925D01*
X47254652Y9113942D01*
X47320716Y9080574D01*
X47391186Y9058147D01*
X47435081Y9049525D01*
X47478375Y9045664D01*
X47531562Y9045344D01*
X47588338Y9048235D01*
X47642397Y9054001D01*
X47687433Y9062311D01*
X47690164Y9063000D01*
X47770671Y9091966D01*
X47847641Y9135305D01*
X47918692Y9190772D01*
X47981441Y9256123D01*
X48033506Y9329116D01*
X48072505Y9407505D01*
X48081130Y9431225D01*
X48106285Y9532381D01*
X48114885Y9634483D01*
X48106930Y9736651D01*
X48082421Y9838003D01*
X48081031Y9842224D01*
X48047057Y9920295D01*
X47999478Y9994660D01*
X47941047Y10062155D01*
X47874515Y10119615D01*
X47802637Y10163874D01*
X47800301Y10165026D01*
X47742631Y10190942D01*
X47690356Y10208541D01*
X47637459Y10219191D01*
X47577927Y10224262D01*
X47535918Y10225199D01*
X47443837Y10220510D01*
X47361612Y10204561D01*
X47285899Y10176246D01*
X47213353Y10134460D01*
X47173836Y10105528D01*
X47109983Y10046074D01*
X47053991Y9975390D01*
X47008347Y9897383D01*
X46975534Y9815961D01*
X46965208Y9777429D01*
X46958549Y9741602D01*
X46954921Y9705000D01*
X46954024Y9662375D01*
X46714047Y9662375D01*
X46713977Y9669902D01*
X46725303Y9784299D01*
X46750326Y9890145D01*
X46789633Y9988717D01*
X46843812Y10081292D01*
X46913452Y10169145D01*
X46971283Y10228109D01*
X47061691Y10302882D01*
X47158213Y10362245D01*
X47261389Y10406482D01*
X47361129Y10433755D01*
X47419675Y10442365D01*
X47487777Y10446771D01*
X47560264Y10447090D01*
X47631963Y10443441D01*
G37*
X47631963Y10443441D02*
X47697701Y10435941D01*
X47751874Y10424829D01*
X47809741Y10405417D01*
X47873047Y10378332D01*
X47935599Y10346599D01*
X47991204Y10313240D01*
X48015505Y10296114D01*
X48081655Y10240106D01*
X48144799Y10175380D01*
X48201920Y10105646D01*
X48250004Y10034615D01*
X48286037Y9965998D01*
X48288681Y9959842D01*
X48309891Y9906727D01*
X48325510Y9859870D01*
X48336337Y9814875D01*
X48343168Y9767343D01*
X48346802Y9712879D01*
X48348036Y9647084D01*
X48348065Y9632426D01*
X48347807Y9576605D01*
X48346814Y9533801D01*
X48344759Y9500380D01*
X48341315Y9472708D01*
X48336155Y9447152D01*
X48328952Y9420077D01*
X48328949Y9420066D01*
X48290309Y9314743D01*
X48237356Y9215753D01*
X48171584Y9124601D01*
X48094486Y9042791D01*
X48007558Y8971828D01*
X47912292Y8913215D01*
X47810182Y8868457D01*
X47767496Y8854694D01*
X47665893Y8832375D01*
X47558945Y8821820D01*
X47453704Y8823672D01*
X47440043Y8824904D01*
X47359644Y8836624D01*
X47285680Y8856060D01*
X47210483Y8885357D01*
X47189470Y8895002D01*
X47114528Y8933606D01*
X47050040Y8974767D01*
X46989897Y9022796D01*
X46936189Y9073687D01*
X46861912Y9159304D01*
X46802755Y9251526D01*
X46758607Y9350652D01*
X46729355Y9456983D01*
X46714888Y9570818D01*
X46714047Y9662375D01*
X46954024Y9662375D01*
X46955558Y9608483D01*
X46962917Y9522435D01*
X46977976Y9448256D01*
X47002298Y9382330D01*
X47037448Y9321042D01*
X47084990Y9260777D01*
X47123524Y9220197D01*
X47189940Y9159925D01*
X47254652Y9113942D01*
X47320716Y9080574D01*
X47391186Y9058147D01*
X47435081Y9049525D01*
X47478375Y9045664D01*
X47531562Y9045344D01*
X47588338Y9048235D01*
X47642397Y9054001D01*
X47687433Y9062311D01*
X47690164Y9063000D01*
X47770671Y9091966D01*
X47847641Y9135305D01*
X47918692Y9190772D01*
X47981441Y9256123D01*
X48033506Y9329116D01*
X48072505Y9407505D01*
X48081130Y9431225D01*
X48106285Y9532381D01*
X48114885Y9634483D01*
X48106930Y9736651D01*
X48082421Y9838003D01*
X48081031Y9842224D01*
X48047057Y9920295D01*
X47999478Y9994660D01*
X47941047Y10062155D01*
X47874515Y10119615D01*
X47802637Y10163874D01*
X47800301Y10165026D01*
X47742631Y10190942D01*
X47690356Y10208541D01*
X47637459Y10219191D01*
X47577927Y10224262D01*
X47535918Y10225199D01*
X47443837Y10220510D01*
X47361612Y10204561D01*
X47285899Y10176246D01*
X47213353Y10134460D01*
X47173836Y10105528D01*
X47109983Y10046074D01*
X47053991Y9975390D01*
X47008347Y9897383D01*
X46975534Y9815961D01*
X46965208Y9777429D01*
X46958549Y9741602D01*
X46954921Y9705000D01*
X46954024Y9662375D01*
X46714047Y9662375D01*
X46713977Y9669902D01*
X46725303Y9784299D01*
X46750326Y9890145D01*
X46789633Y9988717D01*
X46843812Y10081292D01*
X46913452Y10169145D01*
X46971283Y10228109D01*
X47061691Y10302882D01*
X47158213Y10362245D01*
X47261389Y10406482D01*
X47361129Y10433755D01*
X47419675Y10442365D01*
X47487777Y10446771D01*
X47560264Y10447090D01*
X47631963Y10443441D01*
G36*
X52006586Y10438981D02*
G01*
X52084478Y10413184D01*
X52155893Y10372605D01*
X52221743Y10316942D01*
X52221947Y10316738D01*
X52242112Y10294818D01*
X52263630Y10268652D01*
X52284129Y10241532D01*
X52301236Y10216752D01*
X52312580Y10197606D01*
X52315789Y10187387D01*
X52315475Y10186876D01*
X52307273Y10181492D01*
X52288060Y10169774D01*
X52261218Y10153767D01*
X52245508Y10144511D01*
X52212519Y10125090D01*
X52181936Y10106977D01*
X52158787Y10093156D01*
X52152975Y10089643D01*
X52127065Y10073874D01*
X52097160Y10118915D01*
X52060572Y10165093D01*
X52020150Y10197205D01*
X51972898Y10216777D01*
X51915821Y10225336D01*
X51887032Y10226008D01*
X51822432Y10218725D01*
X51766592Y10198019D01*
X51720511Y10164290D01*
X51712222Y10155651D01*
X51686318Y10122648D01*
X51671700Y10090782D01*
X51665631Y10052979D01*
X51664972Y10033568D01*
X51669498Y9994334D01*
X51684708Y9958885D01*
X51711777Y9926101D01*
X51751879Y9894863D01*
X51806190Y9864050D01*
X51875836Y9832563D01*
X51965982Y9794157D01*
X52041880Y9759258D01*
X52105266Y9726704D01*
X52157878Y9695330D01*
X52201454Y9663972D01*
X52237733Y9631468D01*
X52268451Y9596652D01*
X52295348Y9558361D01*
X52302410Y9546893D01*
X52330976Y9488411D01*
X52348768Y9424750D01*
X52356474Y9352654D01*
X52356108Y9292463D01*
X52347792Y9211109D01*
X52329718Y9140081D01*
X52300592Y9075360D01*
X52271531Y9029678D01*
X52212554Y8960554D01*
X52144306Y8905100D01*
X52067375Y8863562D01*
X51982352Y8836190D01*
X51889826Y8823228D01*
X51790388Y8824925D01*
X51784451Y8825476D01*
X51697432Y8841889D01*
X51617225Y8873097D01*
X51545168Y8918165D01*
X51482597Y8976158D01*
X51430849Y9046141D01*
X51407716Y9088924D01*
X51396036Y9116408D01*
X51383907Y9150049D01*
X51372391Y9186125D01*
X51362551Y9220913D01*
X51355451Y9250691D01*
X51352155Y9271737D01*
X51353142Y9279984D01*
X51362057Y9282954D01*
X51383640Y9288567D01*
X51414265Y9295996D01*
X51450310Y9304418D01*
X51488150Y9313007D01*
X51524162Y9320939D01*
X51554721Y9327387D01*
X51576204Y9331527D01*
X51584349Y9332623D01*
X51589205Y9325254D01*
X51594406Y9306708D01*
X51596204Y9297230D01*
X51612955Y9224833D01*
X51637248Y9166221D01*
X51670029Y9119885D01*
X51712243Y9084317D01*
X51739225Y9069090D01*
X51766257Y9057134D01*
X51790906Y9050132D01*
X51819543Y9046843D01*
X51857683Y9046029D01*
X51919594Y9050327D01*
X51970622Y9064249D01*
X52014413Y9089282D01*
X52053625Y9125805D01*
X52087878Y9175205D01*
X52109573Y9231112D01*
X52118691Y9290312D01*
X52115213Y9349592D01*
X52099121Y9405739D01*
X52070397Y9455539D01*
X52055622Y9472697D01*
X52029476Y9496174D01*
X51995622Y9519697D01*
X51952063Y9544381D01*
X51896801Y9571346D01*
X51827840Y9601709D01*
X51816621Y9606445D01*
X51745584Y9637277D01*
X51687692Y9664856D01*
X51640164Y9690808D01*
X51600221Y9716758D01*
X51565084Y9744334D01*
X51537359Y9769836D01*
X51486329Y9829923D01*
X51450269Y9894272D01*
X51428531Y9961366D01*
X51420464Y10029687D01*
X51425418Y10097719D01*
X51442743Y10163945D01*
X51471789Y10226848D01*
X51511906Y10284911D01*
X51562444Y10336617D01*
X51622753Y10380449D01*
X51692182Y10414890D01*
X51770083Y10438423D01*
X51827721Y10447438D01*
X51921305Y10450298D01*
X52006586Y10438981D01*
G37*
X52006586Y10438981D02*
X52084478Y10413184D01*
X52155893Y10372605D01*
X52221743Y10316942D01*
X52221947Y10316738D01*
X52242112Y10294818D01*
X52263630Y10268652D01*
X52284129Y10241532D01*
X52301236Y10216752D01*
X52312580Y10197606D01*
X52315789Y10187387D01*
X52315475Y10186876D01*
X52307273Y10181492D01*
X52288060Y10169774D01*
X52261218Y10153767D01*
X52245508Y10144511D01*
X52212519Y10125090D01*
X52181936Y10106977D01*
X52158787Y10093156D01*
X52152975Y10089643D01*
X52127065Y10073874D01*
X52097160Y10118915D01*
X52060572Y10165093D01*
X52020150Y10197205D01*
X51972898Y10216777D01*
X51915821Y10225336D01*
X51887032Y10226008D01*
X51822432Y10218725D01*
X51766592Y10198019D01*
X51720511Y10164290D01*
X51712222Y10155651D01*
X51686318Y10122648D01*
X51671700Y10090782D01*
X51665631Y10052979D01*
X51664972Y10033568D01*
X51669498Y9994334D01*
X51684708Y9958885D01*
X51711777Y9926101D01*
X51751879Y9894863D01*
X51806190Y9864050D01*
X51875836Y9832563D01*
X51965982Y9794157D01*
X52041880Y9759258D01*
X52105266Y9726704D01*
X52157878Y9695330D01*
X52201454Y9663972D01*
X52237733Y9631468D01*
X52268451Y9596652D01*
X52295348Y9558361D01*
X52302410Y9546893D01*
X52330976Y9488411D01*
X52348768Y9424750D01*
X52356474Y9352654D01*
X52356108Y9292463D01*
X52347792Y9211109D01*
X52329718Y9140081D01*
X52300592Y9075360D01*
X52271531Y9029678D01*
X52212554Y8960554D01*
X52144306Y8905100D01*
X52067375Y8863562D01*
X51982352Y8836190D01*
X51889826Y8823228D01*
X51790388Y8824925D01*
X51784451Y8825476D01*
X51697432Y8841889D01*
X51617225Y8873097D01*
X51545168Y8918165D01*
X51482597Y8976158D01*
X51430849Y9046141D01*
X51407716Y9088924D01*
X51396036Y9116408D01*
X51383907Y9150049D01*
X51372391Y9186125D01*
X51362551Y9220913D01*
X51355451Y9250691D01*
X51352155Y9271737D01*
X51353142Y9279984D01*
X51362057Y9282954D01*
X51383640Y9288567D01*
X51414265Y9295996D01*
X51450310Y9304418D01*
X51488150Y9313007D01*
X51524162Y9320939D01*
X51554721Y9327387D01*
X51576204Y9331527D01*
X51584349Y9332623D01*
X51589205Y9325254D01*
X51594406Y9306708D01*
X51596204Y9297230D01*
X51612955Y9224833D01*
X51637248Y9166221D01*
X51670029Y9119885D01*
X51712243Y9084317D01*
X51739225Y9069090D01*
X51766257Y9057134D01*
X51790906Y9050132D01*
X51819543Y9046843D01*
X51857683Y9046029D01*
X51919594Y9050327D01*
X51970622Y9064249D01*
X52014413Y9089282D01*
X52053625Y9125805D01*
X52087878Y9175205D01*
X52109573Y9231112D01*
X52118691Y9290312D01*
X52115213Y9349592D01*
X52099121Y9405739D01*
X52070397Y9455539D01*
X52055622Y9472697D01*
X52029476Y9496174D01*
X51995622Y9519697D01*
X51952063Y9544381D01*
X51896801Y9571346D01*
X51827840Y9601709D01*
X51816621Y9606445D01*
X51745584Y9637277D01*
X51687692Y9664856D01*
X51640164Y9690808D01*
X51600221Y9716758D01*
X51565084Y9744334D01*
X51537359Y9769836D01*
X51486329Y9829923D01*
X51450269Y9894272D01*
X51428531Y9961366D01*
X51420464Y10029687D01*
X51425418Y10097719D01*
X51442743Y10163945D01*
X51471789Y10226848D01*
X51511906Y10284911D01*
X51562444Y10336617D01*
X51622753Y10380449D01*
X51692182Y10414890D01*
X51770083Y10438423D01*
X51827721Y10447438D01*
X51921305Y10450298D01*
X52006586Y10438981D01*
G36*
X56459197Y10323725D02*
G01*
X56374534Y10238322D01*
X56289870Y10152918D01*
X56323373Y10107115D01*
X56381973Y10013164D01*
X56426598Y9911714D01*
X56456941Y9804781D01*
X56472698Y9694378D01*
X56473565Y9582521D01*
X56459237Y9471224D01*
X56433967Y9375798D01*
X56402352Y9293935D01*
X56364074Y9221187D01*
X56315653Y9151434D01*
X56285498Y9114532D01*
X56201484Y9028222D01*
X56109776Y8956604D01*
X56010953Y8899914D01*
X55905597Y8858389D01*
X55794288Y8832267D01*
X55677609Y8821785D01*
X55576655Y8825172D01*
X55472448Y8840676D01*
X55374499Y8869042D01*
X55341815Y8881772D01*
X55296734Y8902188D01*
X55249202Y8926613D01*
X55204523Y8952113D01*
X55167999Y8975758D01*
X55156972Y8983953D01*
X55136283Y9000226D01*
X54968383Y8832898D01*
X54902443Y8899227D01*
X54836502Y8965557D01*
X54917966Y9049509D01*
X54950067Y9082782D01*
X54971992Y9106418D01*
X54985241Y9122663D01*
X54991312Y9133762D01*
X54991702Y9141959D01*
X54987911Y9149499D01*
X54986270Y9151846D01*
X54983712Y9156030D01*
X55311219Y9156030D01*
X55321169Y9148350D01*
X55342673Y9135984D01*
X55371967Y9120780D01*
X55405285Y9104588D01*
X55438863Y9089257D01*
X55468935Y9076637D01*
X55484823Y9070762D01*
X55561894Y9052126D01*
X55645990Y9044854D01*
X55731984Y9048917D01*
X55814746Y9064288D01*
X55842947Y9072646D01*
X55924668Y9108103D01*
X56000841Y9157750D01*
X56069573Y9219528D01*
X56128971Y9291376D01*
X56177143Y9371235D01*
X56212196Y9457047D01*
X56219578Y9482525D01*
X56229650Y9537338D01*
X56234456Y9601129D01*
X56234080Y9668024D01*
X56228611Y9732150D01*
X56218135Y9787636D01*
X56214895Y9798984D01*
X56203881Y9830421D01*
X56189443Y9865966D01*
X56173174Y9902340D01*
X56156670Y9936262D01*
X56141523Y9964452D01*
X56129329Y9983632D01*
X56121792Y9990525D01*
X56114516Y9984735D01*
X56096921Y9968147D01*
X56070145Y9941930D01*
X56035324Y9907256D01*
X55993594Y9865293D01*
X55946094Y9817213D01*
X55893959Y9764187D01*
X55838327Y9707384D01*
X55780334Y9647975D01*
X55721116Y9587129D01*
X55661812Y9526019D01*
X55603558Y9465814D01*
X55547490Y9407683D01*
X55494745Y9352799D01*
X55446461Y9302330D01*
X55403774Y9257448D01*
X55367820Y9219323D01*
X55339737Y9189125D01*
X55320662Y9168025D01*
X55311731Y9157193D01*
X55311219Y9156030D01*
X54983712Y9156030D01*
X54927376Y9248152D01*
X54882640Y9351715D01*
X54852332Y9460595D01*
X54836724Y9572849D01*
X54836260Y9655694D01*
X55075219Y9655694D01*
X55076180Y9578223D01*
X55080311Y9542125D01*
X55090225Y9495884D01*
X55105606Y9443988D01*
X55124304Y9392572D01*
X55144167Y9347775D01*
X55155935Y9326323D01*
X55172575Y9299203D01*
X55383298Y9513700D01*
X55443670Y9575225D01*
X55510732Y9643691D01*
X55580967Y9715499D01*
X55650857Y9787050D01*
X55716885Y9854744D01*
X55775532Y9914982D01*
X55787350Y9927139D01*
X55844063Y9985843D01*
X55889514Y10033692D01*
X55924378Y10071449D01*
X55949327Y10099874D01*
X55965036Y10119731D01*
X55972179Y10131780D01*
X55972296Y10136182D01*
X55958535Y10146383D01*
X55933066Y10160020D01*
X55899992Y10175286D01*
X55863414Y10190375D01*
X55827434Y10203480D01*
X55801508Y10211410D01*
X55760059Y10219031D01*
X55707847Y10223491D01*
X55650465Y10224788D01*
X55593503Y10222918D01*
X55542554Y10217876D01*
X55510032Y10211598D01*
X55420805Y10179914D01*
X55338292Y10133999D01*
X55264184Y10075501D01*
X55200174Y10006068D01*
X55147953Y9927348D01*
X55109213Y9840991D01*
X55099936Y9811998D01*
X55083309Y9735970D01*
X55075219Y9655694D01*
X54836260Y9655694D01*
X54836086Y9686538D01*
X54850690Y9799720D01*
X54880425Y9909359D01*
X54922511Y10005925D01*
X54979119Y10097219D01*
X55048524Y10181628D01*
X55128998Y10257538D01*
X55218817Y10323335D01*
X55316253Y10377405D01*
X55419581Y10418135D01*
X55427267Y10420530D01*
X55454951Y10428680D01*
X55479079Y10434625D01*
X55503130Y10438715D01*
X55530584Y10441300D01*
X55564919Y10442729D01*
X55609613Y10443353D01*
X55655770Y10443508D01*
X55711285Y10443431D01*
X55753594Y10442811D01*
X55786144Y10441306D01*
X55812384Y10438576D01*
X55835761Y10434281D01*
X55859724Y10428082D01*
X55883024Y10421094D01*
X55952578Y10396146D01*
X56022236Y10364972D01*
X56085339Y10330699D01*
X56112631Y10313188D01*
X56148934Y10288276D01*
X56235510Y10374556D01*
X56322085Y10460837D01*
X56459197Y10323725D01*
G37*
X56459197Y10323725D02*
X56374534Y10238322D01*
X56289870Y10152918D01*
X56323373Y10107115D01*
X56381973Y10013164D01*
X56426598Y9911714D01*
X56456941Y9804781D01*
X56472698Y9694378D01*
X56473565Y9582521D01*
X56459237Y9471224D01*
X56433967Y9375798D01*
X56402352Y9293935D01*
X56364074Y9221187D01*
X56315653Y9151434D01*
X56285498Y9114532D01*
X56201484Y9028222D01*
X56109776Y8956604D01*
X56010953Y8899914D01*
X55905597Y8858389D01*
X55794288Y8832267D01*
X55677609Y8821785D01*
X55576655Y8825172D01*
X55472448Y8840676D01*
X55374499Y8869042D01*
X55341815Y8881772D01*
X55296734Y8902188D01*
X55249202Y8926613D01*
X55204523Y8952113D01*
X55167999Y8975758D01*
X55156972Y8983953D01*
X55136283Y9000226D01*
X54968383Y8832898D01*
X54902443Y8899227D01*
X54836502Y8965557D01*
X54917966Y9049509D01*
X54950067Y9082782D01*
X54971992Y9106418D01*
X54985241Y9122663D01*
X54991312Y9133762D01*
X54991702Y9141959D01*
X54987911Y9149499D01*
X54986270Y9151846D01*
X54983712Y9156030D01*
X55311219Y9156030D01*
X55321169Y9148350D01*
X55342673Y9135984D01*
X55371967Y9120780D01*
X55405285Y9104588D01*
X55438863Y9089257D01*
X55468935Y9076637D01*
X55484823Y9070762D01*
X55561894Y9052126D01*
X55645990Y9044854D01*
X55731984Y9048917D01*
X55814746Y9064288D01*
X55842947Y9072646D01*
X55924668Y9108103D01*
X56000841Y9157750D01*
X56069573Y9219528D01*
X56128971Y9291376D01*
X56177143Y9371235D01*
X56212196Y9457047D01*
X56219578Y9482525D01*
X56229650Y9537338D01*
X56234456Y9601129D01*
X56234080Y9668024D01*
X56228611Y9732150D01*
X56218135Y9787636D01*
X56214895Y9798984D01*
X56203881Y9830421D01*
X56189443Y9865966D01*
X56173174Y9902340D01*
X56156670Y9936262D01*
X56141523Y9964452D01*
X56129329Y9983632D01*
X56121792Y9990525D01*
X56114516Y9984735D01*
X56096921Y9968147D01*
X56070145Y9941930D01*
X56035324Y9907256D01*
X55993594Y9865293D01*
X55946094Y9817213D01*
X55893959Y9764187D01*
X55838327Y9707384D01*
X55780334Y9647975D01*
X55721116Y9587129D01*
X55661812Y9526019D01*
X55603558Y9465814D01*
X55547490Y9407683D01*
X55494745Y9352799D01*
X55446461Y9302330D01*
X55403774Y9257448D01*
X55367820Y9219323D01*
X55339737Y9189125D01*
X55320662Y9168025D01*
X55311731Y9157193D01*
X55311219Y9156030D01*
X54983712Y9156030D01*
X54927376Y9248152D01*
X54882640Y9351715D01*
X54852332Y9460595D01*
X54836724Y9572849D01*
X54836260Y9655694D01*
X55075219Y9655694D01*
X55076180Y9578223D01*
X55080311Y9542125D01*
X55090225Y9495884D01*
X55105606Y9443988D01*
X55124304Y9392572D01*
X55144167Y9347775D01*
X55155935Y9326323D01*
X55172575Y9299203D01*
X55383298Y9513700D01*
X55443670Y9575225D01*
X55510732Y9643691D01*
X55580967Y9715499D01*
X55650857Y9787050D01*
X55716885Y9854744D01*
X55775532Y9914982D01*
X55787350Y9927139D01*
X55844063Y9985843D01*
X55889514Y10033692D01*
X55924378Y10071449D01*
X55949327Y10099874D01*
X55965036Y10119731D01*
X55972179Y10131780D01*
X55972296Y10136182D01*
X55958535Y10146383D01*
X55933066Y10160020D01*
X55899992Y10175286D01*
X55863414Y10190375D01*
X55827434Y10203480D01*
X55801508Y10211410D01*
X55760059Y10219031D01*
X55707847Y10223491D01*
X55650465Y10224788D01*
X55593503Y10222918D01*
X55542554Y10217876D01*
X55510032Y10211598D01*
X55420805Y10179914D01*
X55338292Y10133999D01*
X55264184Y10075501D01*
X55200174Y10006068D01*
X55147953Y9927348D01*
X55109213Y9840991D01*
X55099936Y9811998D01*
X55083309Y9735970D01*
X55075219Y9655694D01*
X54836260Y9655694D01*
X54836086Y9686538D01*
X54850690Y9799720D01*
X54880425Y9909359D01*
X54922511Y10005925D01*
X54979119Y10097219D01*
X55048524Y10181628D01*
X55128998Y10257538D01*
X55218817Y10323335D01*
X55316253Y10377405D01*
X55419581Y10418135D01*
X55427267Y10420530D01*
X55454951Y10428680D01*
X55479079Y10434625D01*
X55503130Y10438715D01*
X55530584Y10441300D01*
X55564919Y10442729D01*
X55609613Y10443353D01*
X55655770Y10443508D01*
X55711285Y10443431D01*
X55753594Y10442811D01*
X55786144Y10441306D01*
X55812384Y10438576D01*
X55835761Y10434281D01*
X55859724Y10428082D01*
X55883024Y10421094D01*
X55952578Y10396146D01*
X56022236Y10364972D01*
X56085339Y10330699D01*
X56112631Y10313188D01*
X56148934Y10288276D01*
X56235510Y10374556D01*
X56322085Y10460837D01*
X56459197Y10323725D01*
G36*
X48808180Y10423503D02*
G01*
X48917952Y10422213D01*
X49012952Y10418175D01*
X49094899Y10410980D01*
X49165511Y10400215D01*
X49226509Y10385470D01*
X49279611Y10366332D01*
X49326536Y10342392D01*
X49369003Y10313237D01*
X49406820Y10280301D01*
X49458821Y10219492D01*
X49498535Y10149878D01*
X49523901Y10075152D01*
X49525651Y10067148D01*
X49533873Y10001765D01*
X49533565Y9931627D01*
X49525295Y9862034D01*
X49509634Y9798285D01*
X49492137Y9755000D01*
X49449798Y9687081D01*
X49396812Y9628058D01*
X49335786Y9580258D01*
X49269329Y9546010D01*
X49250348Y9539245D01*
X49222919Y9529142D01*
X49203642Y9519587D01*
X49196210Y9512453D01*
X49196310Y9511790D01*
X49201757Y9503442D01*
X49216040Y9482980D01*
X49238190Y9451755D01*
X49267239Y9411118D01*
X49302220Y9362419D01*
X49342163Y9307010D01*
X49386100Y9246241D01*
X49433064Y9181463D01*
X49433888Y9180329D01*
X49480750Y9115698D01*
X49524484Y9055219D01*
X49564140Y9000219D01*
X49598769Y8952021D01*
X49627423Y8911949D01*
X49649150Y8881330D01*
X49663001Y8861486D01*
X49668028Y8853742D01*
X49668032Y8853710D01*
X49660152Y8852399D01*
X49638302Y8851317D01*
X49605164Y8850532D01*
X49563425Y8850112D01*
X49524377Y8850087D01*
X49380721Y8850568D01*
X49159969Y9168628D01*
X49107532Y9244041D01*
X49063621Y9306818D01*
X49027382Y9358085D01*
X48997959Y9398969D01*
X48974496Y9430596D01*
X48956139Y9454092D01*
X48942032Y9470584D01*
X48931319Y9481196D01*
X48923145Y9487056D01*
X48916655Y9489289D01*
X48916379Y9489324D01*
X48893541Y9491959D01*
X48893541Y8849607D01*
X48652032Y8849607D01*
X48652032Y9696574D01*
X48893541Y9696574D01*
X48987229Y9701387D01*
X49054960Y9707290D01*
X49112649Y9717252D01*
X49137657Y9723941D01*
X49196082Y9748753D01*
X49240961Y9782817D01*
X49272895Y9826925D01*
X49292486Y9881869D01*
X49299873Y9937500D01*
X49297812Y10004448D01*
X49283390Y10060585D01*
X49256217Y10106682D01*
X49215898Y10143514D01*
X49186380Y10160914D01*
X49146117Y10176045D01*
X49093902Y10187891D01*
X49034249Y10195664D01*
X48971673Y10198574D01*
X48970573Y10198577D01*
X48893541Y10198721D01*
X48893541Y9696574D01*
X48652032Y9696574D01*
X48652032Y10423574D01*
X48808180Y10423503D01*
G37*
X48808180Y10423503D02*
X48917952Y10422213D01*
X49012952Y10418175D01*
X49094899Y10410980D01*
X49165511Y10400215D01*
X49226509Y10385470D01*
X49279611Y10366332D01*
X49326536Y10342392D01*
X49369003Y10313237D01*
X49406820Y10280301D01*
X49458821Y10219492D01*
X49498535Y10149878D01*
X49523901Y10075152D01*
X49525651Y10067148D01*
X49533873Y10001765D01*
X49533565Y9931627D01*
X49525295Y9862034D01*
X49509634Y9798285D01*
X49492137Y9755000D01*
X49449798Y9687081D01*
X49396812Y9628058D01*
X49335786Y9580258D01*
X49269329Y9546010D01*
X49250348Y9539245D01*
X49222919Y9529142D01*
X49203642Y9519587D01*
X49196210Y9512453D01*
X49196310Y9511790D01*
X49201757Y9503442D01*
X49216040Y9482980D01*
X49238190Y9451755D01*
X49267239Y9411118D01*
X49302220Y9362419D01*
X49342163Y9307010D01*
X49386100Y9246241D01*
X49433064Y9181463D01*
X49433888Y9180329D01*
X49480750Y9115698D01*
X49524484Y9055219D01*
X49564140Y9000219D01*
X49598769Y8952021D01*
X49627423Y8911949D01*
X49649150Y8881330D01*
X49663001Y8861486D01*
X49668028Y8853742D01*
X49668032Y8853710D01*
X49660152Y8852399D01*
X49638302Y8851317D01*
X49605164Y8850532D01*
X49563425Y8850112D01*
X49524377Y8850087D01*
X49380721Y8850568D01*
X49159969Y9168628D01*
X49107532Y9244041D01*
X49063621Y9306818D01*
X49027382Y9358085D01*
X48997959Y9398969D01*
X48974496Y9430596D01*
X48956139Y9454092D01*
X48942032Y9470584D01*
X48931319Y9481196D01*
X48923145Y9487056D01*
X48916655Y9489289D01*
X48916379Y9489324D01*
X48893541Y9491959D01*
X48893541Y8849607D01*
X48652032Y8849607D01*
X48652032Y9696574D01*
X48893541Y9696574D01*
X48987229Y9701387D01*
X49054960Y9707290D01*
X49112649Y9717252D01*
X49137657Y9723941D01*
X49196082Y9748753D01*
X49240961Y9782817D01*
X49272895Y9826925D01*
X49292486Y9881869D01*
X49299873Y9937500D01*
X49297812Y10004448D01*
X49283390Y10060585D01*
X49256217Y10106682D01*
X49215898Y10143514D01*
X49186380Y10160914D01*
X49146117Y10176045D01*
X49093902Y10187891D01*
X49034249Y10195664D01*
X48971673Y10198574D01*
X48970573Y10198577D01*
X48893541Y10198721D01*
X48893541Y9696574D01*
X48652032Y9696574D01*
X48652032Y10423574D01*
X48808180Y10423503D01*
G36*
X50222770Y10422739D02*
G01*
X50314830Y10420055D01*
X50394635Y10415253D01*
X50464346Y10408064D01*
X50526125Y10398220D01*
X50582136Y10385452D01*
X50634539Y10369491D01*
X50675879Y10354016D01*
X50730525Y10329346D01*
X50779614Y10300911D01*
X50827339Y10265796D01*
X50877894Y10221084D01*
X50905202Y10194558D01*
X50961745Y10134515D01*
X51006856Y10076949D01*
X51042832Y10017725D01*
X51071966Y9952706D01*
X51096553Y9877756D01*
X51110538Y9824410D01*
X51122701Y9754457D01*
X51128425Y9674949D01*
X51127783Y9591662D01*
X51120848Y9510372D01*
X51107691Y9436854D01*
X51105585Y9428394D01*
X51070067Y9322435D01*
X51020813Y9224367D01*
X50958972Y9135367D01*
X50885696Y9056615D01*
X50802134Y8989290D01*
X50709436Y8934572D01*
X50608752Y8893639D01*
X50574009Y8883368D01*
X50531297Y8873297D01*
X50484517Y8865248D01*
X50431522Y8859058D01*
X50370166Y8854563D01*
X50298302Y8851601D01*
X50213783Y8850007D01*
X50130557Y8849607D01*
X49909541Y8849607D01*
X49909541Y9074459D01*
X50151049Y9074459D01*
X50265557Y9074569D01*
X50343504Y9076544D01*
X50409265Y9082533D01*
X50455016Y9090269D01*
X50547100Y9116552D01*
X50628643Y9155261D01*
X50701072Y9207238D01*
X50765814Y9273328D01*
X50766692Y9274381D01*
X50814834Y9341049D01*
X50849981Y9410878D01*
X50873083Y9486721D01*
X50885091Y9571431D01*
X50887404Y9636590D01*
X50882257Y9730694D01*
X50866154Y9814014D01*
X50838099Y9889115D01*
X50797098Y9958561D01*
X50742158Y10024917D01*
X50733235Y10034170D01*
X50680552Y10081727D01*
X50624020Y10119901D01*
X50561394Y10149493D01*
X50490432Y10171303D01*
X50408888Y10186131D01*
X50314518Y10194779D01*
X50278049Y10196493D01*
X50151049Y10201231D01*
X50151049Y9074459D01*
X49909541Y9074459D01*
X49909541Y10423574D01*
X50116291Y10423574D01*
X50222770Y10422739D01*
G37*
X50222770Y10422739D02*
X50314830Y10420055D01*
X50394635Y10415253D01*
X50464346Y10408064D01*
X50526125Y10398220D01*
X50582136Y10385452D01*
X50634539Y10369491D01*
X50675879Y10354016D01*
X50730525Y10329346D01*
X50779614Y10300911D01*
X50827339Y10265796D01*
X50877894Y10221084D01*
X50905202Y10194558D01*
X50961745Y10134515D01*
X51006856Y10076949D01*
X51042832Y10017725D01*
X51071966Y9952706D01*
X51096553Y9877756D01*
X51110538Y9824410D01*
X51122701Y9754457D01*
X51128425Y9674949D01*
X51127783Y9591662D01*
X51120848Y9510372D01*
X51107691Y9436854D01*
X51105585Y9428394D01*
X51070067Y9322435D01*
X51020813Y9224367D01*
X50958972Y9135367D01*
X50885696Y9056615D01*
X50802134Y8989290D01*
X50709436Y8934572D01*
X50608752Y8893639D01*
X50574009Y8883368D01*
X50531297Y8873297D01*
X50484517Y8865248D01*
X50431522Y8859058D01*
X50370166Y8854563D01*
X50298302Y8851601D01*
X50213783Y8850007D01*
X50130557Y8849607D01*
X49909541Y8849607D01*
X49909541Y9074459D01*
X50151049Y9074459D01*
X50265557Y9074569D01*
X50343504Y9076544D01*
X50409265Y9082533D01*
X50455016Y9090269D01*
X50547100Y9116552D01*
X50628643Y9155261D01*
X50701072Y9207238D01*
X50765814Y9273328D01*
X50766692Y9274381D01*
X50814834Y9341049D01*
X50849981Y9410878D01*
X50873083Y9486721D01*
X50885091Y9571431D01*
X50887404Y9636590D01*
X50882257Y9730694D01*
X50866154Y9814014D01*
X50838099Y9889115D01*
X50797098Y9958561D01*
X50742158Y10024917D01*
X50733235Y10034170D01*
X50680552Y10081727D01*
X50624020Y10119901D01*
X50561394Y10149493D01*
X50490432Y10171303D01*
X50408888Y10186131D01*
X50314518Y10194779D01*
X50278049Y10196493D01*
X50151049Y10201231D01*
X50151049Y9074459D01*
X49909541Y9074459D01*
X49909541Y10423574D01*
X50116291Y10423574D01*
X50222770Y10422739D01*
G36*
X53440557Y10198721D02*
G01*
X53082459Y10198721D01*
X53082459Y8849607D01*
X52840950Y8849607D01*
X52840950Y10198721D01*
X52482852Y10198721D01*
X52482852Y10423574D01*
X53440557Y10423574D01*
X53440557Y10198721D01*
G37*
X53440557Y10198721D02*
X53082459Y10198721D01*
X53082459Y8849607D01*
X52840950Y8849607D01*
X52840950Y10198721D01*
X52482852Y10198721D01*
X52482852Y10423574D01*
X53440557Y10423574D01*
X53440557Y10198721D01*
G36*
X53813229Y10423293D02*
G01*
X53929975Y10421432D01*
X54031792Y10415988D01*
X54120113Y10406503D01*
X54196369Y10392516D01*
X54261991Y10373567D01*
X54318413Y10349197D01*
X54367065Y10318946D01*
X54409380Y10282353D01*
X54446790Y10238959D01*
X54464377Y10214157D01*
X54501459Y10144171D01*
X54525322Y10067111D01*
X54535952Y9986048D01*
X54533340Y9904053D01*
X54517473Y9824198D01*
X54488340Y9749555D01*
X54466239Y9711195D01*
X54418994Y9650980D01*
X54363099Y9599619D01*
X54301829Y9559638D01*
X54238460Y9533558D01*
X54234170Y9532357D01*
X54210703Y9525767D01*
X54195092Y9520968D01*
X54191723Y9519639D01*
X54196065Y9512892D01*
X54209051Y9494240D01*
X54229544Y9465258D01*
X54256408Y9427523D01*
X54288508Y9382612D01*
X54324708Y9332102D01*
X54363873Y9277569D01*
X54404866Y9220590D01*
X54446551Y9162741D01*
X54487794Y9105600D01*
X54527458Y9050743D01*
X54564407Y8999747D01*
X54597507Y8954188D01*
X54625620Y8915643D01*
X54647611Y8885689D01*
X54662345Y8865903D01*
X54666872Y8860017D01*
X54666715Y8856154D01*
X54658051Y8853324D01*
X54639107Y8851392D01*
X54608109Y8850224D01*
X54563284Y8849684D01*
X54529492Y8849607D01*
X54383864Y8849607D01*
X54160216Y9170230D01*
X54107866Y9245181D01*
X54064094Y9307558D01*
X54028026Y9358498D01*
X53998785Y9399138D01*
X53975497Y9430616D01*
X53957284Y9454071D01*
X53943272Y9470638D01*
X53932586Y9481457D01*
X53924348Y9487664D01*
X53917684Y9490397D01*
X53913415Y9490853D01*
X53890262Y9490853D01*
X53890262Y8849607D01*
X53657082Y8849607D01*
X53657082Y9696599D01*
X53890262Y9696599D01*
X53988114Y9701448D01*
X54031865Y9704581D01*
X54074148Y9709286D01*
X54109512Y9714868D01*
X54128863Y9719407D01*
X54189775Y9745171D01*
X54237812Y9781382D01*
X54273235Y9828243D01*
X54277320Y9835896D01*
X54290119Y9863039D01*
X54297679Y9886454D01*
X54301312Y9912474D01*
X54302332Y9947435D01*
X54302337Y9956650D01*
X54301213Y9997193D01*
X54297361Y10027063D01*
X54289749Y10052156D01*
X54282944Y10067377D01*
X54256177Y10108921D01*
X54220043Y10141710D01*
X54173181Y10166358D01*
X54114228Y10183478D01*
X54041825Y10193685D01*
X53996442Y10196547D01*
X53890262Y10200932D01*
X53890262Y9696599D01*
X53657082Y9696599D01*
X53657082Y10423574D01*
X53813229Y10423293D01*
G37*
X53813229Y10423293D02*
X53929975Y10421432D01*
X54031792Y10415988D01*
X54120113Y10406503D01*
X54196369Y10392516D01*
X54261991Y10373567D01*
X54318413Y10349197D01*
X54367065Y10318946D01*
X54409380Y10282353D01*
X54446790Y10238959D01*
X54464377Y10214157D01*
X54501459Y10144171D01*
X54525322Y10067111D01*
X54535952Y9986048D01*
X54533340Y9904053D01*
X54517473Y9824198D01*
X54488340Y9749555D01*
X54466239Y9711195D01*
X54418994Y9650980D01*
X54363099Y9599619D01*
X54301829Y9559638D01*
X54238460Y9533558D01*
X54234170Y9532357D01*
X54210703Y9525767D01*
X54195092Y9520968D01*
X54191723Y9519639D01*
X54196065Y9512892D01*
X54209051Y9494240D01*
X54229544Y9465258D01*
X54256408Y9427523D01*
X54288508Y9382612D01*
X54324708Y9332102D01*
X54363873Y9277569D01*
X54404866Y9220590D01*
X54446551Y9162741D01*
X54487794Y9105600D01*
X54527458Y9050743D01*
X54564407Y8999747D01*
X54597507Y8954188D01*
X54625620Y8915643D01*
X54647611Y8885689D01*
X54662345Y8865903D01*
X54666872Y8860017D01*
X54666715Y8856154D01*
X54658051Y8853324D01*
X54639107Y8851392D01*
X54608109Y8850224D01*
X54563284Y8849684D01*
X54529492Y8849607D01*
X54383864Y8849607D01*
X54160216Y9170230D01*
X54107866Y9245181D01*
X54064094Y9307558D01*
X54028026Y9358498D01*
X53998785Y9399138D01*
X53975497Y9430616D01*
X53957284Y9454071D01*
X53943272Y9470638D01*
X53932586Y9481457D01*
X53924348Y9487664D01*
X53917684Y9490397D01*
X53913415Y9490853D01*
X53890262Y9490853D01*
X53890262Y8849607D01*
X53657082Y8849607D01*
X53657082Y9696599D01*
X53890262Y9696599D01*
X53988114Y9701448D01*
X54031865Y9704581D01*
X54074148Y9709286D01*
X54109512Y9714868D01*
X54128863Y9719407D01*
X54189775Y9745171D01*
X54237812Y9781382D01*
X54273235Y9828243D01*
X54277320Y9835896D01*
X54290119Y9863039D01*
X54297679Y9886454D01*
X54301312Y9912474D01*
X54302332Y9947435D01*
X54302337Y9956650D01*
X54301213Y9997193D01*
X54297361Y10027063D01*
X54289749Y10052156D01*
X54282944Y10067377D01*
X54256177Y10108921D01*
X54220043Y10141710D01*
X54173181Y10166358D01*
X54114228Y10183478D01*
X54041825Y10193685D01*
X53996442Y10196547D01*
X53890262Y10200932D01*
X53890262Y9696599D01*
X53657082Y9696599D01*
X53657082Y10423574D01*
X53813229Y10423293D01*
D14*
%TO.C,C1*%
X35765000Y5738748D02*
X35765000Y6261252D01*
X37235000Y5738748D02*
X37235000Y6261252D01*
%TO.C,C2*%
X9735000Y11738748D02*
X9735000Y12261252D01*
X8265000Y11738748D02*
X8265000Y12261252D01*
%TO.C,C3*%
X11735000Y52261252D02*
X11735000Y51738748D01*
X10265000Y52261252D02*
X10265000Y51738748D01*
%TO.C,C4*%
X48235000Y44738748D02*
X48235000Y45261252D01*
X46765000Y44738748D02*
X46765000Y45261252D01*
%TO.C,C6*%
X11265000Y4488748D02*
X11265000Y5011252D01*
X12735000Y4488748D02*
X12735000Y5011252D01*
%TO.C,C7*%
X28238748Y2735000D02*
X28761252Y2735000D01*
X28238748Y1265000D02*
X28761252Y1265000D01*
%TO.C,C8*%
X48015000Y55511252D02*
X48015000Y54988748D01*
X49485000Y55511252D02*
X49485000Y54988748D01*
%TO.C,C9*%
X15485000Y24261252D02*
X15485000Y23738748D01*
X14015000Y24261252D02*
X14015000Y23738748D01*
%TO.C,C10*%
X7765000Y24261252D02*
X7765000Y23738748D01*
X9235000Y24261252D02*
X9235000Y23738748D01*
%TO.C,C11*%
X56265000Y39738748D02*
X56265000Y40261252D01*
X57735000Y39738748D02*
X57735000Y40261252D01*
%TO.C,C12*%
X51738748Y52765000D02*
X52261252Y52765000D01*
X51738748Y54235000D02*
X52261252Y54235000D01*
%TO.C,C13*%
X52261252Y56735000D02*
X51738748Y56735000D01*
X52261252Y55265000D02*
X51738748Y55265000D01*
%TO.C,C14*%
X41511252Y66235000D02*
X40988748Y66235000D01*
X41511252Y64765000D02*
X40988748Y64765000D01*
%TO.C,C15*%
X56761252Y50265000D02*
X56238748Y50265000D01*
X56761252Y51735000D02*
X56238748Y51735000D01*
%TO.C,D1*%
X30810000Y4880000D02*
X30810000Y7120000D01*
X30810000Y7120000D02*
X26570000Y7120000D01*
X26570000Y7120000D02*
X26570000Y4880000D01*
X26570000Y4880000D02*
X30810000Y4880000D01*
X31460000Y6000000D02*
X30810000Y6000000D01*
X25920000Y6000000D02*
X26570000Y6000000D01*
X30090000Y4880000D02*
X30090000Y7120000D01*
X29970000Y4880000D02*
X29970000Y7120000D01*
X30210000Y4880000D02*
X30210000Y7120000D01*
%TO.C,D2*%
X52000000Y23540000D02*
X54685000Y23540000D01*
X54685000Y23540000D02*
X54685000Y25460000D01*
X54685000Y25460000D02*
X52000000Y25460000D01*
%TO.C,D3*%
X23120000Y40810000D02*
X20880000Y40810000D01*
X20880000Y40810000D02*
X20880000Y36570000D01*
X20880000Y36570000D02*
X23120000Y36570000D01*
X23120000Y36570000D02*
X23120000Y40810000D01*
X22000000Y41460000D02*
X22000000Y40810000D01*
X22000000Y35920000D02*
X22000000Y36570000D01*
X23120000Y40090000D02*
X20880000Y40090000D01*
X23120000Y39970000D02*
X20880000Y39970000D01*
X23120000Y40210000D02*
X20880000Y40210000D01*
%TO.C,D4*%
X17880000Y37290000D02*
X20120000Y37290000D01*
X17880000Y37530000D02*
X20120000Y37530000D01*
X17880000Y37410000D02*
X20120000Y37410000D01*
X19000000Y41580000D02*
X19000000Y40930000D01*
X19000000Y36040000D02*
X19000000Y36690000D01*
X17880000Y40930000D02*
X17880000Y36690000D01*
X20120000Y40930000D02*
X17880000Y40930000D01*
X20120000Y36690000D02*
X20120000Y40930000D01*
X17880000Y36690000D02*
X20120000Y36690000D01*
%TO.C,D5*%
X39620000Y40810000D02*
X37380000Y40810000D01*
X37380000Y40810000D02*
X37380000Y36570000D01*
X37380000Y36570000D02*
X39620000Y36570000D01*
X39620000Y36570000D02*
X39620000Y40810000D01*
X38500000Y41460000D02*
X38500000Y40810000D01*
X38500000Y35920000D02*
X38500000Y36570000D01*
X39620000Y40090000D02*
X37380000Y40090000D01*
X39620000Y39970000D02*
X37380000Y39970000D01*
X39620000Y40210000D02*
X37380000Y40210000D01*
%TO.C,D6*%
X40380000Y37290000D02*
X42620000Y37290000D01*
X40380000Y37530000D02*
X42620000Y37530000D01*
X40380000Y37410000D02*
X42620000Y37410000D01*
X41500000Y41580000D02*
X41500000Y40930000D01*
X41500000Y36040000D02*
X41500000Y36690000D01*
X40380000Y40930000D02*
X40380000Y36690000D01*
X42620000Y40930000D02*
X40380000Y40930000D01*
X42620000Y36690000D02*
X42620000Y40930000D01*
X40380000Y36690000D02*
X42620000Y36690000D01*
%TO.C,D7*%
X29500000Y38230000D02*
G75*
G03*
X29500000Y38230000I-2500000J0D01*
G01*
X28545000Y40790000D02*
X25455000Y40790000D01*
X26999538Y35240000D02*
G75*
G03*
X28544830Y40790000I462J2990000D01*
G01*
X27000462Y35240000D02*
G75*
G02*
X25455170Y40790000I-462J2990000D01*
G01*
%TO.C,D8*%
X31955000Y35710000D02*
X35045000Y35710000D01*
X36000000Y38270000D02*
G75*
G03*
X36000000Y38270000I-2500000J0D01*
G01*
X33499538Y41260000D02*
G75*
G02*
X35044830Y35710000I462J-2990000D01*
G01*
X33500462Y41260000D02*
G75*
G03*
X31955170Y35710000I-462J-2990000D01*
G01*
%TO.C,D9*%
X1380000Y35040000D02*
X3620000Y35040000D01*
X1380000Y35280000D02*
X3620000Y35280000D01*
X1380000Y35160000D02*
X3620000Y35160000D01*
X2500000Y39330000D02*
X2500000Y38680000D01*
X2500000Y33790000D02*
X2500000Y34440000D01*
X1380000Y38680000D02*
X1380000Y34440000D01*
X3620000Y38680000D02*
X1380000Y38680000D01*
X3620000Y34440000D02*
X3620000Y38680000D01*
X1380000Y34440000D02*
X3620000Y34440000D01*
%TO.C,D10*%
X7620000Y38560000D02*
X5380000Y38560000D01*
X5380000Y38560000D02*
X5380000Y34320000D01*
X5380000Y34320000D02*
X7620000Y34320000D01*
X7620000Y34320000D02*
X7620000Y38560000D01*
X6500000Y39210000D02*
X6500000Y38560000D01*
X6500000Y33670000D02*
X6500000Y34320000D01*
X7620000Y37840000D02*
X5380000Y37840000D01*
X7620000Y37720000D02*
X5380000Y37720000D01*
X7620000Y37960000D02*
X5380000Y37960000D01*
%TO.C,D11*%
X11620000Y37960000D02*
X9380000Y37960000D01*
X11620000Y37720000D02*
X9380000Y37720000D01*
X11620000Y37840000D02*
X9380000Y37840000D01*
X10500000Y33670000D02*
X10500000Y34320000D01*
X10500000Y39210000D02*
X10500000Y38560000D01*
X11620000Y34320000D02*
X11620000Y38560000D01*
X9380000Y34320000D02*
X11620000Y34320000D01*
X9380000Y38560000D02*
X9380000Y34320000D01*
X11620000Y38560000D02*
X9380000Y38560000D01*
%TO.C,D12*%
X13380000Y34440000D02*
X15620000Y34440000D01*
X15620000Y34440000D02*
X15620000Y38680000D01*
X15620000Y38680000D02*
X13380000Y38680000D01*
X13380000Y38680000D02*
X13380000Y34440000D01*
X14500000Y33790000D02*
X14500000Y34440000D01*
X14500000Y39330000D02*
X14500000Y38680000D01*
X13380000Y35160000D02*
X15620000Y35160000D01*
X13380000Y35280000D02*
X15620000Y35280000D01*
X13380000Y35040000D02*
X15620000Y35040000D01*
%TO.C,R1*%
X47772936Y23765000D02*
X48227064Y23765000D01*
X47772936Y25235000D02*
X48227064Y25235000D01*
%TO.C,R2*%
X8522936Y5015000D02*
X8977064Y5015000D01*
X8522936Y6485000D02*
X8977064Y6485000D01*
%TO.C,R3*%
X14985000Y4977064D02*
X14985000Y4522936D01*
X13515000Y4977064D02*
X13515000Y4522936D01*
%TO.C,R4*%
X11727064Y18735000D02*
X11272936Y18735000D01*
X11727064Y17265000D02*
X11272936Y17265000D01*
%TO.C,R5*%
X46735000Y55022936D02*
X46735000Y55477064D01*
X45265000Y55022936D02*
X45265000Y55477064D01*
%TO.C,R6*%
X46772936Y52985000D02*
X47227064Y52985000D01*
X46772936Y51515000D02*
X47227064Y51515000D01*
%TO.C,R7*%
X13272936Y21235000D02*
X13727064Y21235000D01*
X13272936Y19765000D02*
X13727064Y19765000D01*
%TO.C,R8*%
X15727064Y17265000D02*
X15272936Y17265000D01*
X15727064Y18735000D02*
X15272936Y18735000D01*
%TO.C,R9*%
X8235000Y19772936D02*
X8235000Y20227064D01*
X6765000Y19772936D02*
X6765000Y20227064D01*
%TO.C,R10*%
X46735000Y49227064D02*
X46735000Y48772936D01*
X45265000Y49227064D02*
X45265000Y48772936D01*
%TO.C,R11*%
X32272936Y2735000D02*
X32727064Y2735000D01*
X32272936Y1265000D02*
X32727064Y1265000D01*
%TO.C,R12*%
X11235000Y23772936D02*
X11235000Y24227064D01*
X9765000Y23772936D02*
X9765000Y24227064D01*
%TO.C,R13*%
X50227064Y40235000D02*
X49772936Y40235000D01*
X50227064Y38765000D02*
X49772936Y38765000D01*
%TO.C,R14*%
X49772936Y36735000D02*
X50227064Y36735000D01*
X49772936Y35265000D02*
X50227064Y35265000D01*
%TO.C,R15*%
X13265000Y56227064D02*
X13265000Y55772936D01*
X14735000Y56227064D02*
X14735000Y55772936D01*
%TO.C,R16*%
X2735000Y51772936D02*
X2735000Y52227064D01*
X1265000Y51772936D02*
X1265000Y52227064D01*
%TO.C,R17*%
X57735000Y45227064D02*
X57735000Y44772936D01*
X56265000Y45227064D02*
X56265000Y44772936D01*
%TO.C,R18*%
X56227064Y35265000D02*
X55772936Y35265000D01*
X56227064Y36735000D02*
X55772936Y36735000D01*
%TO.C,R19*%
X52227064Y50265000D02*
X51772936Y50265000D01*
X52227064Y51735000D02*
X51772936Y51735000D01*
%TO.C,R20*%
X6272936Y46735000D02*
X6727064Y46735000D01*
X6272936Y45265000D02*
X6727064Y45265000D01*
%TO.C,R21*%
X41022936Y61765000D02*
X41477064Y61765000D01*
X41022936Y63235000D02*
X41477064Y63235000D01*
%TO.C,R22*%
X56727064Y52765000D02*
X56272936Y52765000D01*
X56727064Y54235000D02*
X56272936Y54235000D01*
%TO.C,R23*%
X13265000Y52227064D02*
X13265000Y51772936D01*
X14735000Y52227064D02*
X14735000Y51772936D01*
%TO.C,R24*%
X45540000Y20210000D02*
X45870000Y20210000D01*
X45870000Y20210000D02*
X45870000Y13670000D01*
X45870000Y13670000D02*
X45540000Y13670000D01*
X43460000Y20210000D02*
X43130000Y20210000D01*
X43130000Y20210000D02*
X43130000Y13670000D01*
X43130000Y13670000D02*
X43460000Y13670000D01*
%TO.C,RV1*%
X13370000Y71970000D02*
X3630000Y71970000D01*
X13370000Y60380000D02*
X11880000Y60380000D01*
X13370000Y68910000D02*
X13370000Y71970000D01*
X3620000Y60380000D02*
X3620000Y65100000D01*
X3630000Y68910000D02*
X3630000Y71970000D01*
X13370000Y60380000D02*
X13370000Y65100000D01*
X4810000Y60380000D02*
X3630000Y60380000D01*
X7710000Y60380000D02*
X7180000Y60380000D01*
X10160000Y60380000D02*
X9330000Y60380000D01*
%TO.C,RV2*%
X34870000Y84470000D02*
X25130000Y84470000D01*
X34870000Y72880000D02*
X33380000Y72880000D01*
X34870000Y81410000D02*
X34870000Y84470000D01*
X25120000Y72880000D02*
X25120000Y77600000D01*
X25130000Y81410000D02*
X25130000Y84470000D01*
X34870000Y72880000D02*
X34870000Y77600000D01*
X26310000Y72880000D02*
X25130000Y72880000D01*
X29210000Y72880000D02*
X28680000Y72880000D01*
X31660000Y72880000D02*
X30830000Y72880000D01*
%TO.C,RV3*%
X53160000Y60630000D02*
X52330000Y60630000D01*
X50710000Y60630000D02*
X50180000Y60630000D01*
X47810000Y60630000D02*
X46630000Y60630000D01*
X56370000Y60630000D02*
X56370000Y65350000D01*
X46630000Y69160000D02*
X46630000Y72220000D01*
X46620000Y60630000D02*
X46620000Y65350000D01*
X56370000Y69160000D02*
X56370000Y72220000D01*
X56370000Y60630000D02*
X54880000Y60630000D01*
X56370000Y72220000D02*
X46630000Y72220000D01*
%TO.C,U1*%
X10940000Y12000000D02*
X10940000Y8550000D01*
X10940000Y12000000D02*
X10940000Y13950000D01*
X16060000Y12000000D02*
X16060000Y10050000D01*
X16060000Y12000000D02*
X16060000Y13950000D01*
%TO.C,U2*%
X3940000Y52000000D02*
X3940000Y50050000D01*
X3940000Y52000000D02*
X3940000Y53950000D01*
X9060000Y52000000D02*
X9060000Y50050000D01*
X9060000Y52000000D02*
X9060000Y55450000D01*
%TO.C,U3*%
X54560000Y45000000D02*
X54560000Y46950000D01*
X54560000Y45000000D02*
X54560000Y43050000D01*
X49440000Y45000000D02*
X49440000Y46950000D01*
X49440000Y45000000D02*
X49440000Y41550000D01*
D11*
%TO.C,U4*%
X30000000Y8400000D02*
X21400000Y8400000D01*
X39800000Y8400000D02*
X30000000Y8400000D01*
X39800000Y17000000D02*
X39800000Y8400000D01*
X39800000Y25600000D02*
X39800000Y17000000D01*
X21400000Y25600000D02*
X30000000Y25600000D01*
X20200000Y25600000D02*
X21400000Y25600000D01*
X20200000Y17000000D02*
X20200000Y25600000D01*
X20200000Y8400000D02*
X20200000Y17000000D01*
X21400000Y8400000D02*
X20200000Y8400000D01*
X39800000Y25600000D02*
X39700000Y25600000D01*
X30000000Y25600000D02*
X39800000Y25600000D01*
D14*
%TO.C,D13*%
X51455000Y14460000D02*
X54545000Y14460000D01*
X55500000Y17020000D02*
G75*
G03*
X55500000Y17020000I-2500000J0D01*
G01*
X53000462Y20010000D02*
G75*
G03*
X51455170Y14460000I-462J-2990000D01*
G01*
X52999538Y20010000D02*
G75*
G02*
X54544830Y14460000I462J-2990000D01*
G01*
%TD*%
M02*
