M48
; DRILL file {KiCad (5.1.10-1-10_14)} date Friday, October 01, 2021 at 04:42:23 PM
; FORMAT={3:3/ absolute / metric / suppress leading zeros}
; #@! TF.CreationDate,2021-10-01T16:42:23+02:00
; #@! TF.GenerationSoftware,Kicad,Pcbnew,(5.1.10-1-10_14)
FMAT,2
METRIC,TZ
T1C0.400
T2C0.500
T3C0.762
T4C0.800
T5C0.900
T6C0.952
T7C1.000
T8C1.500
T9C1.600
T10C1.800
T11C2.060
T12C3.200
T13C3.300
%
G90
G05
T1
X4500Y56500
X4500Y47500
X6000Y56500
X6250Y5750
X9000Y9500
X10000Y14500
X10250Y3750
X10500Y49500
X10500Y26500
X11000Y54500
X11595Y11500
X11595Y7500
X12500Y23000
X13000Y11500
X13000Y7500
X14000Y49500
X14250Y2500
X14750Y26500
X15500Y16500
X16750Y9500
X18000Y20500
X27500Y34000
X27500Y31000
X35000Y2000
X36500Y3500
X40000Y21500
X42250Y67250
X47500Y42500
X47500Y39500
X48000Y50000
X48500Y47500
X48750Y57750
X51365Y44500
X52500Y40500
X53500Y36000
X54000Y40500
X55500Y47500
X55500Y24500
X57500Y49250
T2
X27600Y53000
X28303Y54697
X28303Y51303
X30000Y55400
X30000Y50600
X31697Y54697
X31697Y51303
X32400Y53000
T4
X2500Y40370
X2500Y32750
X6500Y40250
X6500Y32630
X10500Y40250
X10500Y32630
X14500Y40370
X14500Y32750
X19000Y42620
X19000Y35000
X22000Y42500
X22000Y34880
X24880Y6000
X32500Y6000
X38500Y42500
X38500Y34880
X41500Y42620
X41500Y35000
X44500Y20750
X44500Y13130
T5
X27000Y39500
X27000Y36960
X33500Y39540
X33500Y37000
X53000Y18290
X53000Y15750
T7
X6000Y59500
X8500Y59500
X11000Y59500
X27500Y72000
X30000Y72000
X32500Y72000
X49000Y59750
X51500Y59750
X54000Y59750
T8
X3200Y85750
X3200Y79500
X3200Y73250
X19500Y85750
X19500Y79500
X19500Y73250
X40500Y85750
X40500Y79500
X40500Y73250
X56800Y85750
X56800Y79500
X56800Y73250
T9
X20000Y57700
X20000Y53000
X20000Y48300
X40000Y57700
X40000Y53000
X40000Y48300
T10
X3700Y67000
X13300Y67000
X25200Y79500
X34800Y79500
X46700Y67250
X56300Y67250
T11
X4000Y23350
X4000Y10650
T12
X30000Y53000
T13
X19240Y28915
X19240Y5085
X41470Y28915
X41470Y5085
T3
G00X23681Y17000
M15
G01X25719Y17000
M16
G05
G00X23681Y12300
M15
G01X25719Y12300
M16
G05
G00X28981Y21700
M15
G01X31019Y21700
M16
G05
G00X28981Y17000
M15
G01X31019Y17000
M16
G05
G00X28981Y12300
M15
G01X31019Y12300
M16
G05
G00X34281Y21700
M15
G01X36319Y21700
M16
G05
G00X34281Y17000
M15
G01X36319Y17000
M16
G05
G00X34281Y12300
M15
G01X36319Y12300
M16
G05
T6
G00X23776Y21700
M15
G01X25624Y21700
M16
G05
T0
M30
