%TF.GenerationSoftware,KiCad,Pcbnew,(5.1.10-1-10_14)*%
%TF.CreationDate,2021-10-01T16:43:39+02:00*%
%TF.ProjectId,Guitarpedal,47756974-6172-4706-9564-616c2e6b6963,rev?*%
%TF.SameCoordinates,Original*%
%TF.FileFunction,Legend,Bot*%
%TF.FilePolarity,Positive*%
%FSLAX46Y46*%
G04 Gerber Fmt 4.6, Leading zero omitted, Abs format (unit mm)*
G04 Created by KiCad (PCBNEW (5.1.10-1-10_14)) date 2021-10-01 16:43:39*
%MOMM*%
%LPD*%
G01*
G04 APERTURE LIST*
%ADD10C,0.100000*%
%ADD11C,0.010000*%
%ADD12C,0.120000*%
%ADD13C,0.150000*%
G04 APERTURE END LIST*
D10*
X35878571Y60478571D02*
X35878571Y61078571D01*
X35735714Y61078571D01*
X35650000Y61050000D01*
X35592857Y60992857D01*
X35564285Y60935714D01*
X35535714Y60821428D01*
X35535714Y60735714D01*
X35564285Y60621428D01*
X35592857Y60564285D01*
X35650000Y60507142D01*
X35735714Y60478571D01*
X35878571Y60478571D01*
X35278571Y60478571D02*
X35278571Y61078571D01*
X35021428Y60507142D02*
X34935714Y60478571D01*
X34792857Y60478571D01*
X34735714Y60507142D01*
X34707142Y60535714D01*
X34678571Y60592857D01*
X34678571Y60650000D01*
X34707142Y60707142D01*
X34735714Y60735714D01*
X34792857Y60764285D01*
X34907142Y60792857D01*
X34964285Y60821428D01*
X34992857Y60850000D01*
X35021428Y60907142D01*
X35021428Y60964285D01*
X34992857Y61021428D01*
X34964285Y61050000D01*
X34907142Y61078571D01*
X34764285Y61078571D01*
X34678571Y61050000D01*
X34507142Y61078571D02*
X34164285Y61078571D01*
X34335714Y60478571D02*
X34335714Y61078571D01*
X33850000Y61078571D02*
X33735714Y61078571D01*
X33678571Y61050000D01*
X33621428Y60992857D01*
X33592857Y60878571D01*
X33592857Y60678571D01*
X33621428Y60564285D01*
X33678571Y60507142D01*
X33735714Y60478571D01*
X33850000Y60478571D01*
X33907142Y60507142D01*
X33964285Y60564285D01*
X33992857Y60678571D01*
X33992857Y60878571D01*
X33964285Y60992857D01*
X33907142Y61050000D01*
X33850000Y61078571D01*
X32992857Y60478571D02*
X33192857Y60764285D01*
X33335714Y60478571D02*
X33335714Y61078571D01*
X33107142Y61078571D01*
X33050000Y61050000D01*
X33021428Y61021428D01*
X32992857Y60964285D01*
X32992857Y60878571D01*
X33021428Y60821428D01*
X33050000Y60792857D01*
X33107142Y60764285D01*
X33335714Y60764285D01*
X32821428Y61078571D02*
X32478571Y61078571D01*
X32650000Y60478571D02*
X32650000Y61078571D01*
X32278571Y60478571D02*
X32278571Y61078571D01*
X31878571Y61078571D02*
X31764285Y61078571D01*
X31707142Y61050000D01*
X31650000Y60992857D01*
X31621428Y60878571D01*
X31621428Y60678571D01*
X31650000Y60564285D01*
X31707142Y60507142D01*
X31764285Y60478571D01*
X31878571Y60478571D01*
X31935714Y60507142D01*
X31992857Y60564285D01*
X32021428Y60678571D01*
X32021428Y60878571D01*
X31992857Y60992857D01*
X31935714Y61050000D01*
X31878571Y61078571D01*
X31364285Y60478571D02*
X31364285Y61078571D01*
X31021428Y60478571D01*
X31021428Y61078571D01*
X30278571Y60792857D02*
X30078571Y60792857D01*
X29992857Y60478571D02*
X30278571Y60478571D01*
X30278571Y61078571D01*
X29992857Y61078571D01*
X29535714Y60792857D02*
X29735714Y60792857D01*
X29735714Y60478571D02*
X29735714Y61078571D01*
X29450000Y61078571D01*
X29021428Y60792857D02*
X29221428Y60792857D01*
X29221428Y60478571D02*
X29221428Y61078571D01*
X28935714Y61078571D01*
X28707142Y60792857D02*
X28507142Y60792857D01*
X28421428Y60478571D02*
X28707142Y60478571D01*
X28707142Y61078571D01*
X28421428Y61078571D01*
X27821428Y60535714D02*
X27850000Y60507142D01*
X27935714Y60478571D01*
X27992857Y60478571D01*
X28078571Y60507142D01*
X28135714Y60564285D01*
X28164285Y60621428D01*
X28192857Y60735714D01*
X28192857Y60821428D01*
X28164285Y60935714D01*
X28135714Y60992857D01*
X28078571Y61050000D01*
X27992857Y61078571D01*
X27935714Y61078571D01*
X27850000Y61050000D01*
X27821428Y61021428D01*
X27650000Y61078571D02*
X27307142Y61078571D01*
X27478571Y60478571D02*
X27478571Y61078571D01*
X27135714Y60507142D02*
X27050000Y60478571D01*
X26907142Y60478571D01*
X26850000Y60507142D01*
X26821428Y60535714D01*
X26792857Y60592857D01*
X26792857Y60650000D01*
X26821428Y60707142D01*
X26850000Y60735714D01*
X26907142Y60764285D01*
X27021428Y60792857D01*
X27078571Y60821428D01*
X27107142Y60850000D01*
X27135714Y60907142D01*
X27135714Y60964285D01*
X27107142Y61021428D01*
X27078571Y61050000D01*
X27021428Y61078571D01*
X26878571Y61078571D01*
X26792857Y61050000D01*
X26078571Y60478571D02*
X26078571Y61078571D01*
X25850000Y61078571D01*
X25792857Y61050000D01*
X25764285Y61021428D01*
X25735714Y60964285D01*
X25735714Y60878571D01*
X25764285Y60821428D01*
X25792857Y60792857D01*
X25850000Y60764285D01*
X26078571Y60764285D01*
X25478571Y60792857D02*
X25278571Y60792857D01*
X25192857Y60478571D02*
X25478571Y60478571D01*
X25478571Y61078571D01*
X25192857Y61078571D01*
X24935714Y60478571D02*
X24935714Y61078571D01*
X24792857Y61078571D01*
X24707142Y61050000D01*
X24650000Y60992857D01*
X24621428Y60935714D01*
X24592857Y60821428D01*
X24592857Y60735714D01*
X24621428Y60621428D01*
X24650000Y60564285D01*
X24707142Y60507142D01*
X24792857Y60478571D01*
X24935714Y60478571D01*
X24364285Y60650000D02*
X24078571Y60650000D01*
X24421428Y60478571D02*
X24221428Y61078571D01*
X24021428Y60478571D01*
X23535714Y60478571D02*
X23821428Y60478571D01*
X23821428Y61078571D01*
X36664285Y59478571D02*
X36664285Y60078571D01*
X36521428Y60078571D01*
X36435714Y60050000D01*
X36378571Y59992857D01*
X36350000Y59935714D01*
X36321428Y59821428D01*
X36321428Y59735714D01*
X36350000Y59621428D01*
X36378571Y59564285D01*
X36435714Y59507142D01*
X36521428Y59478571D01*
X36664285Y59478571D01*
X36064285Y59792857D02*
X35864285Y59792857D01*
X35778571Y59478571D02*
X36064285Y59478571D01*
X36064285Y60078571D01*
X35778571Y60078571D01*
X35550000Y59507142D02*
X35464285Y59478571D01*
X35321428Y59478571D01*
X35264285Y59507142D01*
X35235714Y59535714D01*
X35207142Y59592857D01*
X35207142Y59650000D01*
X35235714Y59707142D01*
X35264285Y59735714D01*
X35321428Y59764285D01*
X35435714Y59792857D01*
X35492857Y59821428D01*
X35521428Y59850000D01*
X35550000Y59907142D01*
X35550000Y59964285D01*
X35521428Y60021428D01*
X35492857Y60050000D01*
X35435714Y60078571D01*
X35292857Y60078571D01*
X35207142Y60050000D01*
X34950000Y59478571D02*
X34950000Y60078571D01*
X34350000Y60050000D02*
X34407142Y60078571D01*
X34492857Y60078571D01*
X34578571Y60050000D01*
X34635714Y59992857D01*
X34664285Y59935714D01*
X34692857Y59821428D01*
X34692857Y59735714D01*
X34664285Y59621428D01*
X34635714Y59564285D01*
X34578571Y59507142D01*
X34492857Y59478571D01*
X34435714Y59478571D01*
X34350000Y59507142D01*
X34321428Y59535714D01*
X34321428Y59735714D01*
X34435714Y59735714D01*
X34064285Y59478571D02*
X34064285Y60078571D01*
X33721428Y59478571D01*
X33721428Y60078571D01*
X33435714Y59792857D02*
X33235714Y59792857D01*
X33150000Y59478571D02*
X33435714Y59478571D01*
X33435714Y60078571D01*
X33150000Y60078571D01*
X32892857Y59478571D02*
X32892857Y60078571D01*
X32750000Y60078571D01*
X32664285Y60050000D01*
X32607142Y59992857D01*
X32578571Y59935714D01*
X32550000Y59821428D01*
X32550000Y59735714D01*
X32578571Y59621428D01*
X32607142Y59564285D01*
X32664285Y59507142D01*
X32750000Y59478571D01*
X32892857Y59478571D01*
X31864285Y59650000D02*
X31578571Y59650000D01*
X31921428Y59478571D02*
X31721428Y60078571D01*
X31521428Y59478571D01*
X31321428Y59478571D02*
X31321428Y60078571D01*
X30978571Y59478571D01*
X30978571Y60078571D01*
X30692857Y59478571D02*
X30692857Y60078571D01*
X30550000Y60078571D01*
X30464285Y60050000D01*
X30407142Y59992857D01*
X30378571Y59935714D01*
X30350000Y59821428D01*
X30350000Y59735714D01*
X30378571Y59621428D01*
X30407142Y59564285D01*
X30464285Y59507142D01*
X30550000Y59478571D01*
X30692857Y59478571D01*
X29635714Y59792857D02*
X29435714Y59792857D01*
X29350000Y59478571D02*
X29635714Y59478571D01*
X29635714Y60078571D01*
X29350000Y60078571D01*
X29092857Y59478571D02*
X29092857Y60078571D01*
X28750000Y59478571D01*
X28750000Y60078571D01*
X28150000Y60050000D02*
X28207142Y60078571D01*
X28292857Y60078571D01*
X28378571Y60050000D01*
X28435714Y59992857D01*
X28464285Y59935714D01*
X28492857Y59821428D01*
X28492857Y59735714D01*
X28464285Y59621428D01*
X28435714Y59564285D01*
X28378571Y59507142D01*
X28292857Y59478571D01*
X28235714Y59478571D01*
X28150000Y59507142D01*
X28121428Y59535714D01*
X28121428Y59735714D01*
X28235714Y59735714D01*
X27864285Y59478571D02*
X27864285Y60078571D01*
X27578571Y59478571D02*
X27578571Y60078571D01*
X27235714Y59478571D01*
X27235714Y60078571D01*
X26950000Y59792857D02*
X26750000Y59792857D01*
X26664285Y59478571D02*
X26950000Y59478571D01*
X26950000Y60078571D01*
X26664285Y60078571D01*
X26407142Y59792857D02*
X26207142Y59792857D01*
X26121428Y59478571D02*
X26407142Y59478571D01*
X26407142Y60078571D01*
X26121428Y60078571D01*
X25521428Y59478571D02*
X25721428Y59764285D01*
X25864285Y59478571D02*
X25864285Y60078571D01*
X25635714Y60078571D01*
X25578571Y60050000D01*
X25550000Y60021428D01*
X25521428Y59964285D01*
X25521428Y59878571D01*
X25550000Y59821428D01*
X25578571Y59792857D01*
X25635714Y59764285D01*
X25864285Y59764285D01*
X25264285Y59792857D02*
X25064285Y59792857D01*
X24978571Y59478571D02*
X25264285Y59478571D01*
X25264285Y60078571D01*
X24978571Y60078571D01*
X24721428Y59478571D02*
X24721428Y60078571D01*
X24578571Y60078571D01*
X24492857Y60050000D01*
X24435714Y59992857D01*
X24407142Y59935714D01*
X24378571Y59821428D01*
X24378571Y59735714D01*
X24407142Y59621428D01*
X24435714Y59564285D01*
X24492857Y59507142D01*
X24578571Y59478571D01*
X24721428Y59478571D01*
X23464285Y59792857D02*
X23378571Y59764285D01*
X23350000Y59735714D01*
X23321428Y59678571D01*
X23321428Y59592857D01*
X23350000Y59535714D01*
X23378571Y59507142D01*
X23435714Y59478571D01*
X23664285Y59478571D01*
X23664285Y60078571D01*
X23464285Y60078571D01*
X23407142Y60050000D01*
X23378571Y60021428D01*
X23350000Y59964285D01*
X23350000Y59907142D01*
X23378571Y59850000D01*
X23407142Y59821428D01*
X23464285Y59792857D01*
X23664285Y59792857D01*
X22950000Y59764285D02*
X22950000Y59478571D01*
X23150000Y60078571D02*
X22950000Y59764285D01*
X22750000Y60078571D01*
X35421428Y58478571D02*
X35421428Y59078571D01*
X35221428Y58650000D01*
X35021428Y59078571D01*
X35021428Y58478571D01*
X34764285Y58650000D02*
X34478571Y58650000D01*
X34821428Y58478571D02*
X34621428Y59078571D01*
X34421428Y58478571D01*
X34221428Y58478571D02*
X34221428Y59078571D01*
X34078571Y59078571D01*
X33992857Y59050000D01*
X33935714Y58992857D01*
X33907142Y58935714D01*
X33878571Y58821428D01*
X33878571Y58735714D01*
X33907142Y58621428D01*
X33935714Y58564285D01*
X33992857Y58507142D01*
X34078571Y58478571D01*
X34221428Y58478571D01*
X33650000Y58507142D02*
X33564285Y58478571D01*
X33421428Y58478571D01*
X33364285Y58507142D01*
X33335714Y58535714D01*
X33307142Y58592857D01*
X33307142Y58650000D01*
X33335714Y58707142D01*
X33364285Y58735714D01*
X33421428Y58764285D01*
X33535714Y58792857D01*
X33592857Y58821428D01*
X33621428Y58850000D01*
X33650000Y58907142D01*
X33650000Y58964285D01*
X33621428Y59021428D01*
X33592857Y59050000D01*
X33535714Y59078571D01*
X33392857Y59078571D01*
X33307142Y59050000D01*
X32250000Y58478571D02*
X32450000Y58764285D01*
X32592857Y58478571D02*
X32592857Y59078571D01*
X32364285Y59078571D01*
X32307142Y59050000D01*
X32278571Y59021428D01*
X32250000Y58964285D01*
X32250000Y58878571D01*
X32278571Y58821428D01*
X32307142Y58792857D01*
X32364285Y58764285D01*
X32592857Y58764285D01*
X31992857Y59078571D02*
X31992857Y58592857D01*
X31964285Y58535714D01*
X31935714Y58507142D01*
X31878571Y58478571D01*
X31764285Y58478571D01*
X31707142Y58507142D01*
X31678571Y58535714D01*
X31650000Y58592857D01*
X31650000Y59078571D01*
X31364285Y58478571D02*
X31364285Y59078571D01*
X31164285Y58650000D01*
X30964285Y59078571D01*
X30964285Y58478571D01*
X30392857Y58478571D02*
X30678571Y58478571D01*
X30678571Y59078571D01*
X30192857Y58792857D02*
X29992857Y58792857D01*
X29907142Y58478571D02*
X30192857Y58478571D01*
X30192857Y59078571D01*
X29907142Y59078571D01*
X29192857Y58478571D02*
X29192857Y59078571D01*
X28850000Y58478571D01*
X28850000Y59078571D01*
X28450000Y59078571D02*
X28335714Y59078571D01*
X28278571Y59050000D01*
X28221428Y58992857D01*
X28192857Y58878571D01*
X28192857Y58678571D01*
X28221428Y58564285D01*
X28278571Y58507142D01*
X28335714Y58478571D01*
X28450000Y58478571D01*
X28507142Y58507142D01*
X28564285Y58564285D01*
X28592857Y58678571D01*
X28592857Y58878571D01*
X28564285Y58992857D01*
X28507142Y59050000D01*
X28450000Y59078571D01*
X27592857Y58478571D02*
X27792857Y58764285D01*
X27935714Y58478571D02*
X27935714Y59078571D01*
X27707142Y59078571D01*
X27650000Y59050000D01*
X27621428Y59021428D01*
X27592857Y58964285D01*
X27592857Y58878571D01*
X27621428Y58821428D01*
X27650000Y58792857D01*
X27707142Y58764285D01*
X27935714Y58764285D01*
X27335714Y58478571D02*
X27335714Y59078571D01*
X27192857Y59078571D01*
X27107142Y59050000D01*
X27050000Y58992857D01*
X27021428Y58935714D01*
X26992857Y58821428D01*
X26992857Y58735714D01*
X27021428Y58621428D01*
X27050000Y58564285D01*
X27107142Y58507142D01*
X27192857Y58478571D01*
X27335714Y58478571D01*
X26764285Y58507142D02*
X26678571Y58478571D01*
X26535714Y58478571D01*
X26478571Y58507142D01*
X26450000Y58535714D01*
X26421428Y58592857D01*
X26421428Y58650000D01*
X26450000Y58707142D01*
X26478571Y58735714D01*
X26535714Y58764285D01*
X26650000Y58792857D01*
X26707142Y58821428D01*
X26735714Y58850000D01*
X26764285Y58907142D01*
X26764285Y58964285D01*
X26735714Y59021428D01*
X26707142Y59050000D01*
X26650000Y59078571D01*
X26507142Y59078571D01*
X26421428Y59050000D01*
X26250000Y59078571D02*
X25907142Y59078571D01*
X26078571Y58478571D02*
X26078571Y59078571D01*
X25364285Y58478571D02*
X25564285Y58764285D01*
X25707142Y58478571D02*
X25707142Y59078571D01*
X25478571Y59078571D01*
X25421428Y59050000D01*
X25392857Y59021428D01*
X25364285Y58964285D01*
X25364285Y58878571D01*
X25392857Y58821428D01*
X25421428Y58792857D01*
X25478571Y58764285D01*
X25707142Y58764285D01*
X24707142Y59078571D02*
X25164285Y58478571D01*
X24992857Y58478571D02*
X25050000Y58507142D01*
X25107142Y58564285D01*
X25135714Y58678571D01*
X25135714Y58878571D01*
X25107142Y58992857D01*
X25050000Y59050000D01*
X24992857Y59078571D01*
X24878571Y59078571D01*
X24821428Y59050000D01*
X24764285Y58992857D01*
X24735714Y58878571D01*
X24735714Y58678571D01*
X24764285Y58564285D01*
X24821428Y58507142D01*
X24878571Y58478571D01*
X24992857Y58478571D01*
X24478571Y58478571D02*
X24478571Y59078571D01*
X24278571Y58650000D01*
X24078571Y59078571D01*
X24078571Y58478571D01*
D11*
%TO.C,G\u002A\u002A\u002A*%
G36*
X27632190Y64458689D02*
G01*
X27618708Y64444652D01*
X27594645Y64419534D01*
X27560922Y64384298D01*
X27518461Y64339909D01*
X27468183Y64287331D01*
X27411010Y64227527D01*
X27347863Y64161462D01*
X27279664Y64090099D01*
X27207335Y64014403D01*
X27131797Y63935337D01*
X27059797Y63859964D01*
X26539607Y63315370D01*
X26535323Y64409178D01*
X26298099Y64404558D01*
X26295977Y63573853D01*
X26295742Y63457776D01*
X26295637Y63346518D01*
X26295656Y63241195D01*
X26295794Y63142923D01*
X26296045Y63052819D01*
X26296403Y62971998D01*
X26296864Y62901576D01*
X26297421Y62842671D01*
X26298068Y62796398D01*
X26298801Y62763874D01*
X26299613Y62746213D01*
X26300141Y62743216D01*
X26306663Y62749112D01*
X26323903Y62766237D01*
X26351073Y62793778D01*
X26387385Y62830922D01*
X26432052Y62876853D01*
X26484285Y62930759D01*
X26543297Y62991827D01*
X26608299Y63059242D01*
X26678505Y63132191D01*
X26753127Y63209860D01*
X26831375Y63291435D01*
X26872722Y63334590D01*
X27439017Y63925895D01*
X27441159Y63380325D01*
X27443300Y62834754D01*
X27684689Y62834754D01*
X27684393Y64512820D01*
X27632190Y64458689D01*
G37*
X27632190Y64458689D02*
X27618708Y64444652D01*
X27594645Y64419534D01*
X27560922Y64384298D01*
X27518461Y64339909D01*
X27468183Y64287331D01*
X27411010Y64227527D01*
X27347863Y64161462D01*
X27279664Y64090099D01*
X27207335Y64014403D01*
X27131797Y63935337D01*
X27059797Y63859964D01*
X26539607Y63315370D01*
X26535323Y64409178D01*
X26298099Y64404558D01*
X26295977Y63573853D01*
X26295742Y63457776D01*
X26295637Y63346518D01*
X26295656Y63241195D01*
X26295794Y63142923D01*
X26296045Y63052819D01*
X26296403Y62971998D01*
X26296864Y62901576D01*
X26297421Y62842671D01*
X26298068Y62796398D01*
X26298801Y62763874D01*
X26299613Y62746213D01*
X26300141Y62743216D01*
X26306663Y62749112D01*
X26323903Y62766237D01*
X26351073Y62793778D01*
X26387385Y62830922D01*
X26432052Y62876853D01*
X26484285Y62930759D01*
X26543297Y62991827D01*
X26608299Y63059242D01*
X26678505Y63132191D01*
X26753127Y63209860D01*
X26831375Y63291435D01*
X26872722Y63334590D01*
X27439017Y63925895D01*
X27441159Y63380325D01*
X27443300Y62834754D01*
X27684689Y62834754D01*
X27684393Y64512820D01*
X27632190Y64458689D01*
G36*
X32460882Y64427578D02*
G01*
X32402222Y64423496D01*
X32350938Y64415686D01*
X32302442Y64403194D01*
X32252145Y64385066D01*
X32195455Y64360346D01*
X32190240Y64357932D01*
X32115115Y64323027D01*
X32115115Y64042853D01*
X32168060Y64079864D01*
X32223320Y64114694D01*
X32284086Y64146602D01*
X32345056Y64173133D01*
X32400931Y64191830D01*
X32419082Y64196234D01*
X32496822Y64206731D01*
X32578083Y64207080D01*
X32658122Y64197771D01*
X32732194Y64179293D01*
X32783184Y64158629D01*
X32864650Y64109689D01*
X32937520Y64048801D01*
X32999865Y63978156D01*
X33049757Y63899951D01*
X33085270Y63816377D01*
X33086054Y63813932D01*
X33109347Y63716453D01*
X33117632Y63620423D01*
X33111753Y63527151D01*
X33092548Y63437945D01*
X33060859Y63354115D01*
X33017527Y63276968D01*
X32963393Y63207814D01*
X32899297Y63147962D01*
X32826080Y63098721D01*
X32744584Y63061399D01*
X32655648Y63037305D01*
X32581491Y63028528D01*
X32503499Y63027625D01*
X32435542Y63034730D01*
X32372577Y63050778D01*
X32309558Y63076701D01*
X32302492Y63080153D01*
X32262157Y63101737D01*
X32220025Y63126877D01*
X32183365Y63151164D01*
X32173410Y63158465D01*
X32119279Y63199650D01*
X32116991Y63062025D01*
X32116571Y63000064D01*
X32117647Y62954608D01*
X32120224Y62925573D01*
X32123971Y62913233D01*
X32136702Y62904558D01*
X32161835Y62892335D01*
X32195853Y62877905D01*
X32235235Y62862611D01*
X32276463Y62847793D01*
X32316017Y62834794D01*
X32350379Y62824954D01*
X32363912Y62821765D01*
X32404975Y62815192D01*
X32456152Y62810139D01*
X32512369Y62806799D01*
X32568554Y62805368D01*
X32619633Y62806040D01*
X32660532Y62809010D01*
X32668213Y62810077D01*
X32781134Y62835982D01*
X32887511Y62876488D01*
X32986167Y62930547D01*
X33075928Y62997114D01*
X33155618Y63075141D01*
X33224060Y63163581D01*
X33280079Y63261387D01*
X33322499Y63367514D01*
X33332613Y63401606D01*
X33339961Y63430568D01*
X33345160Y63457538D01*
X33348545Y63486348D01*
X33350454Y63520830D01*
X33351223Y63564817D01*
X33351230Y63613410D01*
X33350658Y63670106D01*
X33349237Y63713947D01*
X33346623Y63748729D01*
X33342475Y63778244D01*
X33336451Y63806287D01*
X33332447Y63821607D01*
X33295905Y63925472D01*
X33245082Y64024720D01*
X33181685Y64117318D01*
X33107421Y64201230D01*
X33023998Y64274422D01*
X32933122Y64334859D01*
X32878130Y64363056D01*
X32817222Y64388465D01*
X32758696Y64406914D01*
X32698159Y64419237D01*
X32631219Y64426268D01*
X32553484Y64428841D01*
X32531509Y64428885D01*
X32460882Y64427578D01*
G37*
X32460882Y64427578D02*
X32402222Y64423496D01*
X32350938Y64415686D01*
X32302442Y64403194D01*
X32252145Y64385066D01*
X32195455Y64360346D01*
X32190240Y64357932D01*
X32115115Y64323027D01*
X32115115Y64042853D01*
X32168060Y64079864D01*
X32223320Y64114694D01*
X32284086Y64146602D01*
X32345056Y64173133D01*
X32400931Y64191830D01*
X32419082Y64196234D01*
X32496822Y64206731D01*
X32578083Y64207080D01*
X32658122Y64197771D01*
X32732194Y64179293D01*
X32783184Y64158629D01*
X32864650Y64109689D01*
X32937520Y64048801D01*
X32999865Y63978156D01*
X33049757Y63899951D01*
X33085270Y63816377D01*
X33086054Y63813932D01*
X33109347Y63716453D01*
X33117632Y63620423D01*
X33111753Y63527151D01*
X33092548Y63437945D01*
X33060859Y63354115D01*
X33017527Y63276968D01*
X32963393Y63207814D01*
X32899297Y63147962D01*
X32826080Y63098721D01*
X32744584Y63061399D01*
X32655648Y63037305D01*
X32581491Y63028528D01*
X32503499Y63027625D01*
X32435542Y63034730D01*
X32372577Y63050778D01*
X32309558Y63076701D01*
X32302492Y63080153D01*
X32262157Y63101737D01*
X32220025Y63126877D01*
X32183365Y63151164D01*
X32173410Y63158465D01*
X32119279Y63199650D01*
X32116991Y63062025D01*
X32116571Y63000064D01*
X32117647Y62954608D01*
X32120224Y62925573D01*
X32123971Y62913233D01*
X32136702Y62904558D01*
X32161835Y62892335D01*
X32195853Y62877905D01*
X32235235Y62862611D01*
X32276463Y62847793D01*
X32316017Y62834794D01*
X32350379Y62824954D01*
X32363912Y62821765D01*
X32404975Y62815192D01*
X32456152Y62810139D01*
X32512369Y62806799D01*
X32568554Y62805368D01*
X32619633Y62806040D01*
X32660532Y62809010D01*
X32668213Y62810077D01*
X32781134Y62835982D01*
X32887511Y62876488D01*
X32986167Y62930547D01*
X33075928Y62997114D01*
X33155618Y63075141D01*
X33224060Y63163581D01*
X33280079Y63261387D01*
X33322499Y63367514D01*
X33332613Y63401606D01*
X33339961Y63430568D01*
X33345160Y63457538D01*
X33348545Y63486348D01*
X33350454Y63520830D01*
X33351223Y63564817D01*
X33351230Y63613410D01*
X33350658Y63670106D01*
X33349237Y63713947D01*
X33346623Y63748729D01*
X33342475Y63778244D01*
X33336451Y63806287D01*
X33332447Y63821607D01*
X33295905Y63925472D01*
X33245082Y64024720D01*
X33181685Y64117318D01*
X33107421Y64201230D01*
X33023998Y64274422D01*
X32933122Y64334859D01*
X32878130Y64363056D01*
X32817222Y64388465D01*
X32758696Y64406914D01*
X32698159Y64419237D01*
X32631219Y64426268D01*
X32553484Y64428841D01*
X32531509Y64428885D01*
X32460882Y64427578D01*
G36*
X28759676Y64431249D02*
G01*
X28644930Y64418631D01*
X28538813Y64392214D01*
X28439981Y64351400D01*
X28347093Y64295588D01*
X28258807Y64224178D01*
X28225933Y64192575D01*
X28159568Y64120155D01*
X28106466Y64048374D01*
X28064005Y63972868D01*
X28029562Y63889270D01*
X28013087Y63838262D01*
X27997108Y63767080D01*
X27987653Y63686329D01*
X27984932Y63601856D01*
X27989151Y63519503D01*
X27999280Y63450933D01*
X28029998Y63342499D01*
X28075351Y63240487D01*
X28134149Y63146133D01*
X28205201Y63060670D01*
X28287315Y62985333D01*
X28379301Y62921355D01*
X28479966Y62869970D01*
X28588121Y62832413D01*
X28599041Y62829532D01*
X28662713Y62816697D01*
X28733797Y62808184D01*
X28806779Y62804254D01*
X28876141Y62805169D01*
X28936369Y62811192D01*
X28946781Y62813023D01*
X29064282Y62843352D01*
X29173152Y62887776D01*
X29274179Y62946655D01*
X29329443Y62987530D01*
X29415358Y63065512D01*
X29486140Y63149854D01*
X29542067Y63241152D01*
X29583421Y63340004D01*
X29610481Y63447004D01*
X29623529Y63562749D01*
X29624902Y63615843D01*
X29624815Y63617574D01*
X29386641Y63617574D01*
X29380731Y63520451D01*
X29362455Y63433197D01*
X29330915Y63353599D01*
X29285207Y63279444D01*
X29224432Y63208520D01*
X29217151Y63201180D01*
X29149266Y63139860D01*
X29082487Y63093388D01*
X29013650Y63060516D01*
X28939589Y63039995D01*
X28857141Y63030574D01*
X28783968Y63030160D01*
X28730112Y63033012D01*
X28686456Y63038326D01*
X28646610Y63047059D01*
X28620921Y63054644D01*
X28538593Y63089302D01*
X28461553Y63138102D01*
X28392040Y63198815D01*
X28332294Y63269210D01*
X28284552Y63347055D01*
X28254205Y63420083D01*
X28238997Y63482088D01*
X28229529Y63553672D01*
X28226089Y63628676D01*
X28228967Y63700941D01*
X28238162Y63763032D01*
X28265545Y63849444D01*
X28307134Y63930662D01*
X28361093Y64004849D01*
X28425583Y64070169D01*
X28498764Y64124782D01*
X28578801Y64166852D01*
X28663853Y64194542D01*
X28671541Y64196234D01*
X28770893Y64209301D01*
X28868373Y64206661D01*
X28962420Y64188855D01*
X29051477Y64156425D01*
X29133983Y64109912D01*
X29208380Y64049858D01*
X29262020Y63991165D01*
X29311939Y63919851D01*
X29348221Y63847060D01*
X29371962Y63769509D01*
X29384258Y63683914D01*
X29386641Y63617574D01*
X29624815Y63617574D01*
X29619110Y63729858D01*
X29600817Y63834039D01*
X29569234Y63930397D01*
X29523571Y64020940D01*
X29463038Y64107680D01*
X29406016Y64172914D01*
X29317846Y64254756D01*
X29223503Y64321130D01*
X29122960Y64372046D01*
X29016188Y64407514D01*
X28903161Y64427547D01*
X28783851Y64432156D01*
X28759676Y64431249D01*
G37*
X28759676Y64431249D02*
X28644930Y64418631D01*
X28538813Y64392214D01*
X28439981Y64351400D01*
X28347093Y64295588D01*
X28258807Y64224178D01*
X28225933Y64192575D01*
X28159568Y64120155D01*
X28106466Y64048374D01*
X28064005Y63972868D01*
X28029562Y63889270D01*
X28013087Y63838262D01*
X27997108Y63767080D01*
X27987653Y63686329D01*
X27984932Y63601856D01*
X27989151Y63519503D01*
X27999280Y63450933D01*
X28029998Y63342499D01*
X28075351Y63240487D01*
X28134149Y63146133D01*
X28205201Y63060670D01*
X28287315Y62985333D01*
X28379301Y62921355D01*
X28479966Y62869970D01*
X28588121Y62832413D01*
X28599041Y62829532D01*
X28662713Y62816697D01*
X28733797Y62808184D01*
X28806779Y62804254D01*
X28876141Y62805169D01*
X28936369Y62811192D01*
X28946781Y62813023D01*
X29064282Y62843352D01*
X29173152Y62887776D01*
X29274179Y62946655D01*
X29329443Y62987530D01*
X29415358Y63065512D01*
X29486140Y63149854D01*
X29542067Y63241152D01*
X29583421Y63340004D01*
X29610481Y63447004D01*
X29623529Y63562749D01*
X29624902Y63615843D01*
X29624815Y63617574D01*
X29386641Y63617574D01*
X29380731Y63520451D01*
X29362455Y63433197D01*
X29330915Y63353599D01*
X29285207Y63279444D01*
X29224432Y63208520D01*
X29217151Y63201180D01*
X29149266Y63139860D01*
X29082487Y63093388D01*
X29013650Y63060516D01*
X28939589Y63039995D01*
X28857141Y63030574D01*
X28783968Y63030160D01*
X28730112Y63033012D01*
X28686456Y63038326D01*
X28646610Y63047059D01*
X28620921Y63054644D01*
X28538593Y63089302D01*
X28461553Y63138102D01*
X28392040Y63198815D01*
X28332294Y63269210D01*
X28284552Y63347055D01*
X28254205Y63420083D01*
X28238997Y63482088D01*
X28229529Y63553672D01*
X28226089Y63628676D01*
X28228967Y63700941D01*
X28238162Y63763032D01*
X28265545Y63849444D01*
X28307134Y63930662D01*
X28361093Y64004849D01*
X28425583Y64070169D01*
X28498764Y64124782D01*
X28578801Y64166852D01*
X28663853Y64194542D01*
X28671541Y64196234D01*
X28770893Y64209301D01*
X28868373Y64206661D01*
X28962420Y64188855D01*
X29051477Y64156425D01*
X29133983Y64109912D01*
X29208380Y64049858D01*
X29262020Y63991165D01*
X29311939Y63919851D01*
X29348221Y63847060D01*
X29371962Y63769509D01*
X29384258Y63683914D01*
X29386641Y63617574D01*
X29624815Y63617574D01*
X29619110Y63729858D01*
X29600817Y63834039D01*
X29569234Y63930397D01*
X29523571Y64020940D01*
X29463038Y64107680D01*
X29406016Y64172914D01*
X29317846Y64254756D01*
X29223503Y64321130D01*
X29122960Y64372046D01*
X29016188Y64407514D01*
X28903161Y64427547D01*
X28783851Y64432156D01*
X28759676Y64431249D01*
G36*
X24496221Y64432055D02*
G01*
X24431995Y64425806D01*
X24430988Y64425645D01*
X24376029Y64413880D01*
X24313893Y64395949D01*
X24251727Y64374187D01*
X24196675Y64350931D01*
X24184902Y64345178D01*
X24145345Y64325162D01*
X24145345Y64042405D01*
X24183209Y64071308D01*
X24269889Y64128767D01*
X24358754Y64170121D01*
X24451212Y64195902D01*
X24540918Y64206334D01*
X24641285Y64203756D01*
X24733870Y64186481D01*
X24819002Y64154364D01*
X24897007Y64107258D01*
X24968211Y64045016D01*
X25012174Y63994900D01*
X25063251Y63921933D01*
X25100563Y63847568D01*
X25125512Y63768051D01*
X25139496Y63679624D01*
X25142030Y63646381D01*
X25140318Y63544573D01*
X25123063Y63448660D01*
X25090381Y63358934D01*
X25042390Y63275687D01*
X24979205Y63199212D01*
X24953065Y63173675D01*
X24884644Y63118296D01*
X24813379Y63077236D01*
X24736325Y63049293D01*
X24650540Y63033264D01*
X24599214Y63029122D01*
X24510563Y63029791D01*
X24430056Y63041793D01*
X24354235Y63066232D01*
X24279646Y63104209D01*
X24205722Y63154631D01*
X24145345Y63200354D01*
X24145345Y62912171D01*
X24201558Y62886635D01*
X24281714Y62855174D01*
X24367513Y62830287D01*
X24454925Y62812660D01*
X24539921Y62802976D01*
X24618470Y62801920D01*
X24670000Y62807084D01*
X24767137Y62826317D01*
X24851954Y62851066D01*
X24928273Y62882733D01*
X24999911Y62922716D01*
X25018537Y62934845D01*
X25110565Y63005982D01*
X25190400Y63087265D01*
X25257405Y63177321D01*
X25310937Y63274777D01*
X25350357Y63378259D01*
X25375026Y63486395D01*
X25384302Y63597812D01*
X25378169Y63706291D01*
X25355990Y63819709D01*
X25319241Y63927425D01*
X25269001Y64028169D01*
X25206349Y64120671D01*
X25132365Y64203660D01*
X25048127Y64275867D01*
X24954714Y64336020D01*
X24853206Y64382851D01*
X24784220Y64405319D01*
X24719918Y64419052D01*
X24646364Y64428323D01*
X24569738Y64432776D01*
X24496221Y64432055D01*
G37*
X24496221Y64432055D02*
X24431995Y64425806D01*
X24430988Y64425645D01*
X24376029Y64413880D01*
X24313893Y64395949D01*
X24251727Y64374187D01*
X24196675Y64350931D01*
X24184902Y64345178D01*
X24145345Y64325162D01*
X24145345Y64042405D01*
X24183209Y64071308D01*
X24269889Y64128767D01*
X24358754Y64170121D01*
X24451212Y64195902D01*
X24540918Y64206334D01*
X24641285Y64203756D01*
X24733870Y64186481D01*
X24819002Y64154364D01*
X24897007Y64107258D01*
X24968211Y64045016D01*
X25012174Y63994900D01*
X25063251Y63921933D01*
X25100563Y63847568D01*
X25125512Y63768051D01*
X25139496Y63679624D01*
X25142030Y63646381D01*
X25140318Y63544573D01*
X25123063Y63448660D01*
X25090381Y63358934D01*
X25042390Y63275687D01*
X24979205Y63199212D01*
X24953065Y63173675D01*
X24884644Y63118296D01*
X24813379Y63077236D01*
X24736325Y63049293D01*
X24650540Y63033264D01*
X24599214Y63029122D01*
X24510563Y63029791D01*
X24430056Y63041793D01*
X24354235Y63066232D01*
X24279646Y63104209D01*
X24205722Y63154631D01*
X24145345Y63200354D01*
X24145345Y62912171D01*
X24201558Y62886635D01*
X24281714Y62855174D01*
X24367513Y62830287D01*
X24454925Y62812660D01*
X24539921Y62802976D01*
X24618470Y62801920D01*
X24670000Y62807084D01*
X24767137Y62826317D01*
X24851954Y62851066D01*
X24928273Y62882733D01*
X24999911Y62922716D01*
X25018537Y62934845D01*
X25110565Y63005982D01*
X25190400Y63087265D01*
X25257405Y63177321D01*
X25310937Y63274777D01*
X25350357Y63378259D01*
X25375026Y63486395D01*
X25384302Y63597812D01*
X25378169Y63706291D01*
X25355990Y63819709D01*
X25319241Y63927425D01*
X25269001Y64028169D01*
X25206349Y64120671D01*
X25132365Y64203660D01*
X25048127Y64275867D01*
X24954714Y64336020D01*
X24853206Y64382851D01*
X24784220Y64405319D01*
X24719918Y64419052D01*
X24646364Y64428323D01*
X24569738Y64432776D01*
X24496221Y64432055D01*
G36*
X23291637Y64427041D02*
G01*
X23212473Y64406708D01*
X23140688Y64372194D01*
X23075819Y64323839D01*
X23052165Y64300982D01*
X23026430Y64273299D01*
X23001223Y64243972D01*
X22979150Y64216184D01*
X22962821Y64193120D01*
X22954844Y64177963D01*
X22954459Y64175713D01*
X22961075Y64170007D01*
X22978769Y64157792D01*
X23004312Y64141085D01*
X23034473Y64121904D01*
X23066025Y64102265D01*
X23095736Y64084188D01*
X23120378Y64069688D01*
X23136720Y64060783D01*
X23141383Y64058951D01*
X23146949Y64065224D01*
X23158350Y64081145D01*
X23165302Y64091462D01*
X23205508Y64142445D01*
X23249492Y64178016D01*
X23299599Y64199356D01*
X23358176Y64207648D01*
X23394782Y64207079D01*
X23458634Y64197074D01*
X23512506Y64175922D01*
X23555232Y64144643D01*
X23585647Y64104260D01*
X23602584Y64055793D01*
X23605807Y64022124D01*
X23602496Y63983326D01*
X23590901Y63949014D01*
X23569648Y63917918D01*
X23537362Y63888771D01*
X23492666Y63860301D01*
X23434187Y63831241D01*
X23369313Y63803803D01*
X23274227Y63763696D01*
X23194079Y63725138D01*
X23127342Y63687149D01*
X23072492Y63648749D01*
X23028002Y63608960D01*
X22992348Y63566800D01*
X22985819Y63557522D01*
X22954354Y63504354D01*
X22933021Y63450258D01*
X22920217Y63390074D01*
X22914784Y63329138D01*
X22916116Y63238173D01*
X22929910Y63156995D01*
X22956928Y63083541D01*
X22997930Y63015745D01*
X23053675Y62951544D01*
X23053959Y62951262D01*
X23119218Y62894454D01*
X23185895Y62852973D01*
X23256155Y62825506D01*
X23266197Y62822758D01*
X23312189Y62813929D01*
X23367560Y62808000D01*
X23425224Y62805380D01*
X23478091Y62806477D01*
X23504162Y62809033D01*
X23588469Y62828802D01*
X23666745Y62862863D01*
X23737010Y62909855D01*
X23797284Y62968418D01*
X23845588Y63037190D01*
X23851285Y63047561D01*
X23863463Y63073758D01*
X23877244Y63108477D01*
X23891189Y63147403D01*
X23903856Y63186220D01*
X23913806Y63220612D01*
X23919599Y63246264D01*
X23920492Y63254968D01*
X23912523Y63261232D01*
X23889647Y63269573D01*
X23853416Y63279499D01*
X23816306Y63288151D01*
X23775480Y63297172D01*
X23739557Y63305202D01*
X23712219Y63311409D01*
X23697148Y63314966D01*
X23696532Y63315124D01*
X23687884Y63315202D01*
X23681664Y63307905D01*
X23676340Y63290070D01*
X23671069Y63262498D01*
X23656548Y63200721D01*
X23635853Y63151276D01*
X23607134Y63110413D01*
X23585298Y63088466D01*
X23535512Y63054367D01*
X23478864Y63033427D01*
X23418568Y63025547D01*
X23357841Y63030626D01*
X23299899Y63048564D01*
X23247958Y63079261D01*
X23224911Y63099698D01*
X23195249Y63133821D01*
X23175343Y63167968D01*
X23163245Y63207063D01*
X23157008Y63256029D01*
X23155959Y63274019D01*
X23154634Y63311898D01*
X23155468Y63338610D01*
X23159303Y63359591D01*
X23166975Y63380277D01*
X23175000Y63397329D01*
X23208933Y63447872D01*
X23239956Y63477072D01*
X23260717Y63492947D01*
X23280952Y63506859D01*
X23303270Y63520151D01*
X23330281Y63534166D01*
X23364590Y63550249D01*
X23408808Y63569743D01*
X23465543Y63593992D01*
X23473258Y63597261D01*
X23548331Y63630630D01*
X23609854Y63661754D01*
X23660479Y63692253D01*
X23702858Y63723743D01*
X23739643Y63757843D01*
X23744073Y63762469D01*
X23792530Y63825094D01*
X23826315Y63893677D01*
X23845322Y63966149D01*
X23849446Y64040437D01*
X23838581Y64114472D01*
X23812621Y64186184D01*
X23771461Y64253501D01*
X23769257Y64256384D01*
X23712204Y64316957D01*
X23644324Y64365651D01*
X23567126Y64401781D01*
X23482117Y64424660D01*
X23390807Y64433601D01*
X23379598Y64433705D01*
X23291637Y64427041D01*
G37*
X23291637Y64427041D02*
X23212473Y64406708D01*
X23140688Y64372194D01*
X23075819Y64323839D01*
X23052165Y64300982D01*
X23026430Y64273299D01*
X23001223Y64243972D01*
X22979150Y64216184D01*
X22962821Y64193120D01*
X22954844Y64177963D01*
X22954459Y64175713D01*
X22961075Y64170007D01*
X22978769Y64157792D01*
X23004312Y64141085D01*
X23034473Y64121904D01*
X23066025Y64102265D01*
X23095736Y64084188D01*
X23120378Y64069688D01*
X23136720Y64060783D01*
X23141383Y64058951D01*
X23146949Y64065224D01*
X23158350Y64081145D01*
X23165302Y64091462D01*
X23205508Y64142445D01*
X23249492Y64178016D01*
X23299599Y64199356D01*
X23358176Y64207648D01*
X23394782Y64207079D01*
X23458634Y64197074D01*
X23512506Y64175922D01*
X23555232Y64144643D01*
X23585647Y64104260D01*
X23602584Y64055793D01*
X23605807Y64022124D01*
X23602496Y63983326D01*
X23590901Y63949014D01*
X23569648Y63917918D01*
X23537362Y63888771D01*
X23492666Y63860301D01*
X23434187Y63831241D01*
X23369313Y63803803D01*
X23274227Y63763696D01*
X23194079Y63725138D01*
X23127342Y63687149D01*
X23072492Y63648749D01*
X23028002Y63608960D01*
X22992348Y63566800D01*
X22985819Y63557522D01*
X22954354Y63504354D01*
X22933021Y63450258D01*
X22920217Y63390074D01*
X22914784Y63329138D01*
X22916116Y63238173D01*
X22929910Y63156995D01*
X22956928Y63083541D01*
X22997930Y63015745D01*
X23053675Y62951544D01*
X23053959Y62951262D01*
X23119218Y62894454D01*
X23185895Y62852973D01*
X23256155Y62825506D01*
X23266197Y62822758D01*
X23312189Y62813929D01*
X23367560Y62808000D01*
X23425224Y62805380D01*
X23478091Y62806477D01*
X23504162Y62809033D01*
X23588469Y62828802D01*
X23666745Y62862863D01*
X23737010Y62909855D01*
X23797284Y62968418D01*
X23845588Y63037190D01*
X23851285Y63047561D01*
X23863463Y63073758D01*
X23877244Y63108477D01*
X23891189Y63147403D01*
X23903856Y63186220D01*
X23913806Y63220612D01*
X23919599Y63246264D01*
X23920492Y63254968D01*
X23912523Y63261232D01*
X23889647Y63269573D01*
X23853416Y63279499D01*
X23816306Y63288151D01*
X23775480Y63297172D01*
X23739557Y63305202D01*
X23712219Y63311409D01*
X23697148Y63314966D01*
X23696532Y63315124D01*
X23687884Y63315202D01*
X23681664Y63307905D01*
X23676340Y63290070D01*
X23671069Y63262498D01*
X23656548Y63200721D01*
X23635853Y63151276D01*
X23607134Y63110413D01*
X23585298Y63088466D01*
X23535512Y63054367D01*
X23478864Y63033427D01*
X23418568Y63025547D01*
X23357841Y63030626D01*
X23299899Y63048564D01*
X23247958Y63079261D01*
X23224911Y63099698D01*
X23195249Y63133821D01*
X23175343Y63167968D01*
X23163245Y63207063D01*
X23157008Y63256029D01*
X23155959Y63274019D01*
X23154634Y63311898D01*
X23155468Y63338610D01*
X23159303Y63359591D01*
X23166975Y63380277D01*
X23175000Y63397329D01*
X23208933Y63447872D01*
X23239956Y63477072D01*
X23260717Y63492947D01*
X23280952Y63506859D01*
X23303270Y63520151D01*
X23330281Y63534166D01*
X23364590Y63550249D01*
X23408808Y63569743D01*
X23465543Y63593992D01*
X23473258Y63597261D01*
X23548331Y63630630D01*
X23609854Y63661754D01*
X23660479Y63692253D01*
X23702858Y63723743D01*
X23739643Y63757843D01*
X23744073Y63762469D01*
X23792530Y63825094D01*
X23826315Y63893677D01*
X23845322Y63966149D01*
X23849446Y64040437D01*
X23838581Y64114472D01*
X23812621Y64186184D01*
X23771461Y64253501D01*
X23769257Y64256384D01*
X23712204Y64316957D01*
X23644324Y64365651D01*
X23567126Y64401781D01*
X23482117Y64424660D01*
X23390807Y64433601D01*
X23379598Y64433705D01*
X23291637Y64427041D01*
G36*
X35697939Y64294213D02*
G01*
X35695615Y64183869D01*
X36329017Y64183869D01*
X36329017Y63800787D01*
X35712754Y63800787D01*
X35712754Y63584262D01*
X36329017Y63584262D01*
X36329017Y63051279D01*
X35696099Y63051279D01*
X35696099Y62834754D01*
X36570610Y62834754D01*
X36568485Y63619656D01*
X36566361Y64404558D01*
X35700263Y64404558D01*
X35697939Y64294213D01*
G37*
X35697939Y64294213D02*
X35695615Y64183869D01*
X36329017Y64183869D01*
X36329017Y63800787D01*
X35712754Y63800787D01*
X35712754Y63584262D01*
X36329017Y63584262D01*
X36329017Y63051279D01*
X35696099Y63051279D01*
X35696099Y62834754D01*
X36570610Y62834754D01*
X36568485Y63619656D01*
X36566361Y64404558D01*
X35700263Y64404558D01*
X35697939Y64294213D01*
G36*
X35148492Y63727918D02*
G01*
X35146361Y63051279D01*
X34688427Y63051279D01*
X34688427Y62834754D01*
X35388053Y62834754D01*
X35385928Y63619656D01*
X35383804Y64404558D01*
X35150623Y64404558D01*
X35148492Y63727918D01*
G37*
X35148492Y63727918D02*
X35146361Y63051279D01*
X34688427Y63051279D01*
X34688427Y62834754D01*
X35388053Y62834754D01*
X35385928Y63619656D01*
X35383804Y64404558D01*
X35150623Y64404558D01*
X35148492Y63727918D01*
G36*
X34024279Y64406714D02*
G01*
X33593312Y64404558D01*
X33590988Y64294213D01*
X33588665Y64183869D01*
X34222066Y64183869D01*
X34222066Y63800787D01*
X33614132Y63800787D01*
X33614132Y63584262D01*
X34222066Y63584262D01*
X34222066Y63051279D01*
X33589148Y63051279D01*
X33589148Y62834754D01*
X34455246Y62834754D01*
X34455246Y64408871D01*
X34024279Y64406714D01*
G37*
X34024279Y64406714D02*
X33593312Y64404558D01*
X33590988Y64294213D01*
X33588665Y64183869D01*
X34222066Y64183869D01*
X34222066Y63800787D01*
X33614132Y63800787D01*
X33614132Y63584262D01*
X34222066Y63584262D01*
X34222066Y63051279D01*
X33589148Y63051279D01*
X33589148Y62834754D01*
X34455246Y62834754D01*
X34455246Y64408871D01*
X34024279Y64406714D01*
G36*
X31024164Y64183869D02*
G01*
X31382263Y64183869D01*
X31382263Y62834754D01*
X31623771Y62834754D01*
X31623771Y64183869D01*
X31981869Y64183869D01*
X31981869Y64408721D01*
X31024164Y64408721D01*
X31024164Y64183869D01*
G37*
X31024164Y64183869D02*
X31382263Y64183869D01*
X31382263Y62834754D01*
X31623771Y62834754D01*
X31623771Y64183869D01*
X31981869Y64183869D01*
X31981869Y64408721D01*
X31024164Y64408721D01*
X31024164Y64183869D01*
G36*
X30680640Y64408648D02*
G01*
X30564494Y64407131D01*
X30463243Y64402476D01*
X30375357Y64394316D01*
X30299306Y64382282D01*
X30233562Y64366006D01*
X30176594Y64345120D01*
X30126873Y64319254D01*
X30082871Y64288042D01*
X30048141Y64256345D01*
X29998875Y64195148D01*
X29962545Y64126139D01*
X29938999Y64051613D01*
X29928083Y63973869D01*
X29929643Y63895205D01*
X29943527Y63817917D01*
X29969580Y63744304D01*
X30007649Y63676664D01*
X30057580Y63617293D01*
X30092853Y63586837D01*
X30127361Y63561592D01*
X30155660Y63544083D01*
X30183997Y63530990D01*
X30218617Y63518991D01*
X30223054Y63517602D01*
X30247079Y63508830D01*
X30262767Y63500589D01*
X30266385Y63496182D01*
X30261462Y63488075D01*
X30247692Y63467881D01*
X30226047Y63436967D01*
X30197500Y63396699D01*
X30163024Y63348444D01*
X30123590Y63293568D01*
X30080171Y63233439D01*
X30039003Y63176664D01*
X29992492Y63112641D01*
X29948730Y63052401D01*
X29908744Y62997356D01*
X29873559Y62948918D01*
X29844202Y62908500D01*
X29821699Y62877514D01*
X29807075Y62857372D01*
X29801577Y62849795D01*
X29798467Y62844385D01*
X29799553Y62840454D01*
X29806946Y62837768D01*
X29822753Y62836091D01*
X29849083Y62835187D01*
X29888045Y62834820D01*
X29936157Y62834754D01*
X30081618Y62834754D01*
X30305137Y63155372D01*
X30357501Y63230381D01*
X30401291Y63292808D01*
X30437379Y63343790D01*
X30466638Y63384462D01*
X30489942Y63415961D01*
X30508164Y63439421D01*
X30522176Y63455979D01*
X30532851Y63466771D01*
X30541063Y63472932D01*
X30547684Y63475598D01*
X30551558Y63475995D01*
X30574459Y63476000D01*
X30574459Y62834754D01*
X30807640Y62834754D01*
X30807640Y63684197D01*
X30574707Y63684197D01*
X30493387Y63684320D01*
X30450623Y63685735D01*
X30407065Y63689401D01*
X30370094Y63694629D01*
X30359755Y63696776D01*
X30293032Y63718735D01*
X30240046Y63749986D01*
X30200608Y63790684D01*
X30174527Y63840985D01*
X30171028Y63851770D01*
X30158443Y63917547D01*
X30160305Y63979398D01*
X30176227Y64035488D01*
X30205825Y64083983D01*
X30223759Y64103079D01*
X30261451Y64132244D01*
X30304985Y64153546D01*
X30357064Y64167788D01*
X30420390Y64175776D01*
X30475593Y64178126D01*
X30570295Y64179705D01*
X30574707Y63684197D01*
X30807640Y63684197D01*
X30807640Y64408721D01*
X30680640Y64408648D01*
G37*
X30680640Y64408648D02*
X30564494Y64407131D01*
X30463243Y64402476D01*
X30375357Y64394316D01*
X30299306Y64382282D01*
X30233562Y64366006D01*
X30176594Y64345120D01*
X30126873Y64319254D01*
X30082871Y64288042D01*
X30048141Y64256345D01*
X29998875Y64195148D01*
X29962545Y64126139D01*
X29938999Y64051613D01*
X29928083Y63973869D01*
X29929643Y63895205D01*
X29943527Y63817917D01*
X29969580Y63744304D01*
X30007649Y63676664D01*
X30057580Y63617293D01*
X30092853Y63586837D01*
X30127361Y63561592D01*
X30155660Y63544083D01*
X30183997Y63530990D01*
X30218617Y63518991D01*
X30223054Y63517602D01*
X30247079Y63508830D01*
X30262767Y63500589D01*
X30266385Y63496182D01*
X30261462Y63488075D01*
X30247692Y63467881D01*
X30226047Y63436967D01*
X30197500Y63396699D01*
X30163024Y63348444D01*
X30123590Y63293568D01*
X30080171Y63233439D01*
X30039003Y63176664D01*
X29992492Y63112641D01*
X29948730Y63052401D01*
X29908744Y62997356D01*
X29873559Y62948918D01*
X29844202Y62908500D01*
X29821699Y62877514D01*
X29807075Y62857372D01*
X29801577Y62849795D01*
X29798467Y62844385D01*
X29799553Y62840454D01*
X29806946Y62837768D01*
X29822753Y62836091D01*
X29849083Y62835187D01*
X29888045Y62834820D01*
X29936157Y62834754D01*
X30081618Y62834754D01*
X30305137Y63155372D01*
X30357501Y63230381D01*
X30401291Y63292808D01*
X30437379Y63343790D01*
X30466638Y63384462D01*
X30489942Y63415961D01*
X30508164Y63439421D01*
X30522176Y63455979D01*
X30532851Y63466771D01*
X30541063Y63472932D01*
X30547684Y63475598D01*
X30551558Y63475995D01*
X30574459Y63476000D01*
X30574459Y62834754D01*
X30807640Y62834754D01*
X30807640Y63684197D01*
X30574707Y63684197D01*
X30493387Y63684320D01*
X30450623Y63685735D01*
X30407065Y63689401D01*
X30370094Y63694629D01*
X30359755Y63696776D01*
X30293032Y63718735D01*
X30240046Y63749986D01*
X30200608Y63790684D01*
X30174527Y63840985D01*
X30171028Y63851770D01*
X30158443Y63917547D01*
X30160305Y63979398D01*
X30176227Y64035488D01*
X30205825Y64083983D01*
X30223759Y64103079D01*
X30261451Y64132244D01*
X30304985Y64153546D01*
X30357064Y64167788D01*
X30420390Y64175776D01*
X30475593Y64178126D01*
X30570295Y64179705D01*
X30574707Y63684197D01*
X30807640Y63684197D01*
X30807640Y64408721D01*
X30680640Y64408648D01*
G36*
X25686000Y62834754D02*
G01*
X25919181Y62834754D01*
X25919181Y64408721D01*
X25686000Y64408721D01*
X25686000Y62834754D01*
G37*
X25686000Y62834754D02*
X25919181Y62834754D01*
X25919181Y64408721D01*
X25686000Y64408721D01*
X25686000Y62834754D01*
G36*
X36446848Y67252529D02*
G01*
X36437754Y67243012D01*
X36417992Y67222330D01*
X36388402Y67191358D01*
X36349821Y67150975D01*
X36303088Y67102058D01*
X36249041Y67045484D01*
X36188517Y66982130D01*
X36122356Y66912873D01*
X36051395Y66838592D01*
X35976472Y66760163D01*
X35898426Y66678464D01*
X35878471Y66657575D01*
X35333836Y66087445D01*
X35329673Y66628428D01*
X35325509Y67169410D01*
X35206836Y67171721D01*
X35088164Y67174031D01*
X35088164Y66341016D01*
X35088193Y66224772D01*
X35088275Y66113345D01*
X35088408Y66007849D01*
X35088587Y65909398D01*
X35088808Y65819108D01*
X35089068Y65738092D01*
X35089363Y65667467D01*
X35089689Y65608347D01*
X35090041Y65561846D01*
X35090417Y65529080D01*
X35090811Y65511163D01*
X35091064Y65508000D01*
X35097106Y65513882D01*
X35113882Y65530988D01*
X35140613Y65558507D01*
X35176518Y65595630D01*
X35220817Y65641545D01*
X35272730Y65695443D01*
X35331477Y65756513D01*
X35396277Y65823945D01*
X35466351Y65896928D01*
X35540918Y65974652D01*
X35619197Y66056308D01*
X35663605Y66102656D01*
X36233246Y66697313D01*
X36235388Y66148460D01*
X36237529Y65599607D01*
X36470591Y65599607D01*
X36470591Y67277352D01*
X36446848Y67252529D01*
G37*
X36446848Y67252529D02*
X36437754Y67243012D01*
X36417992Y67222330D01*
X36388402Y67191358D01*
X36349821Y67150975D01*
X36303088Y67102058D01*
X36249041Y67045484D01*
X36188517Y66982130D01*
X36122356Y66912873D01*
X36051395Y66838592D01*
X35976472Y66760163D01*
X35898426Y66678464D01*
X35878471Y66657575D01*
X35333836Y66087445D01*
X35329673Y66628428D01*
X35325509Y67169410D01*
X35206836Y67171721D01*
X35088164Y67174031D01*
X35088164Y66341016D01*
X35088193Y66224772D01*
X35088275Y66113345D01*
X35088408Y66007849D01*
X35088587Y65909398D01*
X35088808Y65819108D01*
X35089068Y65738092D01*
X35089363Y65667467D01*
X35089689Y65608347D01*
X35090041Y65561846D01*
X35090417Y65529080D01*
X35090811Y65511163D01*
X35091064Y65508000D01*
X35097106Y65513882D01*
X35113882Y65530988D01*
X35140613Y65558507D01*
X35176518Y65595630D01*
X35220817Y65641545D01*
X35272730Y65695443D01*
X35331477Y65756513D01*
X35396277Y65823945D01*
X35466351Y65896928D01*
X35540918Y65974652D01*
X35619197Y66056308D01*
X35663605Y66102656D01*
X36233246Y66697313D01*
X36235388Y66148460D01*
X36237529Y65599607D01*
X36470591Y65599607D01*
X36470591Y67277352D01*
X36446848Y67252529D01*
G36*
X24439837Y67267078D02*
G01*
X24429426Y67244592D01*
X24413366Y67209237D01*
X24392189Y67162202D01*
X24366424Y67104673D01*
X24336603Y67037839D01*
X24303257Y66962888D01*
X24266915Y66881008D01*
X24228110Y66793385D01*
X24187372Y66701209D01*
X24182706Y66690639D01*
X24141616Y66597601D01*
X24102293Y66508661D01*
X24065282Y66425045D01*
X24031129Y66347980D01*
X24000378Y66278692D01*
X23973573Y66218407D01*
X23951260Y66168353D01*
X23933984Y66129755D01*
X23922289Y66103841D01*
X23916721Y66091836D01*
X23916547Y66091495D01*
X23910968Y66082186D01*
X23905881Y66080280D01*
X23899374Y66087802D01*
X23889532Y66106777D01*
X23877287Y66133052D01*
X23869085Y66150913D01*
X23854588Y66182537D01*
X23834432Y66226538D01*
X23809248Y66281533D01*
X23779672Y66346137D01*
X23746337Y66418965D01*
X23709876Y66498635D01*
X23670923Y66583761D01*
X23630112Y66672958D01*
X23599709Y66739415D01*
X23550890Y66845980D01*
X23508473Y66938212D01*
X23472039Y67016973D01*
X23441169Y67083125D01*
X23415442Y67137531D01*
X23394441Y67181052D01*
X23377745Y67214550D01*
X23364935Y67238888D01*
X23355593Y67254927D01*
X23349299Y67263530D01*
X23345633Y67265558D01*
X23344549Y67264071D01*
X23342245Y67253152D01*
X23337341Y67227249D01*
X23330076Y67187717D01*
X23320688Y67135915D01*
X23309417Y67073199D01*
X23296500Y67000926D01*
X23282175Y66920455D01*
X23266682Y66833141D01*
X23250259Y66740342D01*
X23233143Y66643416D01*
X23215575Y66543719D01*
X23197791Y66442608D01*
X23180031Y66341441D01*
X23162533Y66241575D01*
X23145535Y66144367D01*
X23129276Y66051174D01*
X23113994Y65963353D01*
X23099928Y65882262D01*
X23087317Y65809258D01*
X23076397Y65745697D01*
X23067409Y65692937D01*
X23060591Y65652336D01*
X23056180Y65625250D01*
X23054416Y65613036D01*
X23054394Y65612623D01*
X23056399Y65607479D01*
X23064015Y65603871D01*
X23079639Y65601540D01*
X23105671Y65600229D01*
X23144508Y65599679D01*
X23175148Y65599607D01*
X23217833Y65600012D01*
X23253881Y65601127D01*
X23280367Y65602801D01*
X23294366Y65604882D01*
X23295819Y65605853D01*
X23297077Y65616660D01*
X23300733Y65641987D01*
X23306491Y65679999D01*
X23314055Y65728863D01*
X23323131Y65786747D01*
X23333422Y65851816D01*
X23344633Y65922238D01*
X23356469Y65996179D01*
X23368633Y66071807D01*
X23380832Y66147288D01*
X23392768Y66220788D01*
X23404148Y66290476D01*
X23414674Y66354517D01*
X23424052Y66411078D01*
X23431986Y66458326D01*
X23438181Y66494428D01*
X23442341Y66517551D01*
X23444096Y66525738D01*
X23448275Y66522582D01*
X23458113Y66506193D01*
X23473739Y66476306D01*
X23495279Y66432654D01*
X23522861Y66374972D01*
X23556613Y66302996D01*
X23596661Y66216458D01*
X23643134Y66115094D01*
X23678965Y66036475D01*
X23718080Y65950612D01*
X23755210Y65869373D01*
X23789779Y65794004D01*
X23821209Y65725752D01*
X23848922Y65665861D01*
X23872342Y65615578D01*
X23890891Y65576149D01*
X23903992Y65548819D01*
X23911068Y65534835D01*
X23912145Y65533226D01*
X23916132Y65540684D01*
X23926250Y65562130D01*
X23941931Y65596304D01*
X23962609Y65641945D01*
X23987717Y65697790D01*
X24016690Y65762578D01*
X24048961Y65835049D01*
X24083963Y65913941D01*
X24121131Y65997992D01*
X24136832Y66033580D01*
X24174747Y66119460D01*
X24210737Y66200764D01*
X24244235Y66276221D01*
X24274673Y66344563D01*
X24301480Y66404520D01*
X24324091Y66454820D01*
X24341935Y66494195D01*
X24354446Y66521375D01*
X24361054Y66535090D01*
X24361920Y66536523D01*
X24364173Y66529093D01*
X24369027Y66506700D01*
X24376209Y66470785D01*
X24385449Y66422792D01*
X24396474Y66364163D01*
X24409013Y66296341D01*
X24422793Y66220769D01*
X24437543Y66138888D01*
X24449548Y66071564D01*
X24532591Y65603771D01*
X24656387Y65601461D01*
X24780183Y65599150D01*
X24775718Y65618116D01*
X24773526Y65628795D01*
X24768364Y65654696D01*
X24760454Y65694694D01*
X24750017Y65747666D01*
X24737272Y65812486D01*
X24722440Y65888029D01*
X24705743Y65973170D01*
X24687402Y66066785D01*
X24667636Y66167749D01*
X24646667Y66274937D01*
X24624715Y66387224D01*
X24610617Y66459377D01*
X24588221Y66573667D01*
X24566637Y66683126D01*
X24546086Y66786674D01*
X24526787Y66883229D01*
X24508962Y66971711D01*
X24492831Y67051040D01*
X24478614Y67120134D01*
X24466533Y67177914D01*
X24456807Y67223298D01*
X24449657Y67255206D01*
X24445304Y67272557D01*
X24444068Y67275508D01*
X24439837Y67267078D01*
G37*
X24439837Y67267078D02*
X24429426Y67244592D01*
X24413366Y67209237D01*
X24392189Y67162202D01*
X24366424Y67104673D01*
X24336603Y67037839D01*
X24303257Y66962888D01*
X24266915Y66881008D01*
X24228110Y66793385D01*
X24187372Y66701209D01*
X24182706Y66690639D01*
X24141616Y66597601D01*
X24102293Y66508661D01*
X24065282Y66425045D01*
X24031129Y66347980D01*
X24000378Y66278692D01*
X23973573Y66218407D01*
X23951260Y66168353D01*
X23933984Y66129755D01*
X23922289Y66103841D01*
X23916721Y66091836D01*
X23916547Y66091495D01*
X23910968Y66082186D01*
X23905881Y66080280D01*
X23899374Y66087802D01*
X23889532Y66106777D01*
X23877287Y66133052D01*
X23869085Y66150913D01*
X23854588Y66182537D01*
X23834432Y66226538D01*
X23809248Y66281533D01*
X23779672Y66346137D01*
X23746337Y66418965D01*
X23709876Y66498635D01*
X23670923Y66583761D01*
X23630112Y66672958D01*
X23599709Y66739415D01*
X23550890Y66845980D01*
X23508473Y66938212D01*
X23472039Y67016973D01*
X23441169Y67083125D01*
X23415442Y67137531D01*
X23394441Y67181052D01*
X23377745Y67214550D01*
X23364935Y67238888D01*
X23355593Y67254927D01*
X23349299Y67263530D01*
X23345633Y67265558D01*
X23344549Y67264071D01*
X23342245Y67253152D01*
X23337341Y67227249D01*
X23330076Y67187717D01*
X23320688Y67135915D01*
X23309417Y67073199D01*
X23296500Y67000926D01*
X23282175Y66920455D01*
X23266682Y66833141D01*
X23250259Y66740342D01*
X23233143Y66643416D01*
X23215575Y66543719D01*
X23197791Y66442608D01*
X23180031Y66341441D01*
X23162533Y66241575D01*
X23145535Y66144367D01*
X23129276Y66051174D01*
X23113994Y65963353D01*
X23099928Y65882262D01*
X23087317Y65809258D01*
X23076397Y65745697D01*
X23067409Y65692937D01*
X23060591Y65652336D01*
X23056180Y65625250D01*
X23054416Y65613036D01*
X23054394Y65612623D01*
X23056399Y65607479D01*
X23064015Y65603871D01*
X23079639Y65601540D01*
X23105671Y65600229D01*
X23144508Y65599679D01*
X23175148Y65599607D01*
X23217833Y65600012D01*
X23253881Y65601127D01*
X23280367Y65602801D01*
X23294366Y65604882D01*
X23295819Y65605853D01*
X23297077Y65616660D01*
X23300733Y65641987D01*
X23306491Y65679999D01*
X23314055Y65728863D01*
X23323131Y65786747D01*
X23333422Y65851816D01*
X23344633Y65922238D01*
X23356469Y65996179D01*
X23368633Y66071807D01*
X23380832Y66147288D01*
X23392768Y66220788D01*
X23404148Y66290476D01*
X23414674Y66354517D01*
X23424052Y66411078D01*
X23431986Y66458326D01*
X23438181Y66494428D01*
X23442341Y66517551D01*
X23444096Y66525738D01*
X23448275Y66522582D01*
X23458113Y66506193D01*
X23473739Y66476306D01*
X23495279Y66432654D01*
X23522861Y66374972D01*
X23556613Y66302996D01*
X23596661Y66216458D01*
X23643134Y66115094D01*
X23678965Y66036475D01*
X23718080Y65950612D01*
X23755210Y65869373D01*
X23789779Y65794004D01*
X23821209Y65725752D01*
X23848922Y65665861D01*
X23872342Y65615578D01*
X23890891Y65576149D01*
X23903992Y65548819D01*
X23911068Y65534835D01*
X23912145Y65533226D01*
X23916132Y65540684D01*
X23926250Y65562130D01*
X23941931Y65596304D01*
X23962609Y65641945D01*
X23987717Y65697790D01*
X24016690Y65762578D01*
X24048961Y65835049D01*
X24083963Y65913941D01*
X24121131Y65997992D01*
X24136832Y66033580D01*
X24174747Y66119460D01*
X24210737Y66200764D01*
X24244235Y66276221D01*
X24274673Y66344563D01*
X24301480Y66404520D01*
X24324091Y66454820D01*
X24341935Y66494195D01*
X24354446Y66521375D01*
X24361054Y66535090D01*
X24361920Y66536523D01*
X24364173Y66529093D01*
X24369027Y66506700D01*
X24376209Y66470785D01*
X24385449Y66422792D01*
X24396474Y66364163D01*
X24409013Y66296341D01*
X24422793Y66220769D01*
X24437543Y66138888D01*
X24449548Y66071564D01*
X24532591Y65603771D01*
X24656387Y65601461D01*
X24780183Y65599150D01*
X24775718Y65618116D01*
X24773526Y65628795D01*
X24768364Y65654696D01*
X24760454Y65694694D01*
X24750017Y65747666D01*
X24737272Y65812486D01*
X24722440Y65888029D01*
X24705743Y65973170D01*
X24687402Y66066785D01*
X24667636Y66167749D01*
X24646667Y66274937D01*
X24624715Y66387224D01*
X24610617Y66459377D01*
X24588221Y66573667D01*
X24566637Y66683126D01*
X24546086Y66786674D01*
X24526787Y66883229D01*
X24508962Y66971711D01*
X24492831Y67051040D01*
X24478614Y67120134D01*
X24466533Y67177914D01*
X24456807Y67223298D01*
X24449657Y67255206D01*
X24445304Y67272557D01*
X24444068Y67275508D01*
X24439837Y67267078D01*
G36*
X33868037Y67193441D02*
G01*
X33802299Y67185941D01*
X33748126Y67174829D01*
X33690259Y67155417D01*
X33626953Y67128332D01*
X33564401Y67096599D01*
X33508796Y67063240D01*
X33484495Y67046114D01*
X33418345Y66990106D01*
X33355201Y66925380D01*
X33298080Y66855646D01*
X33249996Y66784615D01*
X33213963Y66715998D01*
X33211319Y66709842D01*
X33190109Y66656727D01*
X33174490Y66609870D01*
X33163663Y66564875D01*
X33156832Y66517343D01*
X33153198Y66462879D01*
X33151964Y66397084D01*
X33151935Y66382426D01*
X33152193Y66326605D01*
X33153186Y66283801D01*
X33155241Y66250380D01*
X33158685Y66222708D01*
X33163845Y66197152D01*
X33171048Y66170077D01*
X33171051Y66170066D01*
X33209691Y66064743D01*
X33262644Y65965753D01*
X33328416Y65874601D01*
X33405514Y65792791D01*
X33492442Y65721828D01*
X33587708Y65663215D01*
X33689818Y65618457D01*
X33732504Y65604694D01*
X33834107Y65582375D01*
X33941055Y65571820D01*
X34046296Y65573672D01*
X34059957Y65574904D01*
X34140356Y65586624D01*
X34214320Y65606060D01*
X34289517Y65635357D01*
X34310530Y65645002D01*
X34385472Y65683606D01*
X34449960Y65724767D01*
X34510103Y65772796D01*
X34563811Y65823687D01*
X34638088Y65909304D01*
X34697245Y66001526D01*
X34741393Y66100652D01*
X34770645Y66206983D01*
X34785112Y66320818D01*
X34785953Y66412375D01*
X34545976Y66412375D01*
X34544442Y66358483D01*
X34537083Y66272435D01*
X34522024Y66198256D01*
X34497702Y66132330D01*
X34462552Y66071042D01*
X34415010Y66010777D01*
X34376476Y65970197D01*
X34310060Y65909925D01*
X34245348Y65863942D01*
X34179284Y65830574D01*
X34108814Y65808147D01*
X34064919Y65799525D01*
X34021625Y65795664D01*
X33968438Y65795344D01*
X33911662Y65798235D01*
X33857603Y65804001D01*
X33812567Y65812311D01*
X33809836Y65813000D01*
X33729329Y65841966D01*
X33652359Y65885305D01*
X33581308Y65940772D01*
X33518559Y66006123D01*
X33466494Y66079116D01*
X33427495Y66157505D01*
X33418870Y66181225D01*
X33393715Y66282381D01*
X33385115Y66384483D01*
X33393070Y66486651D01*
X33417579Y66588003D01*
X33418969Y66592224D01*
X33452943Y66670295D01*
X33500522Y66744660D01*
X33558953Y66812155D01*
X33625485Y66869615D01*
X33697363Y66913874D01*
X33699699Y66915026D01*
X33757369Y66940942D01*
X33809644Y66958541D01*
X33862541Y66969191D01*
X33922073Y66974262D01*
X33964082Y66975199D01*
X34056163Y66970510D01*
X34138388Y66954561D01*
X34214101Y66926246D01*
X34286647Y66884460D01*
X34326164Y66855528D01*
X34390017Y66796074D01*
X34446009Y66725390D01*
X34491653Y66647383D01*
X34524466Y66565961D01*
X34534792Y66527429D01*
X34541451Y66491602D01*
X34545079Y66455000D01*
X34545976Y66412375D01*
X34785953Y66412375D01*
X34786023Y66419902D01*
X34774697Y66534299D01*
X34749674Y66640145D01*
X34710367Y66738717D01*
X34656188Y66831292D01*
X34586548Y66919145D01*
X34528717Y66978109D01*
X34438309Y67052882D01*
X34341787Y67112245D01*
X34238611Y67156482D01*
X34138871Y67183755D01*
X34080325Y67192365D01*
X34012223Y67196771D01*
X33939736Y67197090D01*
X33868037Y67193441D01*
G37*
X33868037Y67193441D02*
X33802299Y67185941D01*
X33748126Y67174829D01*
X33690259Y67155417D01*
X33626953Y67128332D01*
X33564401Y67096599D01*
X33508796Y67063240D01*
X33484495Y67046114D01*
X33418345Y66990106D01*
X33355201Y66925380D01*
X33298080Y66855646D01*
X33249996Y66784615D01*
X33213963Y66715998D01*
X33211319Y66709842D01*
X33190109Y66656727D01*
X33174490Y66609870D01*
X33163663Y66564875D01*
X33156832Y66517343D01*
X33153198Y66462879D01*
X33151964Y66397084D01*
X33151935Y66382426D01*
X33152193Y66326605D01*
X33153186Y66283801D01*
X33155241Y66250380D01*
X33158685Y66222708D01*
X33163845Y66197152D01*
X33171048Y66170077D01*
X33171051Y66170066D01*
X33209691Y66064743D01*
X33262644Y65965753D01*
X33328416Y65874601D01*
X33405514Y65792791D01*
X33492442Y65721828D01*
X33587708Y65663215D01*
X33689818Y65618457D01*
X33732504Y65604694D01*
X33834107Y65582375D01*
X33941055Y65571820D01*
X34046296Y65573672D01*
X34059957Y65574904D01*
X34140356Y65586624D01*
X34214320Y65606060D01*
X34289517Y65635357D01*
X34310530Y65645002D01*
X34385472Y65683606D01*
X34449960Y65724767D01*
X34510103Y65772796D01*
X34563811Y65823687D01*
X34638088Y65909304D01*
X34697245Y66001526D01*
X34741393Y66100652D01*
X34770645Y66206983D01*
X34785112Y66320818D01*
X34785953Y66412375D01*
X34545976Y66412375D01*
X34544442Y66358483D01*
X34537083Y66272435D01*
X34522024Y66198256D01*
X34497702Y66132330D01*
X34462552Y66071042D01*
X34415010Y66010777D01*
X34376476Y65970197D01*
X34310060Y65909925D01*
X34245348Y65863942D01*
X34179284Y65830574D01*
X34108814Y65808147D01*
X34064919Y65799525D01*
X34021625Y65795664D01*
X33968438Y65795344D01*
X33911662Y65798235D01*
X33857603Y65804001D01*
X33812567Y65812311D01*
X33809836Y65813000D01*
X33729329Y65841966D01*
X33652359Y65885305D01*
X33581308Y65940772D01*
X33518559Y66006123D01*
X33466494Y66079116D01*
X33427495Y66157505D01*
X33418870Y66181225D01*
X33393715Y66282381D01*
X33385115Y66384483D01*
X33393070Y66486651D01*
X33417579Y66588003D01*
X33418969Y66592224D01*
X33452943Y66670295D01*
X33500522Y66744660D01*
X33558953Y66812155D01*
X33625485Y66869615D01*
X33697363Y66913874D01*
X33699699Y66915026D01*
X33757369Y66940942D01*
X33809644Y66958541D01*
X33862541Y66969191D01*
X33922073Y66974262D01*
X33964082Y66975199D01*
X34056163Y66970510D01*
X34138388Y66954561D01*
X34214101Y66926246D01*
X34286647Y66884460D01*
X34326164Y66855528D01*
X34390017Y66796074D01*
X34446009Y66725390D01*
X34491653Y66647383D01*
X34524466Y66565961D01*
X34534792Y66527429D01*
X34541451Y66491602D01*
X34545079Y66455000D01*
X34545976Y66412375D01*
X34785953Y66412375D01*
X34786023Y66419902D01*
X34774697Y66534299D01*
X34749674Y66640145D01*
X34710367Y66738717D01*
X34656188Y66831292D01*
X34586548Y66919145D01*
X34528717Y66978109D01*
X34438309Y67052882D01*
X34341787Y67112245D01*
X34238611Y67156482D01*
X34138871Y67183755D01*
X34080325Y67192365D01*
X34012223Y67196771D01*
X33939736Y67197090D01*
X33868037Y67193441D01*
G36*
X29493414Y67188981D02*
G01*
X29415522Y67163184D01*
X29344107Y67122605D01*
X29278257Y67066942D01*
X29278053Y67066738D01*
X29257888Y67044818D01*
X29236370Y67018652D01*
X29215871Y66991532D01*
X29198764Y66966752D01*
X29187420Y66947606D01*
X29184211Y66937387D01*
X29184525Y66936876D01*
X29192727Y66931492D01*
X29211940Y66919774D01*
X29238782Y66903767D01*
X29254492Y66894511D01*
X29287481Y66875090D01*
X29318064Y66856977D01*
X29341213Y66843156D01*
X29347025Y66839643D01*
X29372935Y66823874D01*
X29402840Y66868915D01*
X29439428Y66915093D01*
X29479850Y66947205D01*
X29527102Y66966777D01*
X29584179Y66975336D01*
X29612968Y66976008D01*
X29677568Y66968725D01*
X29733408Y66948019D01*
X29779489Y66914290D01*
X29787778Y66905651D01*
X29813682Y66872648D01*
X29828300Y66840782D01*
X29834369Y66802979D01*
X29835028Y66783568D01*
X29830502Y66744334D01*
X29815292Y66708885D01*
X29788223Y66676101D01*
X29748121Y66644863D01*
X29693810Y66614050D01*
X29624164Y66582563D01*
X29534018Y66544157D01*
X29458120Y66509258D01*
X29394734Y66476704D01*
X29342122Y66445330D01*
X29298546Y66413972D01*
X29262267Y66381468D01*
X29231549Y66346652D01*
X29204652Y66308361D01*
X29197590Y66296893D01*
X29169024Y66238411D01*
X29151232Y66174750D01*
X29143526Y66102654D01*
X29143892Y66042463D01*
X29152208Y65961109D01*
X29170282Y65890081D01*
X29199408Y65825360D01*
X29228469Y65779678D01*
X29287446Y65710554D01*
X29355694Y65655100D01*
X29432625Y65613562D01*
X29517648Y65586190D01*
X29610174Y65573228D01*
X29709612Y65574925D01*
X29715549Y65575476D01*
X29802568Y65591889D01*
X29882775Y65623097D01*
X29954832Y65668165D01*
X30017403Y65726158D01*
X30069151Y65796141D01*
X30092284Y65838924D01*
X30103964Y65866408D01*
X30116093Y65900049D01*
X30127609Y65936125D01*
X30137449Y65970913D01*
X30144549Y66000691D01*
X30147845Y66021737D01*
X30146858Y66029984D01*
X30137943Y66032954D01*
X30116360Y66038567D01*
X30085735Y66045996D01*
X30049690Y66054418D01*
X30011850Y66063007D01*
X29975838Y66070939D01*
X29945279Y66077387D01*
X29923796Y66081527D01*
X29915651Y66082623D01*
X29910795Y66075254D01*
X29905594Y66056708D01*
X29903796Y66047230D01*
X29887045Y65974833D01*
X29862752Y65916221D01*
X29829971Y65869885D01*
X29787757Y65834317D01*
X29760775Y65819090D01*
X29733743Y65807134D01*
X29709094Y65800132D01*
X29680457Y65796843D01*
X29642317Y65796029D01*
X29580406Y65800327D01*
X29529378Y65814249D01*
X29485587Y65839282D01*
X29446375Y65875805D01*
X29412122Y65925205D01*
X29390427Y65981112D01*
X29381309Y66040312D01*
X29384787Y66099592D01*
X29400879Y66155739D01*
X29429603Y66205539D01*
X29444378Y66222697D01*
X29470524Y66246174D01*
X29504378Y66269697D01*
X29547937Y66294381D01*
X29603199Y66321346D01*
X29672160Y66351709D01*
X29683379Y66356445D01*
X29754416Y66387277D01*
X29812308Y66414856D01*
X29859836Y66440808D01*
X29899779Y66466758D01*
X29934916Y66494334D01*
X29962641Y66519836D01*
X30013671Y66579923D01*
X30049731Y66644272D01*
X30071469Y66711366D01*
X30079536Y66779687D01*
X30074582Y66847719D01*
X30057257Y66913945D01*
X30028211Y66976848D01*
X29988094Y67034911D01*
X29937556Y67086617D01*
X29877247Y67130449D01*
X29807818Y67164890D01*
X29729917Y67188423D01*
X29672279Y67197438D01*
X29578695Y67200298D01*
X29493414Y67188981D01*
G37*
X29493414Y67188981D02*
X29415522Y67163184D01*
X29344107Y67122605D01*
X29278257Y67066942D01*
X29278053Y67066738D01*
X29257888Y67044818D01*
X29236370Y67018652D01*
X29215871Y66991532D01*
X29198764Y66966752D01*
X29187420Y66947606D01*
X29184211Y66937387D01*
X29184525Y66936876D01*
X29192727Y66931492D01*
X29211940Y66919774D01*
X29238782Y66903767D01*
X29254492Y66894511D01*
X29287481Y66875090D01*
X29318064Y66856977D01*
X29341213Y66843156D01*
X29347025Y66839643D01*
X29372935Y66823874D01*
X29402840Y66868915D01*
X29439428Y66915093D01*
X29479850Y66947205D01*
X29527102Y66966777D01*
X29584179Y66975336D01*
X29612968Y66976008D01*
X29677568Y66968725D01*
X29733408Y66948019D01*
X29779489Y66914290D01*
X29787778Y66905651D01*
X29813682Y66872648D01*
X29828300Y66840782D01*
X29834369Y66802979D01*
X29835028Y66783568D01*
X29830502Y66744334D01*
X29815292Y66708885D01*
X29788223Y66676101D01*
X29748121Y66644863D01*
X29693810Y66614050D01*
X29624164Y66582563D01*
X29534018Y66544157D01*
X29458120Y66509258D01*
X29394734Y66476704D01*
X29342122Y66445330D01*
X29298546Y66413972D01*
X29262267Y66381468D01*
X29231549Y66346652D01*
X29204652Y66308361D01*
X29197590Y66296893D01*
X29169024Y66238411D01*
X29151232Y66174750D01*
X29143526Y66102654D01*
X29143892Y66042463D01*
X29152208Y65961109D01*
X29170282Y65890081D01*
X29199408Y65825360D01*
X29228469Y65779678D01*
X29287446Y65710554D01*
X29355694Y65655100D01*
X29432625Y65613562D01*
X29517648Y65586190D01*
X29610174Y65573228D01*
X29709612Y65574925D01*
X29715549Y65575476D01*
X29802568Y65591889D01*
X29882775Y65623097D01*
X29954832Y65668165D01*
X30017403Y65726158D01*
X30069151Y65796141D01*
X30092284Y65838924D01*
X30103964Y65866408D01*
X30116093Y65900049D01*
X30127609Y65936125D01*
X30137449Y65970913D01*
X30144549Y66000691D01*
X30147845Y66021737D01*
X30146858Y66029984D01*
X30137943Y66032954D01*
X30116360Y66038567D01*
X30085735Y66045996D01*
X30049690Y66054418D01*
X30011850Y66063007D01*
X29975838Y66070939D01*
X29945279Y66077387D01*
X29923796Y66081527D01*
X29915651Y66082623D01*
X29910795Y66075254D01*
X29905594Y66056708D01*
X29903796Y66047230D01*
X29887045Y65974833D01*
X29862752Y65916221D01*
X29829971Y65869885D01*
X29787757Y65834317D01*
X29760775Y65819090D01*
X29733743Y65807134D01*
X29709094Y65800132D01*
X29680457Y65796843D01*
X29642317Y65796029D01*
X29580406Y65800327D01*
X29529378Y65814249D01*
X29485587Y65839282D01*
X29446375Y65875805D01*
X29412122Y65925205D01*
X29390427Y65981112D01*
X29381309Y66040312D01*
X29384787Y66099592D01*
X29400879Y66155739D01*
X29429603Y66205539D01*
X29444378Y66222697D01*
X29470524Y66246174D01*
X29504378Y66269697D01*
X29547937Y66294381D01*
X29603199Y66321346D01*
X29672160Y66351709D01*
X29683379Y66356445D01*
X29754416Y66387277D01*
X29812308Y66414856D01*
X29859836Y66440808D01*
X29899779Y66466758D01*
X29934916Y66494334D01*
X29962641Y66519836D01*
X30013671Y66579923D01*
X30049731Y66644272D01*
X30071469Y66711366D01*
X30079536Y66779687D01*
X30074582Y66847719D01*
X30057257Y66913945D01*
X30028211Y66976848D01*
X29988094Y67034911D01*
X29937556Y67086617D01*
X29877247Y67130449D01*
X29807818Y67164890D01*
X29729917Y67188423D01*
X29672279Y67197438D01*
X29578695Y67200298D01*
X29493414Y67188981D01*
G36*
X25040803Y67073725D02*
G01*
X25125466Y66988322D01*
X25210130Y66902918D01*
X25176627Y66857115D01*
X25118027Y66763164D01*
X25073402Y66661714D01*
X25043059Y66554781D01*
X25027302Y66444378D01*
X25026435Y66332521D01*
X25040763Y66221224D01*
X25066033Y66125798D01*
X25097648Y66043935D01*
X25135926Y65971187D01*
X25184347Y65901434D01*
X25214502Y65864532D01*
X25298516Y65778222D01*
X25390224Y65706604D01*
X25489047Y65649914D01*
X25594403Y65608389D01*
X25705712Y65582267D01*
X25822391Y65571785D01*
X25923345Y65575172D01*
X26027552Y65590676D01*
X26125501Y65619042D01*
X26158185Y65631772D01*
X26203266Y65652188D01*
X26250798Y65676613D01*
X26295477Y65702113D01*
X26332001Y65725758D01*
X26343028Y65733953D01*
X26363717Y65750226D01*
X26531617Y65582898D01*
X26597557Y65649227D01*
X26663498Y65715557D01*
X26582034Y65799509D01*
X26549933Y65832782D01*
X26528008Y65856418D01*
X26514759Y65872663D01*
X26508688Y65883762D01*
X26508298Y65891959D01*
X26512089Y65899499D01*
X26513730Y65901846D01*
X26516288Y65906030D01*
X26188781Y65906030D01*
X26178831Y65898350D01*
X26157327Y65885984D01*
X26128033Y65870780D01*
X26094715Y65854588D01*
X26061137Y65839257D01*
X26031065Y65826637D01*
X26015177Y65820762D01*
X25938106Y65802126D01*
X25854010Y65794854D01*
X25768016Y65798917D01*
X25685254Y65814288D01*
X25657053Y65822646D01*
X25575332Y65858103D01*
X25499159Y65907750D01*
X25430427Y65969528D01*
X25371029Y66041376D01*
X25322857Y66121235D01*
X25287804Y66207047D01*
X25280422Y66232525D01*
X25270350Y66287338D01*
X25265544Y66351129D01*
X25265920Y66418024D01*
X25271389Y66482150D01*
X25281865Y66537636D01*
X25285105Y66548984D01*
X25296119Y66580421D01*
X25310557Y66615966D01*
X25326826Y66652340D01*
X25343330Y66686262D01*
X25358477Y66714452D01*
X25370671Y66733632D01*
X25378208Y66740525D01*
X25385484Y66734735D01*
X25403079Y66718147D01*
X25429855Y66691930D01*
X25464676Y66657256D01*
X25506406Y66615293D01*
X25553906Y66567213D01*
X25606041Y66514187D01*
X25661673Y66457384D01*
X25719666Y66397975D01*
X25778884Y66337129D01*
X25838188Y66276019D01*
X25896442Y66215814D01*
X25952510Y66157683D01*
X26005255Y66102799D01*
X26053539Y66052330D01*
X26096226Y66007448D01*
X26132180Y65969323D01*
X26160263Y65939125D01*
X26179338Y65918025D01*
X26188269Y65907193D01*
X26188781Y65906030D01*
X26516288Y65906030D01*
X26572624Y65998152D01*
X26617360Y66101715D01*
X26647668Y66210595D01*
X26663276Y66322849D01*
X26663740Y66405694D01*
X26424781Y66405694D01*
X26423820Y66328223D01*
X26419689Y66292125D01*
X26409775Y66245884D01*
X26394394Y66193988D01*
X26375696Y66142572D01*
X26355833Y66097775D01*
X26344065Y66076323D01*
X26327425Y66049203D01*
X26116702Y66263700D01*
X26056330Y66325225D01*
X25989268Y66393691D01*
X25919033Y66465499D01*
X25849143Y66537050D01*
X25783115Y66604744D01*
X25724468Y66664982D01*
X25712650Y66677139D01*
X25655937Y66735843D01*
X25610486Y66783692D01*
X25575622Y66821449D01*
X25550673Y66849874D01*
X25534964Y66869731D01*
X25527821Y66881780D01*
X25527704Y66886182D01*
X25541465Y66896383D01*
X25566934Y66910020D01*
X25600008Y66925286D01*
X25636586Y66940375D01*
X25672566Y66953480D01*
X25698492Y66961410D01*
X25739941Y66969031D01*
X25792153Y66973491D01*
X25849535Y66974788D01*
X25906497Y66972918D01*
X25957446Y66967876D01*
X25989968Y66961598D01*
X26079195Y66929914D01*
X26161708Y66883999D01*
X26235816Y66825501D01*
X26299826Y66756068D01*
X26352047Y66677348D01*
X26390787Y66590991D01*
X26400064Y66561998D01*
X26416691Y66485970D01*
X26424781Y66405694D01*
X26663740Y66405694D01*
X26663914Y66436538D01*
X26649310Y66549720D01*
X26619575Y66659359D01*
X26577489Y66755925D01*
X26520881Y66847219D01*
X26451476Y66931628D01*
X26371002Y67007538D01*
X26281183Y67073335D01*
X26183747Y67127405D01*
X26080419Y67168135D01*
X26072733Y67170530D01*
X26045049Y67178680D01*
X26020921Y67184625D01*
X25996870Y67188715D01*
X25969416Y67191300D01*
X25935081Y67192729D01*
X25890387Y67193353D01*
X25844230Y67193508D01*
X25788715Y67193431D01*
X25746406Y67192811D01*
X25713856Y67191306D01*
X25687616Y67188576D01*
X25664239Y67184281D01*
X25640276Y67178082D01*
X25616976Y67171094D01*
X25547422Y67146146D01*
X25477764Y67114972D01*
X25414661Y67080699D01*
X25387369Y67063188D01*
X25351066Y67038276D01*
X25264490Y67124556D01*
X25177915Y67210837D01*
X25040803Y67073725D01*
G37*
X25040803Y67073725D02*
X25125466Y66988322D01*
X25210130Y66902918D01*
X25176627Y66857115D01*
X25118027Y66763164D01*
X25073402Y66661714D01*
X25043059Y66554781D01*
X25027302Y66444378D01*
X25026435Y66332521D01*
X25040763Y66221224D01*
X25066033Y66125798D01*
X25097648Y66043935D01*
X25135926Y65971187D01*
X25184347Y65901434D01*
X25214502Y65864532D01*
X25298516Y65778222D01*
X25390224Y65706604D01*
X25489047Y65649914D01*
X25594403Y65608389D01*
X25705712Y65582267D01*
X25822391Y65571785D01*
X25923345Y65575172D01*
X26027552Y65590676D01*
X26125501Y65619042D01*
X26158185Y65631772D01*
X26203266Y65652188D01*
X26250798Y65676613D01*
X26295477Y65702113D01*
X26332001Y65725758D01*
X26343028Y65733953D01*
X26363717Y65750226D01*
X26531617Y65582898D01*
X26597557Y65649227D01*
X26663498Y65715557D01*
X26582034Y65799509D01*
X26549933Y65832782D01*
X26528008Y65856418D01*
X26514759Y65872663D01*
X26508688Y65883762D01*
X26508298Y65891959D01*
X26512089Y65899499D01*
X26513730Y65901846D01*
X26516288Y65906030D01*
X26188781Y65906030D01*
X26178831Y65898350D01*
X26157327Y65885984D01*
X26128033Y65870780D01*
X26094715Y65854588D01*
X26061137Y65839257D01*
X26031065Y65826637D01*
X26015177Y65820762D01*
X25938106Y65802126D01*
X25854010Y65794854D01*
X25768016Y65798917D01*
X25685254Y65814288D01*
X25657053Y65822646D01*
X25575332Y65858103D01*
X25499159Y65907750D01*
X25430427Y65969528D01*
X25371029Y66041376D01*
X25322857Y66121235D01*
X25287804Y66207047D01*
X25280422Y66232525D01*
X25270350Y66287338D01*
X25265544Y66351129D01*
X25265920Y66418024D01*
X25271389Y66482150D01*
X25281865Y66537636D01*
X25285105Y66548984D01*
X25296119Y66580421D01*
X25310557Y66615966D01*
X25326826Y66652340D01*
X25343330Y66686262D01*
X25358477Y66714452D01*
X25370671Y66733632D01*
X25378208Y66740525D01*
X25385484Y66734735D01*
X25403079Y66718147D01*
X25429855Y66691930D01*
X25464676Y66657256D01*
X25506406Y66615293D01*
X25553906Y66567213D01*
X25606041Y66514187D01*
X25661673Y66457384D01*
X25719666Y66397975D01*
X25778884Y66337129D01*
X25838188Y66276019D01*
X25896442Y66215814D01*
X25952510Y66157683D01*
X26005255Y66102799D01*
X26053539Y66052330D01*
X26096226Y66007448D01*
X26132180Y65969323D01*
X26160263Y65939125D01*
X26179338Y65918025D01*
X26188269Y65907193D01*
X26188781Y65906030D01*
X26516288Y65906030D01*
X26572624Y65998152D01*
X26617360Y66101715D01*
X26647668Y66210595D01*
X26663276Y66322849D01*
X26663740Y66405694D01*
X26424781Y66405694D01*
X26423820Y66328223D01*
X26419689Y66292125D01*
X26409775Y66245884D01*
X26394394Y66193988D01*
X26375696Y66142572D01*
X26355833Y66097775D01*
X26344065Y66076323D01*
X26327425Y66049203D01*
X26116702Y66263700D01*
X26056330Y66325225D01*
X25989268Y66393691D01*
X25919033Y66465499D01*
X25849143Y66537050D01*
X25783115Y66604744D01*
X25724468Y66664982D01*
X25712650Y66677139D01*
X25655937Y66735843D01*
X25610486Y66783692D01*
X25575622Y66821449D01*
X25550673Y66849874D01*
X25534964Y66869731D01*
X25527821Y66881780D01*
X25527704Y66886182D01*
X25541465Y66896383D01*
X25566934Y66910020D01*
X25600008Y66925286D01*
X25636586Y66940375D01*
X25672566Y66953480D01*
X25698492Y66961410D01*
X25739941Y66969031D01*
X25792153Y66973491D01*
X25849535Y66974788D01*
X25906497Y66972918D01*
X25957446Y66967876D01*
X25989968Y66961598D01*
X26079195Y66929914D01*
X26161708Y66883999D01*
X26235816Y66825501D01*
X26299826Y66756068D01*
X26352047Y66677348D01*
X26390787Y66590991D01*
X26400064Y66561998D01*
X26416691Y66485970D01*
X26424781Y66405694D01*
X26663740Y66405694D01*
X26663914Y66436538D01*
X26649310Y66549720D01*
X26619575Y66659359D01*
X26577489Y66755925D01*
X26520881Y66847219D01*
X26451476Y66931628D01*
X26371002Y67007538D01*
X26281183Y67073335D01*
X26183747Y67127405D01*
X26080419Y67168135D01*
X26072733Y67170530D01*
X26045049Y67178680D01*
X26020921Y67184625D01*
X25996870Y67188715D01*
X25969416Y67191300D01*
X25935081Y67192729D01*
X25890387Y67193353D01*
X25844230Y67193508D01*
X25788715Y67193431D01*
X25746406Y67192811D01*
X25713856Y67191306D01*
X25687616Y67188576D01*
X25664239Y67184281D01*
X25640276Y67178082D01*
X25616976Y67171094D01*
X25547422Y67146146D01*
X25477764Y67114972D01*
X25414661Y67080699D01*
X25387369Y67063188D01*
X25351066Y67038276D01*
X25264490Y67124556D01*
X25177915Y67210837D01*
X25040803Y67073725D01*
G36*
X32691820Y67173503D02*
G01*
X32582048Y67172213D01*
X32487048Y67168175D01*
X32405101Y67160980D01*
X32334489Y67150215D01*
X32273491Y67135470D01*
X32220389Y67116332D01*
X32173464Y67092392D01*
X32130997Y67063237D01*
X32093180Y67030301D01*
X32041179Y66969492D01*
X32001465Y66899878D01*
X31976099Y66825152D01*
X31974349Y66817148D01*
X31966127Y66751765D01*
X31966435Y66681627D01*
X31974705Y66612034D01*
X31990366Y66548285D01*
X32007863Y66505000D01*
X32050202Y66437081D01*
X32103188Y66378058D01*
X32164214Y66330258D01*
X32230671Y66296010D01*
X32249652Y66289245D01*
X32277081Y66279142D01*
X32296358Y66269587D01*
X32303790Y66262453D01*
X32303690Y66261790D01*
X32298243Y66253442D01*
X32283960Y66232980D01*
X32261810Y66201755D01*
X32232761Y66161118D01*
X32197780Y66112419D01*
X32157837Y66057010D01*
X32113900Y65996241D01*
X32066936Y65931463D01*
X32066112Y65930329D01*
X32019250Y65865698D01*
X31975516Y65805219D01*
X31935860Y65750219D01*
X31901231Y65702021D01*
X31872577Y65661949D01*
X31850850Y65631330D01*
X31836999Y65611486D01*
X31831972Y65603742D01*
X31831968Y65603710D01*
X31839848Y65602399D01*
X31861698Y65601317D01*
X31894836Y65600532D01*
X31936575Y65600112D01*
X31975623Y65600087D01*
X32119279Y65600568D01*
X32340031Y65918628D01*
X32392468Y65994041D01*
X32436379Y66056818D01*
X32472618Y66108085D01*
X32502041Y66148969D01*
X32525504Y66180596D01*
X32543861Y66204092D01*
X32557968Y66220584D01*
X32568681Y66231196D01*
X32576855Y66237056D01*
X32583345Y66239289D01*
X32583621Y66239324D01*
X32606459Y66241959D01*
X32606459Y65599607D01*
X32847968Y65599607D01*
X32847968Y66446574D01*
X32606459Y66446574D01*
X32512771Y66451387D01*
X32445040Y66457290D01*
X32387351Y66467252D01*
X32362343Y66473941D01*
X32303918Y66498753D01*
X32259039Y66532817D01*
X32227105Y66576925D01*
X32207514Y66631869D01*
X32200127Y66687500D01*
X32202188Y66754448D01*
X32216610Y66810585D01*
X32243783Y66856682D01*
X32284102Y66893514D01*
X32313620Y66910914D01*
X32353883Y66926045D01*
X32406098Y66937891D01*
X32465751Y66945664D01*
X32528327Y66948574D01*
X32529427Y66948577D01*
X32606459Y66948721D01*
X32606459Y66446574D01*
X32847968Y66446574D01*
X32847968Y67173574D01*
X32691820Y67173503D01*
G37*
X32691820Y67173503D02*
X32582048Y67172213D01*
X32487048Y67168175D01*
X32405101Y67160980D01*
X32334489Y67150215D01*
X32273491Y67135470D01*
X32220389Y67116332D01*
X32173464Y67092392D01*
X32130997Y67063237D01*
X32093180Y67030301D01*
X32041179Y66969492D01*
X32001465Y66899878D01*
X31976099Y66825152D01*
X31974349Y66817148D01*
X31966127Y66751765D01*
X31966435Y66681627D01*
X31974705Y66612034D01*
X31990366Y66548285D01*
X32007863Y66505000D01*
X32050202Y66437081D01*
X32103188Y66378058D01*
X32164214Y66330258D01*
X32230671Y66296010D01*
X32249652Y66289245D01*
X32277081Y66279142D01*
X32296358Y66269587D01*
X32303790Y66262453D01*
X32303690Y66261790D01*
X32298243Y66253442D01*
X32283960Y66232980D01*
X32261810Y66201755D01*
X32232761Y66161118D01*
X32197780Y66112419D01*
X32157837Y66057010D01*
X32113900Y65996241D01*
X32066936Y65931463D01*
X32066112Y65930329D01*
X32019250Y65865698D01*
X31975516Y65805219D01*
X31935860Y65750219D01*
X31901231Y65702021D01*
X31872577Y65661949D01*
X31850850Y65631330D01*
X31836999Y65611486D01*
X31831972Y65603742D01*
X31831968Y65603710D01*
X31839848Y65602399D01*
X31861698Y65601317D01*
X31894836Y65600532D01*
X31936575Y65600112D01*
X31975623Y65600087D01*
X32119279Y65600568D01*
X32340031Y65918628D01*
X32392468Y65994041D01*
X32436379Y66056818D01*
X32472618Y66108085D01*
X32502041Y66148969D01*
X32525504Y66180596D01*
X32543861Y66204092D01*
X32557968Y66220584D01*
X32568681Y66231196D01*
X32576855Y66237056D01*
X32583345Y66239289D01*
X32583621Y66239324D01*
X32606459Y66241959D01*
X32606459Y65599607D01*
X32847968Y65599607D01*
X32847968Y66446574D01*
X32606459Y66446574D01*
X32512771Y66451387D01*
X32445040Y66457290D01*
X32387351Y66467252D01*
X32362343Y66473941D01*
X32303918Y66498753D01*
X32259039Y66532817D01*
X32227105Y66576925D01*
X32207514Y66631869D01*
X32200127Y66687500D01*
X32202188Y66754448D01*
X32216610Y66810585D01*
X32243783Y66856682D01*
X32284102Y66893514D01*
X32313620Y66910914D01*
X32353883Y66926045D01*
X32406098Y66937891D01*
X32465751Y66945664D01*
X32528327Y66948574D01*
X32529427Y66948577D01*
X32606459Y66948721D01*
X32606459Y66446574D01*
X32847968Y66446574D01*
X32847968Y67173574D01*
X32691820Y67173503D01*
G36*
X31277230Y67172739D02*
G01*
X31185170Y67170055D01*
X31105365Y67165253D01*
X31035654Y67158064D01*
X30973875Y67148220D01*
X30917864Y67135452D01*
X30865461Y67119491D01*
X30824121Y67104016D01*
X30769475Y67079346D01*
X30720386Y67050911D01*
X30672661Y67015796D01*
X30622106Y66971084D01*
X30594798Y66944558D01*
X30538255Y66884515D01*
X30493144Y66826949D01*
X30457168Y66767725D01*
X30428034Y66702706D01*
X30403447Y66627756D01*
X30389462Y66574410D01*
X30377299Y66504457D01*
X30371575Y66424949D01*
X30372217Y66341662D01*
X30379152Y66260372D01*
X30392309Y66186854D01*
X30394415Y66178394D01*
X30429933Y66072435D01*
X30479187Y65974367D01*
X30541028Y65885367D01*
X30614304Y65806615D01*
X30697866Y65739290D01*
X30790564Y65684572D01*
X30891248Y65643639D01*
X30925991Y65633368D01*
X30968703Y65623297D01*
X31015483Y65615248D01*
X31068478Y65609058D01*
X31129834Y65604563D01*
X31201698Y65601601D01*
X31286217Y65600007D01*
X31369443Y65599607D01*
X31590459Y65599607D01*
X31590459Y65824459D01*
X31348951Y65824459D01*
X31234443Y65824569D01*
X31156496Y65826544D01*
X31090735Y65832533D01*
X31044984Y65840269D01*
X30952900Y65866552D01*
X30871357Y65905261D01*
X30798928Y65957238D01*
X30734186Y66023328D01*
X30733308Y66024381D01*
X30685166Y66091049D01*
X30650019Y66160878D01*
X30626917Y66236721D01*
X30614909Y66321431D01*
X30612596Y66386590D01*
X30617743Y66480694D01*
X30633846Y66564014D01*
X30661901Y66639115D01*
X30702902Y66708561D01*
X30757842Y66774917D01*
X30766765Y66784170D01*
X30819448Y66831727D01*
X30875980Y66869901D01*
X30938606Y66899493D01*
X31009568Y66921303D01*
X31091112Y66936131D01*
X31185482Y66944779D01*
X31221951Y66946493D01*
X31348951Y66951231D01*
X31348951Y65824459D01*
X31590459Y65824459D01*
X31590459Y67173574D01*
X31383709Y67173574D01*
X31277230Y67172739D01*
G37*
X31277230Y67172739D02*
X31185170Y67170055D01*
X31105365Y67165253D01*
X31035654Y67158064D01*
X30973875Y67148220D01*
X30917864Y67135452D01*
X30865461Y67119491D01*
X30824121Y67104016D01*
X30769475Y67079346D01*
X30720386Y67050911D01*
X30672661Y67015796D01*
X30622106Y66971084D01*
X30594798Y66944558D01*
X30538255Y66884515D01*
X30493144Y66826949D01*
X30457168Y66767725D01*
X30428034Y66702706D01*
X30403447Y66627756D01*
X30389462Y66574410D01*
X30377299Y66504457D01*
X30371575Y66424949D01*
X30372217Y66341662D01*
X30379152Y66260372D01*
X30392309Y66186854D01*
X30394415Y66178394D01*
X30429933Y66072435D01*
X30479187Y65974367D01*
X30541028Y65885367D01*
X30614304Y65806615D01*
X30697866Y65739290D01*
X30790564Y65684572D01*
X30891248Y65643639D01*
X30925991Y65633368D01*
X30968703Y65623297D01*
X31015483Y65615248D01*
X31068478Y65609058D01*
X31129834Y65604563D01*
X31201698Y65601601D01*
X31286217Y65600007D01*
X31369443Y65599607D01*
X31590459Y65599607D01*
X31590459Y65824459D01*
X31348951Y65824459D01*
X31234443Y65824569D01*
X31156496Y65826544D01*
X31090735Y65832533D01*
X31044984Y65840269D01*
X30952900Y65866552D01*
X30871357Y65905261D01*
X30798928Y65957238D01*
X30734186Y66023328D01*
X30733308Y66024381D01*
X30685166Y66091049D01*
X30650019Y66160878D01*
X30626917Y66236721D01*
X30614909Y66321431D01*
X30612596Y66386590D01*
X30617743Y66480694D01*
X30633846Y66564014D01*
X30661901Y66639115D01*
X30702902Y66708561D01*
X30757842Y66774917D01*
X30766765Y66784170D01*
X30819448Y66831727D01*
X30875980Y66869901D01*
X30938606Y66899493D01*
X31009568Y66921303D01*
X31091112Y66936131D01*
X31185482Y66944779D01*
X31221951Y66946493D01*
X31348951Y66951231D01*
X31348951Y65824459D01*
X31590459Y65824459D01*
X31590459Y67173574D01*
X31383709Y67173574D01*
X31277230Y67172739D01*
G36*
X28059443Y66948721D02*
G01*
X28417541Y66948721D01*
X28417541Y65599607D01*
X28659050Y65599607D01*
X28659050Y66948721D01*
X29017148Y66948721D01*
X29017148Y67173574D01*
X28059443Y67173574D01*
X28059443Y66948721D01*
G37*
X28059443Y66948721D02*
X28417541Y66948721D01*
X28417541Y65599607D01*
X28659050Y65599607D01*
X28659050Y66948721D01*
X29017148Y66948721D01*
X29017148Y67173574D01*
X28059443Y67173574D01*
X28059443Y66948721D01*
G36*
X27686771Y67173293D02*
G01*
X27570025Y67171432D01*
X27468208Y67165988D01*
X27379887Y67156503D01*
X27303631Y67142516D01*
X27238009Y67123567D01*
X27181587Y67099197D01*
X27132935Y67068946D01*
X27090620Y67032353D01*
X27053210Y66988959D01*
X27035623Y66964157D01*
X26998541Y66894171D01*
X26974678Y66817111D01*
X26964048Y66736048D01*
X26966660Y66654053D01*
X26982527Y66574198D01*
X27011660Y66499555D01*
X27033761Y66461195D01*
X27081006Y66400980D01*
X27136901Y66349619D01*
X27198171Y66309638D01*
X27261540Y66283558D01*
X27265830Y66282357D01*
X27289297Y66275767D01*
X27304908Y66270968D01*
X27308277Y66269639D01*
X27303935Y66262892D01*
X27290949Y66244240D01*
X27270456Y66215258D01*
X27243592Y66177523D01*
X27211492Y66132612D01*
X27175292Y66082102D01*
X27136127Y66027569D01*
X27095134Y65970590D01*
X27053449Y65912741D01*
X27012206Y65855600D01*
X26972542Y65800743D01*
X26935593Y65749747D01*
X26902493Y65704188D01*
X26874380Y65665643D01*
X26852389Y65635689D01*
X26837655Y65615903D01*
X26833128Y65610017D01*
X26833285Y65606154D01*
X26841949Y65603324D01*
X26860893Y65601392D01*
X26891891Y65600224D01*
X26936716Y65599684D01*
X26970508Y65599607D01*
X27116136Y65599607D01*
X27339784Y65920230D01*
X27392134Y65995181D01*
X27435906Y66057558D01*
X27471974Y66108498D01*
X27501215Y66149138D01*
X27524503Y66180616D01*
X27542716Y66204071D01*
X27556728Y66220638D01*
X27567414Y66231457D01*
X27575652Y66237664D01*
X27582316Y66240397D01*
X27586585Y66240853D01*
X27609738Y66240853D01*
X27609738Y65599607D01*
X27842918Y65599607D01*
X27842918Y66446599D01*
X27609738Y66446599D01*
X27511886Y66451448D01*
X27468135Y66454581D01*
X27425852Y66459286D01*
X27390488Y66464868D01*
X27371137Y66469407D01*
X27310225Y66495171D01*
X27262188Y66531382D01*
X27226765Y66578243D01*
X27222680Y66585896D01*
X27209881Y66613039D01*
X27202321Y66636454D01*
X27198688Y66662474D01*
X27197668Y66697435D01*
X27197663Y66706650D01*
X27198787Y66747193D01*
X27202639Y66777063D01*
X27210251Y66802156D01*
X27217056Y66817377D01*
X27243823Y66858921D01*
X27279957Y66891710D01*
X27326819Y66916358D01*
X27385772Y66933478D01*
X27458175Y66943685D01*
X27503558Y66946547D01*
X27609738Y66950932D01*
X27609738Y66446599D01*
X27842918Y66446599D01*
X27842918Y67173574D01*
X27686771Y67173293D01*
G37*
X27686771Y67173293D02*
X27570025Y67171432D01*
X27468208Y67165988D01*
X27379887Y67156503D01*
X27303631Y67142516D01*
X27238009Y67123567D01*
X27181587Y67099197D01*
X27132935Y67068946D01*
X27090620Y67032353D01*
X27053210Y66988959D01*
X27035623Y66964157D01*
X26998541Y66894171D01*
X26974678Y66817111D01*
X26964048Y66736048D01*
X26966660Y66654053D01*
X26982527Y66574198D01*
X27011660Y66499555D01*
X27033761Y66461195D01*
X27081006Y66400980D01*
X27136901Y66349619D01*
X27198171Y66309638D01*
X27261540Y66283558D01*
X27265830Y66282357D01*
X27289297Y66275767D01*
X27304908Y66270968D01*
X27308277Y66269639D01*
X27303935Y66262892D01*
X27290949Y66244240D01*
X27270456Y66215258D01*
X27243592Y66177523D01*
X27211492Y66132612D01*
X27175292Y66082102D01*
X27136127Y66027569D01*
X27095134Y65970590D01*
X27053449Y65912741D01*
X27012206Y65855600D01*
X26972542Y65800743D01*
X26935593Y65749747D01*
X26902493Y65704188D01*
X26874380Y65665643D01*
X26852389Y65635689D01*
X26837655Y65615903D01*
X26833128Y65610017D01*
X26833285Y65606154D01*
X26841949Y65603324D01*
X26860893Y65601392D01*
X26891891Y65600224D01*
X26936716Y65599684D01*
X26970508Y65599607D01*
X27116136Y65599607D01*
X27339784Y65920230D01*
X27392134Y65995181D01*
X27435906Y66057558D01*
X27471974Y66108498D01*
X27501215Y66149138D01*
X27524503Y66180616D01*
X27542716Y66204071D01*
X27556728Y66220638D01*
X27567414Y66231457D01*
X27575652Y66237664D01*
X27582316Y66240397D01*
X27586585Y66240853D01*
X27609738Y66240853D01*
X27609738Y65599607D01*
X27842918Y65599607D01*
X27842918Y66446599D01*
X27609738Y66446599D01*
X27511886Y66451448D01*
X27468135Y66454581D01*
X27425852Y66459286D01*
X27390488Y66464868D01*
X27371137Y66469407D01*
X27310225Y66495171D01*
X27262188Y66531382D01*
X27226765Y66578243D01*
X27222680Y66585896D01*
X27209881Y66613039D01*
X27202321Y66636454D01*
X27198688Y66662474D01*
X27197668Y66697435D01*
X27197663Y66706650D01*
X27198787Y66747193D01*
X27202639Y66777063D01*
X27210251Y66802156D01*
X27217056Y66817377D01*
X27243823Y66858921D01*
X27279957Y66891710D01*
X27326819Y66916358D01*
X27385772Y66933478D01*
X27458175Y66943685D01*
X27503558Y66946547D01*
X27609738Y66950932D01*
X27609738Y66446599D01*
X27842918Y66446599D01*
X27842918Y67173574D01*
X27686771Y67173293D01*
D12*
%TO.C,BT1*%
X6540000Y23350000D02*
X9080000Y23350000D01*
X7810000Y9380000D02*
X7810000Y11920000D01*
X6540000Y10650000D02*
X9080000Y10650000D01*
X4000000Y31785000D02*
X4000000Y17000000D01*
X57850000Y31785000D02*
X4000000Y31785000D01*
X57850000Y2215000D02*
X57850000Y31785000D01*
X4000000Y2215000D02*
X57850000Y2215000D01*
X4000000Y17000000D02*
X4000000Y2215000D01*
%TO.C,J1*%
X1350000Y79500000D02*
X1350000Y89950000D01*
X1350000Y89950000D02*
X21350000Y89950000D01*
X21350000Y89950000D02*
X21350000Y79500000D01*
X21350000Y79500000D02*
X21350000Y69050000D01*
X21350000Y69050000D02*
X1350000Y69050000D01*
X1350000Y69050000D02*
X1350000Y79500000D01*
X11350000Y87120000D02*
X11350000Y84072000D01*
X11350000Y84072000D02*
X10334000Y85088000D01*
X11350000Y84072000D02*
X12366000Y85088000D01*
%TO.C,J2*%
X48650000Y84072000D02*
X49666000Y85088000D01*
X48650000Y84072000D02*
X47634000Y85088000D01*
X48650000Y87120000D02*
X48650000Y84072000D01*
X38650000Y69050000D02*
X38650000Y79500000D01*
X58650000Y69050000D02*
X38650000Y69050000D01*
X58650000Y79500000D02*
X58650000Y69050000D01*
X58650000Y89950000D02*
X58650000Y79500000D01*
X38650000Y89950000D02*
X58650000Y89950000D01*
X38650000Y79500000D02*
X38650000Y89950000D01*
%TO.C,J1*%
D13*
X12992857Y88191619D02*
X12992857Y89191619D01*
X12516666Y88858285D02*
X12516666Y88191619D01*
X12516666Y88763047D02*
X12469047Y88810666D01*
X12373809Y88858285D01*
X12230952Y88858285D01*
X12135714Y88810666D01*
X12088095Y88715428D01*
X12088095Y88191619D01*
X11611904Y88858285D02*
X11611904Y87858285D01*
X11611904Y88810666D02*
X11516666Y88858285D01*
X11326190Y88858285D01*
X11230952Y88810666D01*
X11183333Y88763047D01*
X11135714Y88667809D01*
X11135714Y88382095D01*
X11183333Y88286857D01*
X11230952Y88239238D01*
X11326190Y88191619D01*
X11516666Y88191619D01*
X11611904Y88239238D01*
X10278571Y88858285D02*
X10278571Y88191619D01*
X10707142Y88858285D02*
X10707142Y88334476D01*
X10659523Y88239238D01*
X10564285Y88191619D01*
X10421428Y88191619D01*
X10326190Y88239238D01*
X10278571Y88286857D01*
X9945238Y88858285D02*
X9564285Y88858285D01*
X9802380Y89191619D02*
X9802380Y88334476D01*
X9754761Y88239238D01*
X9659523Y88191619D01*
X9564285Y88191619D01*
%TO.C,J2*%
X50292857Y88191619D02*
X50292857Y89191619D01*
X49816666Y88858285D02*
X49816666Y88191619D01*
X49816666Y88763047D02*
X49769047Y88810666D01*
X49673809Y88858285D01*
X49530952Y88858285D01*
X49435714Y88810666D01*
X49388095Y88715428D01*
X49388095Y88191619D01*
X48911904Y88858285D02*
X48911904Y87858285D01*
X48911904Y88810666D02*
X48816666Y88858285D01*
X48626190Y88858285D01*
X48530952Y88810666D01*
X48483333Y88763047D01*
X48435714Y88667809D01*
X48435714Y88382095D01*
X48483333Y88286857D01*
X48530952Y88239238D01*
X48626190Y88191619D01*
X48816666Y88191619D01*
X48911904Y88239238D01*
X47578571Y88858285D02*
X47578571Y88191619D01*
X48007142Y88858285D02*
X48007142Y88334476D01*
X47959523Y88239238D01*
X47864285Y88191619D01*
X47721428Y88191619D01*
X47626190Y88239238D01*
X47578571Y88286857D01*
X47245238Y88858285D02*
X46864285Y88858285D01*
X47102380Y89191619D02*
X47102380Y88334476D01*
X47054761Y88239238D01*
X46959523Y88191619D01*
X46864285Y88191619D01*
%TD*%
M02*
